<svg xmlns="http://www.w3.org/2000/svg" xmlns:xlink="http://www.w3.org/1999/xlink" width="500" zoomAndPan="magnify" viewBox="0 0 375 374.999991" height="500" preserveAspectRatio="xMidYMid meet" version="1.0"><defs><g/><clipPath id="d266d0e71c"><path d="M 140 114.125 L 236 114.125 L 236 146 L 140 146 Z M 140 114.125 " clip-rule="nonzero"/></clipPath><clipPath id="d934a812b1"><path d="M 121 185 L 254 185 L 254 198.875 L 121 198.875 Z M 121 185 " clip-rule="nonzero"/></clipPath></defs><rect x="-37.5" width="450" fill="#ffffff" y="-37.499999" height="449.999989" fill-opacity="1"/><rect x="-37.5" width="450" fill="#1d1d1b" y="-37.499999" height="449.999989" fill-opacity="1"/><path fill="#c6c6c6" d="M 126.382812 146.542969 C 126.433594 145.429688 126.410156 142.089844 124.058594 139.433594 C 120.972656 135.945312 115.078125 135.058594 113.613281 136.980469 C 112.5 138.449219 113.96875 141.585938 115.410156 143.304688 C 119.125 147.707031 125.726562 146.644531 126.382812 146.542969 Z M 126.382812 146.542969 " fill-opacity="1" fill-rule="nonzero"/><path fill="#c6c6c6" d="M 248.617188 146.542969 C 248.566406 145.429688 248.589844 142.089844 250.941406 139.433594 C 254.027344 135.945312 259.921875 135.058594 261.386719 136.980469 C 262.5 138.449219 261.03125 141.585938 259.589844 143.304688 C 255.875 147.707031 249.273438 146.644531 248.617188 146.542969 Z M 248.617188 146.542969 " fill-opacity="1" fill-rule="nonzero"/><g clip-path="url(#d266d0e71c)"><path fill="#ff3131" d="M 226.863281 145.300781 L 161.261719 145.300781 C 158.226562 145.277344 156.734375 145.277344 156.429688 145.152344 C 153.875 143.960938 155.898438 132.808594 156.960938 127.675781 C 155.394531 130.75 154.03125 133.910156 152.863281 137.160156 C 151.167969 141.964844 150.765625 144.039062 148.894531 144.949219 C 147.023438 145.859375 143.757812 144.820312 142.089844 142.976562 C 139.789062 140.445312 139.433594 136.148438 141.40625 132.480469 L 144.570312 123.097656 C 145.832031 119.304688 149.625 114.21875 158.453125 114.21875 L 220.492188 114.21875 C 227.902344 114.21875 231.011719 119.355469 232.253906 123.222656 L 235.285156 132.605469 C 237.285156 138.828125 232.984375 145.300781 226.863281 145.300781 Z M 226.863281 145.300781 " fill-opacity="1" fill-rule="nonzero"/></g><path fill="#ff3131" d="M 158.65625 173.78125 C 158.503906 174.007812 152.484375 171.25 146.414062 166.546875 C 136.980469 159.1875 131.695312 150.386719 131.949219 150.183594 C 132.203125 149.980469 134.324219 152.964844 139.839844 158.328125 C 141.710938 160.125 144.820312 163.15625 149.097656 166.597656 C 154.886719 171.300781 158.757812 173.578125 158.65625 173.78125 Z M 158.65625 173.78125 " fill-opacity="1" fill-rule="nonzero"/><path fill="#ff3131" d="M 215.484375 173.78125 C 215.636719 174.007812 221.65625 171.25 227.726562 166.546875 C 237.160156 159.1875 242.445312 150.386719 242.191406 150.183594 C 241.9375 149.980469 239.8125 152.964844 234.277344 158.328125 C 232.429688 160.125 229.320312 163.15625 225.042969 166.597656 C 219.253906 171.300781 215.359375 173.578125 215.484375 173.78125 Z M 215.484375 173.78125 " fill-opacity="1" fill-rule="nonzero"/><path fill="#c6c6c6" d="M 149.726562 175.324219 C 149.324219 176.917969 141.433594 176.941406 134.628906 174.414062 C 132.554688 173.652344 123.652344 170.390625 121.578125 162.804688 C 121.351562 161.96875 120.492188 158.859375 121.707031 158.023438 C 123.398438 156.808594 127.472656 161.335938 135.515625 166.671875 C 144.71875 172.769531 150.082031 173.984375 149.726562 175.324219 Z M 149.726562 175.324219 " fill-opacity="1" fill-rule="nonzero"/><path fill="#c6c6c6" d="M 225.550781 175.324219 C 225.953125 176.917969 233.84375 176.941406 240.648438 174.414062 C 242.722656 173.652344 251.625 170.390625 253.699219 162.804688 C 253.925781 161.96875 254.785156 158.859375 253.574219 158.023438 C 251.878906 156.808594 247.804688 161.335938 239.761719 166.671875 C 230.558594 172.769531 225.195312 173.984375 225.550781 175.324219 Z M 225.550781 175.324219 " fill-opacity="1" fill-rule="nonzero"/><path fill="#c6c6c6" d="M 220.339844 179.621094 C 219.554688 178.789062 218.542969 177.699219 216.851562 177.195312 C 216.054688 176.964844 215.246094 176.894531 214.421875 176.992188 L 187.941406 177.167969 L 161.488281 176.992188 C 160.664062 176.894531 159.855469 176.964844 159.058594 177.195312 C 157.367188 177.699219 156.355469 178.789062 155.570312 179.621094 C 153.976562 181.425781 152.914062 183.496094 152.382812 185.84375 C 153.027344 184.664062 153.828125 183.601562 154.785156 182.65625 C 155.746094 181.695312 156.9375 180.558594 158.808594 179.976562 C 159.382812 179.792969 159.972656 179.683594 160.578125 179.648438 L 181.773438 179.699219 L 194.140625 179.699219 L 215.332031 179.648438 C 215.9375 179.683594 216.527344 179.792969 217.101562 179.976562 C 218.972656 180.558594 220.164062 181.695312 221.125 182.65625 C 222.082031 183.601562 222.882812 184.664062 223.527344 185.84375 C 222.996094 183.496094 221.933594 181.425781 220.339844 179.621094 Z M 220.339844 179.621094 " fill-opacity="1" fill-rule="nonzero"/><g clip-path="url(#d934a812b1)"><path fill="#ff3131" d="M 247.25 193.179688 C 245.296875 194.386719 243.199219 195.21875 240.953125 195.683594 C 238.460938 196.214844 235.957031 196.28125 233.441406 195.882812 C 231.441406 195.605469 231.820312 195.351562 224.941406 193.304688 C 222.136719 192.46875 220.746094 192.117188 218.949219 191.863281 C 217.398438 191.640625 215.835938 191.53125 214.269531 191.535156 L 161.640625 191.535156 C 160.0625 191.53125 158.496094 191.640625 156.9375 191.863281 C 155.164062 192.117188 153.773438 192.46875 150.96875 193.304688 C 144.089844 195.351562 144.46875 195.605469 142.46875 195.882812 C 139.953125 196.28125 137.449219 196.214844 134.957031 195.683594 C 133.574219 195.40625 132.242188 194.976562 130.957031 194.402344 C 129.667969 193.824219 128.460938 193.113281 127.335938 192.265625 C 126.207031 191.417969 125.1875 190.457031 124.277344 189.382812 C 123.367188 188.308594 122.585938 187.144531 121.933594 185.894531 C 122.835938 189.050781 124.5 191.742188 126.914062 193.960938 C 130.480469 197.175781 134.351562 197.957031 136.296875 198.3125 C 139.144531 198.59375 141.980469 198.480469 144.796875 197.984375 C 147.082031 197.527344 149.316406 196.886719 151.5 196.0625 L 152.207031 195.785156 L 153.242188 195.402344 C 155.128906 194.8125 157.058594 194.503906 159.035156 194.46875 L 216.875 194.46875 C 218.851562 194.503906 220.78125 194.8125 222.667969 195.402344 L 223.703125 195.785156 L 224.410156 196.0625 C 226.59375 196.886719 228.828125 197.527344 231.113281 197.984375 C 233.929688 198.480469 236.765625 198.59375 239.613281 198.3125 C 241.558594 197.957031 245.429688 197.175781 248.996094 193.960938 C 251.414062 191.742188 253.074219 189.050781 253.976562 185.894531 C 252.378906 188.917969 250.136719 191.347656 247.25 193.179688 Z M 247.25 193.179688 " fill-opacity="1" fill-rule="nonzero"/></g><g fill="#f4f4f4" fill-opacity="1"><g transform="translate(107.917038, 230.030921)"><g><path d="M 23.222656 -21.675781 L 23.222656 0 L 20.128906 0 L 4.644531 -16.660156 L 4.644531 0 L 1.546875 0 L 1.546875 -21.675781 L 4.644531 -21.675781 L 20.128906 -5.265625 L 20.128906 -21.675781 Z M 23.222656 -21.675781 "/></g></g></g><g fill="#f4f4f4" fill-opacity="1"><g transform="translate(135.412487, 230.030921)"><g><path d="M 4.644531 -18.578125 L 4.644531 -12.386719 L 20.128906 -12.386719 L 20.128906 -9.289062 L 4.644531 -9.289062 L 4.644531 -3.097656 L 23.222656 -3.097656 L 23.222656 0 L 1.546875 0 L 1.546875 -21.675781 L 23.222656 -21.675781 L 23.222656 -18.578125 Z M 4.644531 -18.578125 "/></g></g></g><g fill="#f4f4f4" fill-opacity="1"><g transform="translate(162.288685, 230.030921)"><g><path d="M 19.507812 -21.675781 L 22.605469 -21.675781 L 22.605469 -17.03125 L 14.335938 -10.808594 L 22.605469 -4.582031 L 22.605469 0 L 19.507812 0 L 19.507812 -3.035156 L 11.765625 -8.855469 L 4.027344 -3.035156 L 4.027344 0 L 0.929688 0 L 0.929688 -4.582031 L 9.195312 -10.808594 L 0.929688 -17.03125 L 0.929688 -21.675781 L 4.027344 -21.675781 L 4.027344 -18.578125 L 11.765625 -12.757812 L 19.507812 -18.578125 Z M 19.507812 -21.675781 "/></g></g></g><g fill="#f4f4f4" fill-opacity="1"><g transform="translate(188.545625, 230.030921)"><g><path d="M 7.429688 -21.675781 L 16.722656 -21.675781 C 17.835938 -21.675781 18.851562 -21.398438 19.769531 -20.839844 C 20.691406 -20.28125 21.4375 -19.539062 22.015625 -18.609375 C 22.59375 -17.679688 22.894531 -16.636719 22.914062 -15.484375 L 19.816406 -15.484375 C 19.816406 -16.328125 19.511719 -17.054688 18.902344 -17.664062 C 18.296875 -18.273438 17.566406 -18.578125 16.722656 -18.578125 L 7.429688 -18.578125 C 6.585938 -18.578125 5.859375 -18.273438 5.25 -17.664062 C 4.640625 -17.054688 4.335938 -16.328125 4.335938 -15.484375 L 4.335938 -6.191406 C 4.335938 -5.347656 4.640625 -4.617188 5.25 -4.011719 C 5.859375 -3.402344 6.585938 -3.097656 7.429688 -3.097656 L 16.722656 -3.097656 C 17.566406 -3.097656 18.296875 -3.402344 18.902344 -4.011719 C 19.511719 -4.617188 19.816406 -5.347656 19.816406 -6.191406 L 22.914062 -6.191406 C 22.914062 -5.097656 22.640625 -4.082031 22.09375 -3.144531 C 21.546875 -2.203125 20.804688 -1.445312 19.863281 -0.867188 C 18.925781 -0.289062 17.878906 0 16.722656 0 L 7.429688 0 C 6.335938 0 5.316406 -0.273438 4.367188 -0.820312 C 3.417969 -1.367188 2.65625 -2.109375 2.089844 -3.050781 C 1.523438 -3.988281 1.238281 -5.035156 1.238281 -6.191406 L 1.238281 -15.484375 C 1.238281 -16.597656 1.511719 -17.617188 2.058594 -18.546875 C 2.605469 -19.476562 3.347656 -20.226562 4.289062 -20.792969 C 5.226562 -21.359375 6.277344 -21.65625 7.429688 -21.675781 Z M 7.429688 -21.675781 "/></g></g></g><g fill="#f4f4f4" fill-opacity="1"><g transform="translate(215.112201, 230.030921)"><g><path d="M 17.03125 -18.578125 L 7.742188 -18.578125 C 6.894531 -18.578125 6.167969 -18.273438 5.558594 -17.664062 C 4.949219 -17.054688 4.644531 -16.328125 4.644531 -15.484375 L 4.644531 -9.289062 L 20.128906 -9.289062 L 20.128906 -15.484375 C 20.128906 -16.328125 19.824219 -17.054688 19.214844 -17.664062 C 18.605469 -18.273438 17.878906 -18.578125 17.03125 -18.578125 Z M 23.222656 -15.484375 L 23.222656 0 L 20.128906 0 L 20.128906 -6.191406 L 4.644531 -6.191406 L 4.644531 0 L 1.546875 0 L 1.546875 -15.484375 C 1.546875 -16.578125 1.820312 -17.59375 2.367188 -18.53125 C 2.914062 -19.472656 3.660156 -20.230469 4.597656 -20.808594 C 5.539062 -21.386719 6.585938 -21.675781 7.742188 -21.675781 L 17.03125 -21.675781 C 18.144531 -21.675781 19.164062 -21.398438 20.082031 -20.839844 C 21 -20.28125 21.746094 -19.539062 22.324219 -18.609375 C 22.902344 -17.679688 23.203125 -16.636719 23.222656 -15.484375 Z M 23.222656 -15.484375 "/></g></g></g><g fill="#f4f4f4" fill-opacity="1"><g transform="translate(242.607655, 230.030921)"><g><path d="M 20.128906 -12.386719 L 20.128906 -15.484375 C 20.128906 -16.328125 19.824219 -17.054688 19.214844 -17.664062 C 18.605469 -18.273438 17.878906 -18.578125 17.03125 -18.578125 L 4.644531 -18.578125 L 4.644531 -9.289062 L 17.03125 -9.289062 C 17.878906 -9.289062 18.605469 -9.59375 19.214844 -10.203125 C 19.824219 -10.8125 20.128906 -11.539062 20.128906 -12.386719 Z M 23.222656 0 L 21.023438 0 L 14.832031 -6.191406 L 4.644531 -6.191406 L 4.644531 0 L 1.546875 0 L 1.546875 -21.675781 L 17.03125 -21.675781 C 18.125 -21.675781 19.140625 -21.398438 20.082031 -20.839844 C 21.019531 -20.28125 21.777344 -19.539062 22.355469 -18.609375 C 22.933594 -17.679688 23.222656 -16.636719 23.222656 -15.484375 L 23.222656 -12.386719 C 23.222656 -11.066406 22.828125 -9.863281 22.03125 -8.777344 C 21.238281 -7.695312 20.199219 -6.9375 18.917969 -6.503906 L 23.222656 -2.199219 Z M 23.222656 0 "/></g></g></g><g fill="#ff3131" fill-opacity="1"><g transform="translate(105.095466, 251.83943)"><g><path d="M 9.90625 -1.546875 L 10.1875 -0.65625 C 9.582031 -0.394531 8.941406 -0.1875 8.265625 -0.03125 C 7.597656 0.113281 6.910156 0.1875 6.203125 0.1875 C 5.234375 0.1875 4.351562 0.015625 3.5625 -0.328125 C 2.769531 -0.671875 2.140625 -1.210938 1.671875 -1.953125 C 1.203125 -2.691406 0.96875 -3.65625 0.96875 -4.84375 C 0.96875 -6.03125 1.203125 -6.992188 1.671875 -7.734375 C 2.140625 -8.472656 2.769531 -9.015625 3.5625 -9.359375 C 4.351562 -9.703125 5.234375 -9.875 6.203125 -9.875 C 6.910156 -9.875 7.597656 -9.800781 8.265625 -9.65625 C 8.941406 -9.507812 9.582031 -9.296875 10.1875 -9.015625 L 9.90625 -8.109375 C 9.34375 -8.367188 8.75 -8.566406 8.125 -8.703125 C 7.5 -8.847656 6.859375 -8.921875 6.203125 -8.921875 C 5.429688 -8.921875 4.722656 -8.78125 4.078125 -8.5 C 3.441406 -8.226562 2.929688 -7.789062 2.546875 -7.1875 C 2.171875 -6.582031 1.984375 -5.800781 1.984375 -4.84375 C 1.984375 -3.875 2.171875 -3.085938 2.546875 -2.484375 C 2.929688 -1.878906 3.441406 -1.441406 4.078125 -1.171875 C 4.722656 -0.898438 5.429688 -0.765625 6.203125 -0.765625 C 6.859375 -0.765625 7.5 -0.832031 8.125 -0.96875 C 8.75 -1.101562 9.34375 -1.296875 9.90625 -1.546875 Z M 9.90625 -1.546875 "/></g></g></g><g fill="#ff3131" fill-opacity="1"><g transform="translate(117.338977, 251.83943)"><g><path d="M 11.59375 0 L 10.46875 0 C 10.25 -0.382812 10.035156 -0.769531 9.828125 -1.15625 C 9.628906 -1.550781 9.421875 -1.945312 9.203125 -2.34375 L 2.703125 -2.34375 L 1.46875 0 L 0.328125 0 L 5.484375 -9.671875 L 6.453125 -9.671875 Z M 8.703125 -3.3125 C 8.242188 -4.164062 7.785156 -5.023438 7.328125 -5.890625 C 6.878906 -6.765625 6.429688 -7.632812 5.984375 -8.5 L 3.203125 -3.3125 Z M 8.703125 -3.3125 "/></g></g></g><g fill="#ff3131" fill-opacity="1"><g transform="translate(130.695508, 251.83943)"><g><path d="M 10.5625 0 L 9.3125 0 L 6.71875 -3.390625 L 2.46875 -3.390625 L 2.46875 0 L 1.453125 0 L 1.453125 -9.671875 L 7.296875 -9.671875 C 7.921875 -9.671875 8.484375 -9.5625 8.984375 -9.34375 C 9.492188 -9.132812 9.894531 -8.796875 10.1875 -8.328125 C 10.488281 -7.867188 10.640625 -7.269531 10.640625 -6.53125 C 10.640625 -5.550781 10.382812 -4.804688 9.875 -4.296875 C 9.363281 -3.785156 8.726562 -3.488281 7.96875 -3.40625 Z M 7.296875 -8.71875 L 2.46875 -8.71875 L 2.46875 -4.34375 L 7.296875 -4.34375 C 7.734375 -4.34375 8.125 -4.414062 8.46875 -4.5625 C 8.820312 -4.71875 9.101562 -4.953125 9.3125 -5.265625 C 9.519531 -5.585938 9.625 -6.007812 9.625 -6.53125 C 9.625 -7.300781 9.394531 -7.859375 8.9375 -8.203125 C 8.476562 -8.546875 7.929688 -8.71875 7.296875 -8.71875 Z M 7.296875 -8.71875 "/></g></g></g><g fill="#ff3131" fill-opacity="1"><g transform="translate(143.842343, 251.83943)"><g/></g></g><g fill="#ff3131" fill-opacity="1"><g transform="translate(149.778742, 251.83943)"><g><path d="M 0.734375 -0.65625 L 1.015625 -1.546875 C 1.617188 -1.285156 2.269531 -1.082031 2.96875 -0.9375 C 3.664062 -0.789062 4.378906 -0.71875 5.109375 -0.71875 C 5.703125 -0.71875 6.265625 -0.78125 6.796875 -0.90625 C 7.328125 -1.03125 7.765625 -1.226562 8.109375 -1.5 C 8.453125 -1.769531 8.625 -2.117188 8.625 -2.546875 C 8.625 -2.921875 8.476562 -3.21875 8.1875 -3.4375 C 7.90625 -3.65625 7.535156 -3.828125 7.078125 -3.953125 C 6.617188 -4.078125 6.109375 -4.179688 5.546875 -4.265625 C 4.984375 -4.359375 4.421875 -4.453125 3.859375 -4.546875 C 3.304688 -4.648438 2.796875 -4.796875 2.328125 -4.984375 C 1.867188 -5.171875 1.5 -5.425781 1.21875 -5.75 C 0.9375 -6.070312 0.796875 -6.5 0.796875 -7.03125 C 0.796875 -7.53125 0.914062 -7.960938 1.15625 -8.328125 C 1.394531 -8.691406 1.722656 -8.984375 2.140625 -9.203125 C 2.566406 -9.429688 3.039062 -9.597656 3.5625 -9.703125 C 4.082031 -9.816406 4.617188 -9.875 5.171875 -9.875 C 5.898438 -9.875 6.609375 -9.800781 7.296875 -9.65625 C 7.992188 -9.507812 8.648438 -9.296875 9.265625 -9.015625 C 9.203125 -8.859375 9.144531 -8.707031 9.09375 -8.5625 C 9.039062 -8.414062 8.984375 -8.265625 8.921875 -8.109375 C 7.765625 -8.640625 6.503906 -8.90625 5.140625 -8.90625 C 4.578125 -8.90625 4.035156 -8.84375 3.515625 -8.71875 C 3.003906 -8.601562 2.59375 -8.410156 2.28125 -8.140625 C 1.96875 -7.867188 1.8125 -7.507812 1.8125 -7.0625 C 1.8125 -6.644531 1.957031 -6.320312 2.25 -6.09375 C 2.539062 -5.875 2.925781 -5.710938 3.40625 -5.609375 C 3.894531 -5.503906 4.429688 -5.40625 5.015625 -5.3125 C 5.890625 -5.175781 6.675781 -5.015625 7.375 -4.828125 C 8.070312 -4.648438 8.625 -4.390625 9.03125 -4.046875 C 9.4375 -3.710938 9.640625 -3.226562 9.640625 -2.59375 C 9.640625 -2.09375 9.503906 -1.664062 9.234375 -1.3125 C 8.972656 -0.957031 8.617188 -0.664062 8.171875 -0.4375 C 7.722656 -0.21875 7.226562 -0.0625 6.6875 0.03125 C 6.15625 0.132812 5.613281 0.1875 5.0625 0.1875 C 4.34375 0.1875 3.59375 0.113281 2.8125 -0.03125 C 2.039062 -0.1875 1.347656 -0.394531 0.734375 -0.65625 Z M 0.734375 -0.65625 "/></g></g></g><g fill="#ff3131" fill-opacity="1"><g transform="translate(161.71577, 251.83943)"><g><path d="M 11.171875 0 L 10.15625 0 L 10.15625 -4.359375 L 2.484375 -4.359375 L 2.484375 0 L 1.46875 0 L 1.46875 -9.671875 L 2.484375 -9.671875 L 2.484375 -5.328125 L 10.15625 -5.328125 L 10.15625 -9.671875 L 11.171875 -9.671875 Z M 11.171875 0 "/></g></g></g><g fill="#ff3131" fill-opacity="1"><g transform="translate(175.782053, 251.83943)"><g><path d="M 11.453125 -4.84375 C 11.453125 -3.65625 11.21875 -2.691406 10.75 -1.953125 C 10.28125 -1.210938 9.648438 -0.671875 8.859375 -0.328125 C 8.066406 0.015625 7.179688 0.1875 6.203125 0.1875 C 5.234375 0.1875 4.351562 0.015625 3.5625 -0.328125 C 2.769531 -0.671875 2.140625 -1.210938 1.671875 -1.953125 C 1.203125 -2.691406 0.96875 -3.65625 0.96875 -4.84375 C 0.96875 -6.03125 1.203125 -6.992188 1.671875 -7.734375 C 2.140625 -8.472656 2.769531 -9.015625 3.5625 -9.359375 C 4.351562 -9.703125 5.234375 -9.875 6.203125 -9.875 C 7.179688 -9.875 8.066406 -9.703125 8.859375 -9.359375 C 9.648438 -9.015625 10.28125 -8.472656 10.75 -7.734375 C 11.21875 -6.992188 11.453125 -6.03125 11.453125 -4.84375 Z M 10.4375 -4.84375 C 10.4375 -5.800781 10.242188 -6.582031 9.859375 -7.1875 C 9.472656 -7.789062 8.960938 -8.226562 8.328125 -8.5 C 7.691406 -8.78125 6.984375 -8.921875 6.203125 -8.921875 C 5.429688 -8.921875 4.722656 -8.78125 4.078125 -8.5 C 3.441406 -8.226562 2.929688 -7.789062 2.546875 -7.1875 C 2.171875 -6.582031 1.984375 -5.800781 1.984375 -4.84375 C 1.984375 -3.875 2.171875 -3.085938 2.546875 -2.484375 C 2.929688 -1.878906 3.441406 -1.441406 4.078125 -1.171875 C 4.722656 -0.898438 5.429688 -0.765625 6.203125 -0.765625 C 6.992188 -0.765625 7.703125 -0.898438 8.328125 -1.171875 C 8.960938 -1.441406 9.472656 -1.878906 9.859375 -2.484375 C 10.242188 -3.085938 10.4375 -3.875 10.4375 -4.84375 Z M 10.4375 -4.84375 "/></g></g></g><g fill="#ff3131" fill-opacity="1"><g transform="translate(189.622507, 251.83943)"><g><path d="M 12.125 0 L 11.15625 0 L 8.09375 -8.34375 L 5.046875 0 L 4.09375 0 L 0.5 -9.671875 L 1.59375 -9.671875 L 4.5625 -1.234375 L 7.625 -9.671875 L 8.578125 -9.671875 L 11.65625 -1.234375 L 14.59375 -9.671875 L 15.703125 -9.671875 Z M 12.125 0 "/></g></g></g><g fill="#ff3131" fill-opacity="1"><g transform="translate(207.253687, 251.83943)"><g><path d="M 10.5625 0 L 9.3125 0 L 6.71875 -3.390625 L 2.46875 -3.390625 L 2.46875 0 L 1.453125 0 L 1.453125 -9.671875 L 7.296875 -9.671875 C 7.921875 -9.671875 8.484375 -9.5625 8.984375 -9.34375 C 9.492188 -9.132812 9.894531 -8.796875 10.1875 -8.328125 C 10.488281 -7.867188 10.640625 -7.269531 10.640625 -6.53125 C 10.640625 -5.550781 10.382812 -4.804688 9.875 -4.296875 C 9.363281 -3.785156 8.726562 -3.488281 7.96875 -3.40625 Z M 7.296875 -8.71875 L 2.46875 -8.71875 L 2.46875 -4.34375 L 7.296875 -4.34375 C 7.734375 -4.34375 8.125 -4.414062 8.46875 -4.5625 C 8.820312 -4.71875 9.101562 -4.953125 9.3125 -5.265625 C 9.519531 -5.585938 9.625 -6.007812 9.625 -6.53125 C 9.625 -7.300781 9.394531 -7.859375 8.9375 -8.203125 C 8.476562 -8.546875 7.929688 -8.71875 7.296875 -8.71875 Z M 7.296875 -8.71875 "/></g></g></g><g fill="#ff3131" fill-opacity="1"><g transform="translate(220.400525, 251.83943)"><g><path d="M 11.453125 -4.84375 C 11.453125 -3.65625 11.21875 -2.691406 10.75 -1.953125 C 10.28125 -1.210938 9.648438 -0.671875 8.859375 -0.328125 C 8.066406 0.015625 7.179688 0.1875 6.203125 0.1875 C 5.234375 0.1875 4.351562 0.015625 3.5625 -0.328125 C 2.769531 -0.671875 2.140625 -1.210938 1.671875 -1.953125 C 1.203125 -2.691406 0.96875 -3.65625 0.96875 -4.84375 C 0.96875 -6.03125 1.203125 -6.992188 1.671875 -7.734375 C 2.140625 -8.472656 2.769531 -9.015625 3.5625 -9.359375 C 4.351562 -9.703125 5.234375 -9.875 6.203125 -9.875 C 7.179688 -9.875 8.066406 -9.703125 8.859375 -9.359375 C 9.648438 -9.015625 10.28125 -8.472656 10.75 -7.734375 C 11.21875 -6.992188 11.453125 -6.03125 11.453125 -4.84375 Z M 10.4375 -4.84375 C 10.4375 -5.800781 10.242188 -6.582031 9.859375 -7.1875 C 9.472656 -7.789062 8.960938 -8.226562 8.328125 -8.5 C 7.691406 -8.78125 6.984375 -8.921875 6.203125 -8.921875 C 5.429688 -8.921875 4.722656 -8.78125 4.078125 -8.5 C 3.441406 -8.226562 2.929688 -7.789062 2.546875 -7.1875 C 2.171875 -6.582031 1.984375 -5.800781 1.984375 -4.84375 C 1.984375 -3.875 2.171875 -3.085938 2.546875 -2.484375 C 2.929688 -1.878906 3.441406 -1.441406 4.078125 -1.171875 C 4.722656 -0.898438 5.429688 -0.765625 6.203125 -0.765625 C 6.992188 -0.765625 7.703125 -0.898438 8.328125 -1.171875 C 8.960938 -1.441406 9.472656 -1.878906 9.859375 -2.484375 C 10.242188 -3.085938 10.4375 -3.875 10.4375 -4.84375 Z M 10.4375 -4.84375 "/></g></g></g><g fill="#ff3131" fill-opacity="1"><g transform="translate(234.240984, 251.83943)"><g><path d="M 11.453125 -4.84375 C 11.453125 -3.65625 11.21875 -2.691406 10.75 -1.953125 C 10.28125 -1.210938 9.648438 -0.671875 8.859375 -0.328125 C 8.066406 0.015625 7.179688 0.1875 6.203125 0.1875 C 5.234375 0.1875 4.351562 0.015625 3.5625 -0.328125 C 2.769531 -0.671875 2.140625 -1.210938 1.671875 -1.953125 C 1.203125 -2.691406 0.96875 -3.65625 0.96875 -4.84375 C 0.96875 -6.03125 1.203125 -6.992188 1.671875 -7.734375 C 2.140625 -8.472656 2.769531 -9.015625 3.5625 -9.359375 C 4.351562 -9.703125 5.234375 -9.875 6.203125 -9.875 C 7.179688 -9.875 8.066406 -9.703125 8.859375 -9.359375 C 9.648438 -9.015625 10.28125 -8.472656 10.75 -7.734375 C 11.21875 -6.992188 11.453125 -6.03125 11.453125 -4.84375 Z M 10.4375 -4.84375 C 10.4375 -5.800781 10.242188 -6.582031 9.859375 -7.1875 C 9.472656 -7.789062 8.960938 -8.226562 8.328125 -8.5 C 7.691406 -8.78125 6.984375 -8.921875 6.203125 -8.921875 C 5.429688 -8.921875 4.722656 -8.78125 4.078125 -8.5 C 3.441406 -8.226562 2.929688 -7.789062 2.546875 -7.1875 C 2.171875 -6.582031 1.984375 -5.800781 1.984375 -4.84375 C 1.984375 -3.875 2.171875 -3.085938 2.546875 -2.484375 C 2.929688 -1.878906 3.441406 -1.441406 4.078125 -1.171875 C 4.722656 -0.898438 5.429688 -0.765625 6.203125 -0.765625 C 6.992188 -0.765625 7.703125 -0.898438 8.328125 -1.171875 C 8.960938 -1.441406 9.472656 -1.878906 9.859375 -2.484375 C 10.242188 -3.085938 10.4375 -3.875 10.4375 -4.84375 Z M 10.4375 -4.84375 "/></g></g></g><g fill="#ff3131" fill-opacity="1"><g transform="translate(248.081443, 251.83943)"><g><path d="M 14.40625 0 L 13.390625 0 L 13.390625 -7.984375 L 8.46875 0 L 7.390625 0 L 2.484375 -7.984375 L 2.484375 0 L 1.46875 0 L 1.46875 -9.671875 L 2.546875 -9.671875 L 7.9375 -0.875 L 13.328125 -9.671875 L 14.40625 -9.671875 Z M 14.40625 0 "/></g></g></g><g fill="#ff3131" fill-opacity="1"><g transform="translate(265.377551, 251.83943)"><g/></g></g></svg>