<svg xmlns="http://www.w3.org/2000/svg" xmlns:xlink="http://www.w3.org/1999/xlink" width="500" zoomAndPan="magnify" viewBox="0 0 375 374.999991" height="500" preserveAspectRatio="xMidYMid meet" version="1.0"><defs><g/><clipPath id="7c31c48dec"><path d="M 140 113.59375 L 236 113.59375 L 236 145 L 140 145 Z M 140 113.59375 " clip-rule="nonzero"/></clipPath></defs><path fill="#000000" d="M 126.382812 145.984375 C 126.433594 144.898438 126.410156 141.558594 124.058594 138.902344 C 120.972656 135.414062 115.078125 134.527344 113.613281 136.449219 C 112.5 137.917969 113.96875 141.027344 115.410156 142.773438 C 119.125 147.148438 125.726562 146.113281 126.382812 145.984375 Z M 126.382812 145.984375 " fill-opacity="1" fill-rule="nonzero"/><path fill="#000000" d="M 248.617188 145.984375 C 248.566406 144.898438 248.589844 141.558594 250.941406 138.902344 C 254.027344 135.414062 259.921875 134.527344 261.386719 136.449219 C 262.5 137.917969 261.03125 141.027344 259.589844 142.773438 C 255.875 147.148438 249.273438 146.113281 248.617188 145.984375 Z M 248.617188 145.984375 " fill-opacity="1" fill-rule="nonzero"/><g clip-path="url(#7c31c48dec)"><path fill="#000000" d="M 226.863281 144.746094 L 163.664062 144.746094 C 163.03125 144.746094 162.449219 144.769531 161.261719 144.746094 C 158.226562 144.746094 156.734375 144.746094 156.429688 144.59375 C 153.875 143.40625 155.898438 132.253906 156.960938 127.144531 C 155.394531 130.21875 154.03125 133.378906 152.863281 136.628906 C 151.167969 141.433594 150.765625 143.480469 148.894531 144.390625 C 147.023438 145.300781 143.757812 144.265625 142.089844 142.445312 C 139.789062 139.914062 139.433594 135.589844 141.40625 131.921875 L 144.570312 122.539062 C 145.832031 118.746094 149.625 113.6875 158.453125 113.6875 L 220.492188 113.6875 C 227.902344 113.6875 231.011719 118.824219 232.253906 122.667969 L 235.285156 132.074219 C 237.285156 138.273438 232.984375 144.746094 226.863281 144.746094 Z M 226.863281 144.746094 " fill-opacity="1" fill-rule="nonzero"/></g><path fill="#000000" d="M 158.65625 173.222656 C 158.503906 173.476562 152.484375 170.71875 146.414062 165.992188 C 136.980469 158.65625 131.695312 149.855469 131.949219 149.628906 C 132.203125 149.398438 134.300781 152.433594 139.839844 157.796875 C 141.710938 159.59375 144.820312 162.601562 149.097656 166.066406 C 154.886719 170.769531 158.757812 173.046875 158.65625 173.222656 Z M 158.65625 173.222656 " fill-opacity="1" fill-rule="nonzero"/><path fill="#000000" d="M 215.484375 173.222656 C 215.636719 173.476562 221.65625 170.71875 227.726562 165.992188 C 237.160156 158.65625 242.445312 149.855469 242.191406 149.628906 C 241.9375 149.398438 239.8125 152.433594 234.277344 157.796875 C 232.429688 159.59375 229.292969 162.601562 225.042969 166.066406 C 219.253906 170.769531 215.359375 173.046875 215.484375 173.222656 Z M 215.484375 173.222656 " fill-opacity="1" fill-rule="nonzero"/><path fill="#000000" d="M 149.726562 174.792969 C 149.324219 176.386719 141.433594 176.386719 134.628906 173.882812 C 132.554688 173.121094 123.652344 169.859375 121.578125 162.246094 C 121.351562 161.4375 120.492188 158.328125 121.707031 157.46875 C 123.398438 156.277344 127.472656 160.78125 135.515625 166.140625 C 144.71875 172.238281 150.082031 173.425781 149.726562 174.792969 Z M 149.726562 174.792969 " fill-opacity="1" fill-rule="nonzero"/><path fill="#000000" d="M 225.550781 174.792969 C 225.953125 176.386719 233.84375 176.386719 240.648438 173.882812 C 242.722656 173.121094 251.625 169.859375 253.699219 162.246094 C 253.925781 161.4375 254.785156 158.328125 253.574219 157.46875 C 251.878906 156.277344 247.78125 160.78125 239.761719 166.140625 C 230.558594 172.238281 225.195312 173.425781 225.550781 174.792969 Z M 225.550781 174.792969 " fill-opacity="1" fill-rule="nonzero"/><path fill="#000000" d="M 220.339844 179.089844 C 219.554688 178.230469 218.542969 177.144531 216.851562 176.664062 C 216.054688 176.4375 215.246094 176.363281 214.421875 176.4375 L 187.941406 176.636719 L 161.488281 176.4375 C 160.664062 176.363281 159.855469 176.4375 159.058594 176.664062 C 157.367188 177.144531 156.355469 178.230469 155.570312 179.089844 C 153.96875 180.878906 152.90625 182.945312 152.382812 185.289062 C 153.03125 184.109375 153.832031 183.046875 154.785156 182.101562 C 155.746094 181.164062 156.9375 180 158.808594 179.445312 C 159.382812 179.261719 159.972656 179.152344 160.578125 179.117188 L 215.332031 179.117188 C 215.9375 179.152344 216.527344 179.261719 217.101562 179.445312 C 218.972656 180 220.164062 181.164062 221.125 182.101562 C 222.078125 183.046875 222.878906 184.109375 223.527344 185.289062 C 223.148438 183.746094 222.339844 181.265625 220.339844 179.089844 Z M 220.339844 179.089844 " fill-opacity="1" fill-rule="nonzero"/><path fill="#000000" d="M 247.25 192.648438 C 245.292969 193.84375 243.195312 194.675781 240.953125 195.152344 C 238.460938 195.65625 235.957031 195.722656 233.441406 195.351562 C 231.417969 195.050781 231.820312 194.820312 224.941406 192.773438 C 222.136719 191.9375 220.746094 191.558594 218.949219 191.304688 C 217.398438 191.078125 215.839844 190.976562 214.269531 191.003906 L 161.640625 191.003906 C 160.0625 190.976562 158.496094 191.078125 156.9375 191.304688 C 155.164062 191.558594 153.773438 191.9375 150.96875 192.773438 C 144.089844 194.820312 144.46875 195.050781 142.46875 195.351562 C 139.953125 195.722656 137.449219 195.65625 134.957031 195.152344 C 132.714844 194.675781 130.617188 193.84375 128.660156 192.648438 C 125.761719 190.8125 123.519531 188.378906 121.933594 185.339844 C 122.832031 188.5 124.492188 191.1875 126.914062 193.40625 C 130.480469 196.644531 134.351562 197.402344 136.296875 197.78125 C 139.144531 198.0625 141.980469 197.949219 144.796875 197.453125 C 147.078125 196.980469 149.3125 196.339844 151.5 195.53125 L 152.207031 195.253906 C 152.542969 195.101562 152.890625 194.976562 153.242188 194.871094 C 155.128906 194.28125 157.058594 193.972656 159.035156 193.9375 L 216.875 193.9375 C 218.851562 193.972656 220.78125 194.28125 222.667969 194.871094 C 223.019531 194.980469 223.367188 195.105469 223.703125 195.253906 L 224.410156 195.53125 C 226.597656 196.339844 228.832031 196.980469 231.113281 197.453125 C 233.929688 197.949219 236.765625 198.0625 239.613281 197.78125 C 241.558594 197.402344 245.429688 196.644531 248.96875 193.40625 C 251.40625 191.195312 253.078125 188.503906 253.976562 185.339844 C 252.390625 188.378906 250.148438 190.8125 247.25 192.648438 Z M 247.25 192.648438 " fill-opacity="1" fill-rule="nonzero"/><g fill="#000000" fill-opacity="1"><g transform="translate(107.917038, 230.030921)"><g><path d="M 23.222656 -21.675781 L 23.222656 0 L 20.128906 0 L 4.644531 -16.660156 L 4.644531 0 L 1.546875 0 L 1.546875 -21.675781 L 4.644531 -21.675781 L 20.128906 -5.265625 L 20.128906 -21.675781 Z M 23.222656 -21.675781 "/></g></g></g><g fill="#000000" fill-opacity="1"><g transform="translate(135.412487, 230.030921)"><g><path d="M 4.644531 -18.578125 L 4.644531 -12.386719 L 20.128906 -12.386719 L 20.128906 -9.289062 L 4.644531 -9.289062 L 4.644531 -3.097656 L 23.222656 -3.097656 L 23.222656 0 L 1.546875 0 L 1.546875 -21.675781 L 23.222656 -21.675781 L 23.222656 -18.578125 Z M 4.644531 -18.578125 "/></g></g></g><g fill="#000000" fill-opacity="1"><g transform="translate(162.288685, 230.030921)"><g><path d="M 19.507812 -21.675781 L 22.605469 -21.675781 L 22.605469 -17.03125 L 14.335938 -10.808594 L 22.605469 -4.582031 L 22.605469 0 L 19.507812 0 L 19.507812 -3.035156 L 11.765625 -8.855469 L 4.027344 -3.035156 L 4.027344 0 L 0.929688 0 L 0.929688 -4.582031 L 9.195312 -10.808594 L 0.929688 -17.03125 L 0.929688 -21.675781 L 4.027344 -21.675781 L 4.027344 -18.578125 L 11.765625 -12.757812 L 19.507812 -18.578125 Z M 19.507812 -21.675781 "/></g></g></g><g fill="#000000" fill-opacity="1"><g transform="translate(188.545625, 230.030921)"><g><path d="M 7.429688 -21.675781 L 16.722656 -21.675781 C 17.835938 -21.675781 18.851562 -21.398438 19.769531 -20.839844 C 20.691406 -20.28125 21.4375 -19.539062 22.015625 -18.609375 C 22.59375 -17.679688 22.894531 -16.636719 22.914062 -15.484375 L 19.816406 -15.484375 C 19.816406 -16.328125 19.511719 -17.054688 18.902344 -17.664062 C 18.296875 -18.273438 17.566406 -18.578125 16.722656 -18.578125 L 7.429688 -18.578125 C 6.585938 -18.578125 5.859375 -18.273438 5.25 -17.664062 C 4.640625 -17.054688 4.335938 -16.328125 4.335938 -15.484375 L 4.335938 -6.191406 C 4.335938 -5.347656 4.640625 -4.617188 5.25 -4.011719 C 5.859375 -3.402344 6.585938 -3.097656 7.429688 -3.097656 L 16.722656 -3.097656 C 17.566406 -3.097656 18.296875 -3.402344 18.902344 -4.011719 C 19.511719 -4.617188 19.816406 -5.347656 19.816406 -6.191406 L 22.914062 -6.191406 C 22.914062 -5.097656 22.640625 -4.082031 22.09375 -3.144531 C 21.546875 -2.203125 20.804688 -1.445312 19.863281 -0.867188 C 18.925781 -0.289062 17.878906 0 16.722656 0 L 7.429688 0 C 6.335938 0 5.316406 -0.273438 4.367188 -0.820312 C 3.417969 -1.367188 2.65625 -2.109375 2.089844 -3.050781 C 1.523438 -3.988281 1.238281 -5.035156 1.238281 -6.191406 L 1.238281 -15.484375 C 1.238281 -16.597656 1.511719 -17.617188 2.058594 -18.546875 C 2.605469 -19.476562 3.347656 -20.226562 4.289062 -20.792969 C 5.226562 -21.359375 6.277344 -21.65625 7.429688 -21.675781 Z M 7.429688 -21.675781 "/></g></g></g><g fill="#000000" fill-opacity="1"><g transform="translate(215.112201, 230.030921)"><g><path d="M 17.03125 -18.578125 L 7.742188 -18.578125 C 6.894531 -18.578125 6.167969 -18.273438 5.558594 -17.664062 C 4.949219 -17.054688 4.644531 -16.328125 4.644531 -15.484375 L 4.644531 -9.289062 L 20.128906 -9.289062 L 20.128906 -15.484375 C 20.128906 -16.328125 19.824219 -17.054688 19.214844 -17.664062 C 18.605469 -18.273438 17.878906 -18.578125 17.03125 -18.578125 Z M 23.222656 -15.484375 L 23.222656 0 L 20.128906 0 L 20.128906 -6.191406 L 4.644531 -6.191406 L 4.644531 0 L 1.546875 0 L 1.546875 -15.484375 C 1.546875 -16.578125 1.820312 -17.59375 2.367188 -18.53125 C 2.914062 -19.472656 3.660156 -20.230469 4.597656 -20.808594 C 5.539062 -21.386719 6.585938 -21.675781 7.742188 -21.675781 L 17.03125 -21.675781 C 18.144531 -21.675781 19.164062 -21.398438 20.082031 -20.839844 C 21 -20.28125 21.746094 -19.539062 22.324219 -18.609375 C 22.902344 -17.679688 23.203125 -16.636719 23.222656 -15.484375 Z M 23.222656 -15.484375 "/></g></g></g><g fill="#000000" fill-opacity="1"><g transform="translate(242.607655, 230.030921)"><g><path d="M 20.128906 -12.386719 L 20.128906 -15.484375 C 20.128906 -16.328125 19.824219 -17.054688 19.214844 -17.664062 C 18.605469 -18.273438 17.878906 -18.578125 17.03125 -18.578125 L 4.644531 -18.578125 L 4.644531 -9.289062 L 17.03125 -9.289062 C 17.878906 -9.289062 18.605469 -9.59375 19.214844 -10.203125 C 19.824219 -10.8125 20.128906 -11.539062 20.128906 -12.386719 Z M 23.222656 0 L 21.023438 0 L 14.832031 -6.191406 L 4.644531 -6.191406 L 4.644531 0 L 1.546875 0 L 1.546875 -21.675781 L 17.03125 -21.675781 C 18.125 -21.675781 19.140625 -21.398438 20.082031 -20.839844 C 21.019531 -20.28125 21.777344 -19.539062 22.355469 -18.609375 C 22.933594 -17.679688 23.222656 -16.636719 23.222656 -15.484375 L 23.222656 -12.386719 C 23.222656 -11.066406 22.828125 -9.863281 22.03125 -8.777344 C 21.238281 -7.695312 20.199219 -6.9375 18.917969 -6.503906 L 23.222656 -2.199219 Z M 23.222656 0 "/></g></g></g><g fill="#ff3131" fill-opacity="1"><g transform="translate(105.095466, 251.83943)"><g><path d="M 9.90625 -1.546875 L 10.1875 -0.65625 C 9.582031 -0.394531 8.941406 -0.1875 8.265625 -0.03125 C 7.597656 0.113281 6.910156 0.1875 6.203125 0.1875 C 5.234375 0.1875 4.351562 0.015625 3.5625 -0.328125 C 2.769531 -0.671875 2.140625 -1.210938 1.671875 -1.953125 C 1.203125 -2.691406 0.96875 -3.65625 0.96875 -4.84375 C 0.96875 -6.03125 1.203125 -6.992188 1.671875 -7.734375 C 2.140625 -8.472656 2.769531 -9.015625 3.5625 -9.359375 C 4.351562 -9.703125 5.234375 -9.875 6.203125 -9.875 C 6.910156 -9.875 7.597656 -9.800781 8.265625 -9.65625 C 8.941406 -9.507812 9.582031 -9.296875 10.1875 -9.015625 L 9.90625 -8.109375 C 9.34375 -8.367188 8.75 -8.566406 8.125 -8.703125 C 7.5 -8.847656 6.859375 -8.921875 6.203125 -8.921875 C 5.429688 -8.921875 4.722656 -8.78125 4.078125 -8.5 C 3.441406 -8.226562 2.929688 -7.789062 2.546875 -7.1875 C 2.171875 -6.582031 1.984375 -5.800781 1.984375 -4.84375 C 1.984375 -3.875 2.171875 -3.085938 2.546875 -2.484375 C 2.929688 -1.878906 3.441406 -1.441406 4.078125 -1.171875 C 4.722656 -0.898438 5.429688 -0.765625 6.203125 -0.765625 C 6.859375 -0.765625 7.5 -0.832031 8.125 -0.96875 C 8.75 -1.101562 9.34375 -1.296875 9.90625 -1.546875 Z M 9.90625 -1.546875 "/></g></g></g><g fill="#ff3131" fill-opacity="1"><g transform="translate(117.338977, 251.83943)"><g><path d="M 11.59375 0 L 10.46875 0 C 10.25 -0.382812 10.035156 -0.769531 9.828125 -1.15625 C 9.628906 -1.550781 9.421875 -1.945312 9.203125 -2.34375 L 2.703125 -2.34375 L 1.46875 0 L 0.328125 0 L 5.484375 -9.671875 L 6.453125 -9.671875 Z M 8.703125 -3.3125 C 8.242188 -4.164062 7.785156 -5.023438 7.328125 -5.890625 C 6.878906 -6.765625 6.429688 -7.632812 5.984375 -8.5 L 3.203125 -3.3125 Z M 8.703125 -3.3125 "/></g></g></g><g fill="#ff3131" fill-opacity="1"><g transform="translate(130.695508, 251.83943)"><g><path d="M 10.5625 0 L 9.3125 0 L 6.71875 -3.390625 L 2.46875 -3.390625 L 2.46875 0 L 1.453125 0 L 1.453125 -9.671875 L 7.296875 -9.671875 C 7.921875 -9.671875 8.484375 -9.5625 8.984375 -9.34375 C 9.492188 -9.132812 9.894531 -8.796875 10.1875 -8.328125 C 10.488281 -7.867188 10.640625 -7.269531 10.640625 -6.53125 C 10.640625 -5.550781 10.382812 -4.804688 9.875 -4.296875 C 9.363281 -3.785156 8.726562 -3.488281 7.96875 -3.40625 Z M 7.296875 -8.71875 L 2.46875 -8.71875 L 2.46875 -4.34375 L 7.296875 -4.34375 C 7.734375 -4.34375 8.125 -4.414062 8.46875 -4.5625 C 8.820312 -4.71875 9.101562 -4.953125 9.3125 -5.265625 C 9.519531 -5.585938 9.625 -6.007812 9.625 -6.53125 C 9.625 -7.300781 9.394531 -7.859375 8.9375 -8.203125 C 8.476562 -8.546875 7.929688 -8.71875 7.296875 -8.71875 Z M 7.296875 -8.71875 "/></g></g></g><g fill="#ff3131" fill-opacity="1"><g transform="translate(143.842343, 251.83943)"><g/></g></g><g fill="#ff3131" fill-opacity="1"><g transform="translate(149.778742, 251.83943)"><g><path d="M 0.734375 -0.65625 L 1.015625 -1.546875 C 1.617188 -1.285156 2.269531 -1.082031 2.96875 -0.9375 C 3.664062 -0.789062 4.378906 -0.71875 5.109375 -0.71875 C 5.703125 -0.71875 6.265625 -0.78125 6.796875 -0.90625 C 7.328125 -1.03125 7.765625 -1.226562 8.109375 -1.5 C 8.453125 -1.769531 8.625 -2.117188 8.625 -2.546875 C 8.625 -2.921875 8.476562 -3.21875 8.1875 -3.4375 C 7.90625 -3.65625 7.535156 -3.828125 7.078125 -3.953125 C 6.617188 -4.078125 6.109375 -4.179688 5.546875 -4.265625 C 4.984375 -4.359375 4.421875 -4.453125 3.859375 -4.546875 C 3.304688 -4.648438 2.796875 -4.796875 2.328125 -4.984375 C 1.867188 -5.171875 1.5 -5.425781 1.21875 -5.75 C 0.9375 -6.070312 0.796875 -6.5 0.796875 -7.03125 C 0.796875 -7.53125 0.914062 -7.960938 1.15625 -8.328125 C 1.394531 -8.691406 1.722656 -8.984375 2.140625 -9.203125 C 2.566406 -9.429688 3.039062 -9.597656 3.5625 -9.703125 C 4.082031 -9.816406 4.617188 -9.875 5.171875 -9.875 C 5.898438 -9.875 6.609375 -9.800781 7.296875 -9.65625 C 7.992188 -9.507812 8.648438 -9.296875 9.265625 -9.015625 C 9.203125 -8.859375 9.144531 -8.707031 9.09375 -8.5625 C 9.039062 -8.414062 8.984375 -8.265625 8.921875 -8.109375 C 7.765625 -8.640625 6.503906 -8.90625 5.140625 -8.90625 C 4.578125 -8.90625 4.035156 -8.84375 3.515625 -8.71875 C 3.003906 -8.601562 2.59375 -8.410156 2.28125 -8.140625 C 1.96875 -7.867188 1.8125 -7.507812 1.8125 -7.0625 C 1.8125 -6.644531 1.957031 -6.320312 2.25 -6.09375 C 2.539062 -5.875 2.925781 -5.710938 3.40625 -5.609375 C 3.894531 -5.503906 4.429688 -5.40625 5.015625 -5.3125 C 5.890625 -5.175781 6.675781 -5.015625 7.375 -4.828125 C 8.070312 -4.648438 8.625 -4.390625 9.03125 -4.046875 C 9.4375 -3.710938 9.640625 -3.226562 9.640625 -2.59375 C 9.640625 -2.09375 9.503906 -1.664062 9.234375 -1.3125 C 8.972656 -0.957031 8.617188 -0.664062 8.171875 -0.4375 C 7.722656 -0.21875 7.226562 -0.0625 6.6875 0.03125 C 6.15625 0.132812 5.613281 0.1875 5.0625 0.1875 C 4.34375 0.1875 3.59375 0.113281 2.8125 -0.03125 C 2.039062 -0.1875 1.347656 -0.394531 0.734375 -0.65625 Z M 0.734375 -0.65625 "/></g></g></g><g fill="#ff3131" fill-opacity="1"><g transform="translate(161.71577, 251.83943)"><g><path d="M 11.171875 0 L 10.15625 0 L 10.15625 -4.359375 L 2.484375 -4.359375 L 2.484375 0 L 1.46875 0 L 1.46875 -9.671875 L 2.484375 -9.671875 L 2.484375 -5.328125 L 10.15625 -5.328125 L 10.15625 -9.671875 L 11.171875 -9.671875 Z M 11.171875 0 "/></g></g></g><g fill="#ff3131" fill-opacity="1"><g transform="translate(175.782053, 251.83943)"><g><path d="M 11.453125 -4.84375 C 11.453125 -3.65625 11.21875 -2.691406 10.75 -1.953125 C 10.28125 -1.210938 9.648438 -0.671875 8.859375 -0.328125 C 8.066406 0.015625 7.179688 0.1875 6.203125 0.1875 C 5.234375 0.1875 4.351562 0.015625 3.5625 -0.328125 C 2.769531 -0.671875 2.140625 -1.210938 1.671875 -1.953125 C 1.203125 -2.691406 0.96875 -3.65625 0.96875 -4.84375 C 0.96875 -6.03125 1.203125 -6.992188 1.671875 -7.734375 C 2.140625 -8.472656 2.769531 -9.015625 3.5625 -9.359375 C 4.351562 -9.703125 5.234375 -9.875 6.203125 -9.875 C 7.179688 -9.875 8.066406 -9.703125 8.859375 -9.359375 C 9.648438 -9.015625 10.28125 -8.472656 10.75 -7.734375 C 11.21875 -6.992188 11.453125 -6.03125 11.453125 -4.84375 Z M 10.4375 -4.84375 C 10.4375 -5.800781 10.242188 -6.582031 9.859375 -7.1875 C 9.472656 -7.789062 8.960938 -8.226562 8.328125 -8.5 C 7.691406 -8.78125 6.984375 -8.921875 6.203125 -8.921875 C 5.429688 -8.921875 4.722656 -8.78125 4.078125 -8.5 C 3.441406 -8.226562 2.929688 -7.789062 2.546875 -7.1875 C 2.171875 -6.582031 1.984375 -5.800781 1.984375 -4.84375 C 1.984375 -3.875 2.171875 -3.085938 2.546875 -2.484375 C 2.929688 -1.878906 3.441406 -1.441406 4.078125 -1.171875 C 4.722656 -0.898438 5.429688 -0.765625 6.203125 -0.765625 C 6.992188 -0.765625 7.703125 -0.898438 8.328125 -1.171875 C 8.960938 -1.441406 9.472656 -1.878906 9.859375 -2.484375 C 10.242188 -3.085938 10.4375 -3.875 10.4375 -4.84375 Z M 10.4375 -4.84375 "/></g></g></g><g fill="#ff3131" fill-opacity="1"><g transform="translate(189.622507, 251.83943)"><g><path d="M 12.125 0 L 11.15625 0 L 8.09375 -8.34375 L 5.046875 0 L 4.09375 0 L 0.5 -9.671875 L 1.59375 -9.671875 L 4.5625 -1.234375 L 7.625 -9.671875 L 8.578125 -9.671875 L 11.65625 -1.234375 L 14.59375 -9.671875 L 15.703125 -9.671875 Z M 12.125 0 "/></g></g></g><g fill="#ff3131" fill-opacity="1"><g transform="translate(207.253687, 251.83943)"><g><path d="M 10.5625 0 L 9.3125 0 L 6.71875 -3.390625 L 2.46875 -3.390625 L 2.46875 0 L 1.453125 0 L 1.453125 -9.671875 L 7.296875 -9.671875 C 7.921875 -9.671875 8.484375 -9.5625 8.984375 -9.34375 C 9.492188 -9.132812 9.894531 -8.796875 10.1875 -8.328125 C 10.488281 -7.867188 10.640625 -7.269531 10.640625 -6.53125 C 10.640625 -5.550781 10.382812 -4.804688 9.875 -4.296875 C 9.363281 -3.785156 8.726562 -3.488281 7.96875 -3.40625 Z M 7.296875 -8.71875 L 2.46875 -8.71875 L 2.46875 -4.34375 L 7.296875 -4.34375 C 7.734375 -4.34375 8.125 -4.414062 8.46875 -4.5625 C 8.820312 -4.71875 9.101562 -4.953125 9.3125 -5.265625 C 9.519531 -5.585938 9.625 -6.007812 9.625 -6.53125 C 9.625 -7.300781 9.394531 -7.859375 8.9375 -8.203125 C 8.476562 -8.546875 7.929688 -8.71875 7.296875 -8.71875 Z M 7.296875 -8.71875 "/></g></g></g><g fill="#ff3131" fill-opacity="1"><g transform="translate(220.400525, 251.83943)"><g><path d="M 11.453125 -4.84375 C 11.453125 -3.65625 11.21875 -2.691406 10.75 -1.953125 C 10.28125 -1.210938 9.648438 -0.671875 8.859375 -0.328125 C 8.066406 0.015625 7.179688 0.1875 6.203125 0.1875 C 5.234375 0.1875 4.351562 0.015625 3.5625 -0.328125 C 2.769531 -0.671875 2.140625 -1.210938 1.671875 -1.953125 C 1.203125 -2.691406 0.96875 -3.65625 0.96875 -4.84375 C 0.96875 -6.03125 1.203125 -6.992188 1.671875 -7.734375 C 2.140625 -8.472656 2.769531 -9.015625 3.5625 -9.359375 C 4.351562 -9.703125 5.234375 -9.875 6.203125 -9.875 C 7.179688 -9.875 8.066406 -9.703125 8.859375 -9.359375 C 9.648438 -9.015625 10.28125 -8.472656 10.75 -7.734375 C 11.21875 -6.992188 11.453125 -6.03125 11.453125 -4.84375 Z M 10.4375 -4.84375 C 10.4375 -5.800781 10.242188 -6.582031 9.859375 -7.1875 C 9.472656 -7.789062 8.960938 -8.226562 8.328125 -8.5 C 7.691406 -8.78125 6.984375 -8.921875 6.203125 -8.921875 C 5.429688 -8.921875 4.722656 -8.78125 4.078125 -8.5 C 3.441406 -8.226562 2.929688 -7.789062 2.546875 -7.1875 C 2.171875 -6.582031 1.984375 -5.800781 1.984375 -4.84375 C 1.984375 -3.875 2.171875 -3.085938 2.546875 -2.484375 C 2.929688 -1.878906 3.441406 -1.441406 4.078125 -1.171875 C 4.722656 -0.898438 5.429688 -0.765625 6.203125 -0.765625 C 6.992188 -0.765625 7.703125 -0.898438 8.328125 -1.171875 C 8.960938 -1.441406 9.472656 -1.878906 9.859375 -2.484375 C 10.242188 -3.085938 10.4375 -3.875 10.4375 -4.84375 Z M 10.4375 -4.84375 "/></g></g></g><g fill="#ff3131" fill-opacity="1"><g transform="translate(234.240984, 251.83943)"><g><path d="M 11.453125 -4.84375 C 11.453125 -3.65625 11.21875 -2.691406 10.75 -1.953125 C 10.28125 -1.210938 9.648438 -0.671875 8.859375 -0.328125 C 8.066406 0.015625 7.179688 0.1875 6.203125 0.1875 C 5.234375 0.1875 4.351562 0.015625 3.5625 -0.328125 C 2.769531 -0.671875 2.140625 -1.210938 1.671875 -1.953125 C 1.203125 -2.691406 0.96875 -3.65625 0.96875 -4.84375 C 0.96875 -6.03125 1.203125 -6.992188 1.671875 -7.734375 C 2.140625 -8.472656 2.769531 -9.015625 3.5625 -9.359375 C 4.351562 -9.703125 5.234375 -9.875 6.203125 -9.875 C 7.179688 -9.875 8.066406 -9.703125 8.859375 -9.359375 C 9.648438 -9.015625 10.28125 -8.472656 10.75 -7.734375 C 11.21875 -6.992188 11.453125 -6.03125 11.453125 -4.84375 Z M 10.4375 -4.84375 C 10.4375 -5.800781 10.242188 -6.582031 9.859375 -7.1875 C 9.472656 -7.789062 8.960938 -8.226562 8.328125 -8.5 C 7.691406 -8.78125 6.984375 -8.921875 6.203125 -8.921875 C 5.429688 -8.921875 4.722656 -8.78125 4.078125 -8.5 C 3.441406 -8.226562 2.929688 -7.789062 2.546875 -7.1875 C 2.171875 -6.582031 1.984375 -5.800781 1.984375 -4.84375 C 1.984375 -3.875 2.171875 -3.085938 2.546875 -2.484375 C 2.929688 -1.878906 3.441406 -1.441406 4.078125 -1.171875 C 4.722656 -0.898438 5.429688 -0.765625 6.203125 -0.765625 C 6.992188 -0.765625 7.703125 -0.898438 8.328125 -1.171875 C 8.960938 -1.441406 9.472656 -1.878906 9.859375 -2.484375 C 10.242188 -3.085938 10.4375 -3.875 10.4375 -4.84375 Z M 10.4375 -4.84375 "/></g></g></g><g fill="#ff3131" fill-opacity="1"><g transform="translate(248.081443, 251.83943)"><g><path d="M 14.40625 0 L 13.390625 0 L 13.390625 -7.984375 L 8.46875 0 L 7.390625 0 L 2.484375 -7.984375 L 2.484375 0 L 1.46875 0 L 1.46875 -9.671875 L 2.546875 -9.671875 L 7.9375 -0.875 L 13.328125 -9.671875 L 14.40625 -9.671875 Z M 14.40625 0 "/></g></g></g><g fill="#ff3131" fill-opacity="1"><g transform="translate(265.377551, 251.83943)"><g/></g></g></svg>