<svg xmlns="http://www.w3.org/2000/svg" xmlns:xlink="http://www.w3.org/1999/xlink" width="500" zoomAndPan="magnify" viewBox="0 0 375 374.999991" height="500" preserveAspectRatio="xMidYMid meet" version="1.0"><defs><g/><clipPath id="b4489002a4"><path d="M 68 125 L 69 125 L 69 126 L 68 126 Z M 68 125 " clip-rule="nonzero"/></clipPath><clipPath id="146725b5b8"><path d="M 68.140625 125.910156 L 68.363281 125.855469 L 68.140625 125.855469 Z M 68.140625 125.910156 " clip-rule="evenodd"/></clipPath><linearGradient x1="15.199999" gradientTransform="matrix(0.553096, 0, 0, 0.553096, 59.734805, 99.196498)" y1="48.293999" x2="15.6" gradientUnits="userSpaceOnUse" y2="48.293999" id="57c40539f5"><stop stop-opacity="1" stop-color="rgb(99.94812%, 99.94812%, 99.952698%)" offset="0"/><stop stop-opacity="1" stop-color="rgb(99.342346%, 99.342346%, 99.409485%)" offset="0.00390625"/><stop stop-opacity="1" stop-color="rgb(98.738098%, 98.738098%, 98.867798%)" offset="0.0078125"/><stop stop-opacity="1" stop-color="rgb(98.132324%, 98.132324%, 98.324585%)" offset="0.0117188"/><stop stop-opacity="1" stop-color="rgb(97.528076%, 97.528076%, 97.781372%)" offset="0.015625"/><stop stop-opacity="1" stop-color="rgb(96.922302%, 96.922302%, 97.238159%)" offset="0.0195312"/><stop stop-opacity="1" stop-color="rgb(96.318054%, 96.318054%, 96.696472%)" offset="0.0234375"/><stop stop-opacity="1" stop-color="rgb(95.463562%, 95.492554%, 95.881653%)" offset="0.0273437"/><stop stop-opacity="1" stop-color="rgb(94.60907%, 94.667053%, 95.066833%)" offset="0.03125"/><stop stop-opacity="1" stop-color="rgb(93.699646%, 93.792725%, 94.192505%)" offset="0.0351562"/><stop stop-opacity="1" stop-color="rgb(92.790222%, 92.919922%, 93.319702%)" offset="0.0390625"/><stop stop-opacity="1" stop-color="rgb(91.879272%, 92.045593%, 92.445374%)" offset="0.0429687"/><stop stop-opacity="1" stop-color="rgb(90.969849%, 91.171265%, 91.571045%)" offset="0.046875"/><stop stop-opacity="1" stop-color="rgb(90.060425%, 90.296936%, 90.696716%)" offset="0.0507812"/><stop stop-opacity="1" stop-color="rgb(89.151001%, 89.424133%, 89.823914%)" offset="0.0546875"/><stop stop-opacity="1" stop-color="rgb(88.241577%, 88.549805%, 88.949585%)" offset="0.0585937"/><stop stop-opacity="1" stop-color="rgb(87.332153%, 87.675476%, 88.075256%)" offset="0.0625"/><stop stop-opacity="1" stop-color="rgb(86.364746%, 86.737061%, 87.142944%)" offset="0.0664062"/><stop stop-opacity="1" stop-color="rgb(85.398865%, 85.798645%, 86.210632%)" offset="0.0703125"/><stop stop-opacity="1" stop-color="rgb(84.220886%, 84.620667%, 85.061646%)" offset="0.0742188"/><stop stop-opacity="1" stop-color="rgb(83.044434%, 83.444214%, 83.912659%)" offset="0.078125"/><stop stop-opacity="1" stop-color="rgb(81.866455%, 82.266235%, 82.763672%)" offset="0.0820312"/><stop stop-opacity="1" stop-color="rgb(80.690002%, 81.089783%, 81.616211%)" offset="0.0859375"/><stop stop-opacity="1" stop-color="rgb(79.512024%, 79.911804%, 80.467224%)" offset="0.0898438"/><stop stop-opacity="1" stop-color="rgb(78.335571%, 78.735352%, 79.318237%)" offset="0.09375"/><stop stop-opacity="1" stop-color="rgb(77.157593%, 77.557373%, 78.16925%)" offset="0.0976562"/><stop stop-opacity="1" stop-color="rgb(75.98114%, 76.38092%, 77.02179%)" offset="0.101562"/><stop stop-opacity="1" stop-color="rgb(74.803162%, 75.202942%, 75.872803%)" offset="0.105469"/><stop stop-opacity="1" stop-color="rgb(73.626709%, 74.026489%, 74.723816%)" offset="0.109375"/><stop stop-opacity="1" stop-color="rgb(72.44873%, 72.848511%, 73.574829%)" offset="0.113281"/><stop stop-opacity="1" stop-color="rgb(71.272278%, 71.672058%, 72.425842%)" offset="0.117188"/><stop stop-opacity="1" stop-color="rgb(70.059204%, 70.469666%, 71.258545%)" offset="0.121094"/><stop stop-opacity="1" stop-color="rgb(68.847656%, 69.268799%, 70.091248%)" offset="0.125"/><stop stop-opacity="1" stop-color="rgb(67.500305%, 67.973328%, 68.849182%)" offset="0.128906"/><stop stop-opacity="1" stop-color="rgb(66.152954%, 66.679382%, 67.607117%)" offset="0.132813"/><stop stop-opacity="1" stop-color="rgb(64.804077%, 65.383911%, 66.365051%)" offset="0.136719"/><stop stop-opacity="1" stop-color="rgb(63.456726%, 64.089966%, 65.122986%)" offset="0.140625"/><stop stop-opacity="1" stop-color="rgb(62.109375%, 62.794495%, 63.88092%)" offset="0.144531"/><stop stop-opacity="1" stop-color="rgb(60.762024%, 61.500549%, 62.638855%)" offset="0.148438"/><stop stop-opacity="1" stop-color="rgb(60.05249%, 60.821533%, 61.965942%)" offset="0.152344"/><stop stop-opacity="1" stop-color="rgb(59.342957%, 60.142517%, 61.294556%)" offset="0.15625"/><stop stop-opacity="1" stop-color="rgb(59.513855%, 60.313416%, 61.408997%)" offset="0.164063"/><stop stop-opacity="1" stop-color="rgb(59.857178%, 60.656738%, 61.637878%)" offset="0.171875"/><stop stop-opacity="1" stop-color="rgb(60.198975%, 60.998535%, 61.865234%)" offset="0.179688"/><stop stop-opacity="1" stop-color="rgb(61.05957%, 61.860657%, 62.75177%)" offset="0.183594"/><stop stop-opacity="1" stop-color="rgb(61.750793%, 62.550354%, 63.525391%)" offset="0.1875"/><stop stop-opacity="1" stop-color="rgb(62.487793%, 63.287354%, 64.356995%)" offset="0.191406"/><stop stop-opacity="1" stop-color="rgb(63.224792%, 64.024353%, 65.190125%)" offset="0.195313"/><stop stop-opacity="1" stop-color="rgb(64.692688%, 65.492249%, 66.578674%)" offset="0.199219"/><stop stop-opacity="1" stop-color="rgb(66.160583%, 66.96167%, 67.967224%)" offset="0.203125"/><stop stop-opacity="1" stop-color="rgb(67.951965%, 68.746948%, 69.650269%)" offset="0.207031"/><stop stop-opacity="1" stop-color="rgb(69.743347%, 70.533752%, 71.333313%)" offset="0.210938"/><stop stop-opacity="1" stop-color="rgb(72.561646%, 73.31543%, 74.116516%)" offset="0.214844"/><stop stop-opacity="1" stop-color="rgb(75.379944%, 76.098633%, 76.899719%)" offset="0.21875"/><stop stop-opacity="1" stop-color="rgb(78.353882%, 79.063416%, 79.690552%)" offset="0.222656"/><stop stop-opacity="1" stop-color="rgb(81.329346%, 82.029724%, 82.481384%)" offset="0.226563"/><stop stop-opacity="1" stop-color="rgb(81.40564%, 82.112122%, 82.537842%)" offset="0.230469"/><stop stop-opacity="1" stop-color="rgb(81.481934%, 82.194519%, 82.594299%)" offset="0.234375"/><stop stop-opacity="1" stop-color="rgb(81.190491%, 81.910706%, 82.310486%)" offset="0.238281"/><stop stop-opacity="1" stop-color="rgb(80.899048%, 81.626892%, 82.026672%)" offset="0.242188"/><stop stop-opacity="1" stop-color="rgb(80.607605%, 81.341553%, 81.742859%)" offset="0.246094"/><stop stop-opacity="1" stop-color="rgb(80.316162%, 81.057739%, 81.459045%)" offset="0.25"/><stop stop-opacity="1" stop-color="rgb(80.024719%, 80.773926%, 81.173706%)" offset="0.253906"/><stop stop-opacity="1" stop-color="rgb(79.733276%, 80.490112%, 80.889893%)" offset="0.257812"/><stop stop-opacity="1" stop-color="rgb(79.441833%, 80.206299%, 80.606079%)" offset="0.261719"/><stop stop-opacity="1" stop-color="rgb(79.151917%, 79.922485%, 80.322266%)" offset="0.265625"/><stop stop-opacity="1" stop-color="rgb(78.860474%, 79.638672%, 80.038452%)" offset="0.269531"/><stop stop-opacity="1" stop-color="rgb(78.569031%, 79.354858%, 79.754639%)" offset="0.273437"/><stop stop-opacity="1" stop-color="rgb(78.274536%, 79.066467%, 79.466248%)" offset="0.277344"/><stop stop-opacity="1" stop-color="rgb(77.980042%, 78.779602%, 79.179382%)" offset="0.28125"/><stop stop-opacity="1" stop-color="rgb(77.536011%, 78.335571%, 78.735352%)" offset="0.285156"/><stop stop-opacity="1" stop-color="rgb(77.09198%, 77.893066%, 78.292847%)" offset="0.289062"/><stop stop-opacity="1" stop-color="rgb(76.647949%, 77.449036%, 77.848816%)" offset="0.292969"/><stop stop-opacity="1" stop-color="rgb(76.205444%, 77.005005%, 77.404785%)" offset="0.296875"/><stop stop-opacity="1" stop-color="rgb(75.761414%, 76.560974%, 76.960754%)" offset="0.300781"/><stop stop-opacity="1" stop-color="rgb(75.317383%, 76.116943%, 76.51825%)" offset="0.304687"/><stop stop-opacity="1" stop-color="rgb(74.873352%, 75.672913%, 76.074219%)" offset="0.308594"/><stop stop-opacity="1" stop-color="rgb(74.429321%, 75.230408%, 75.630188%)" offset="0.3125"/><stop stop-opacity="1" stop-color="rgb(73.985291%, 74.786377%, 75.186157%)" offset="0.316406"/><stop stop-opacity="1" stop-color="rgb(73.542786%, 74.342346%, 74.742126%)" offset="0.320312"/><stop stop-opacity="1" stop-color="rgb(73.098755%, 73.898315%, 74.298096%)" offset="0.324219"/><stop stop-opacity="1" stop-color="rgb(72.654724%, 73.455811%, 73.855591%)" offset="0.328125"/><stop stop-opacity="1" stop-color="rgb(72.210693%, 73.01178%, 73.41156%)" offset="0.332031"/><stop stop-opacity="1" stop-color="rgb(71.768188%, 72.567749%, 72.967529%)" offset="0.335937"/><stop stop-opacity="1" stop-color="rgb(71.324158%, 72.123718%, 72.523499%)" offset="0.339844"/><stop stop-opacity="1" stop-color="rgb(70.880127%, 71.679688%, 72.079468%)" offset="0.34375"/><stop stop-opacity="1" stop-color="rgb(70.436096%, 71.235657%, 71.635437%)" offset="0.347656"/><stop stop-opacity="1" stop-color="rgb(69.992065%, 70.793152%, 71.192932%)" offset="0.351562"/><stop stop-opacity="1" stop-color="rgb(69.548035%, 70.349121%, 70.748901%)" offset="0.355469"/><stop stop-opacity="1" stop-color="rgb(69.10553%, 69.90509%, 70.304871%)" offset="0.359375"/><stop stop-opacity="1" stop-color="rgb(68.661499%, 69.46106%, 69.86084%)" offset="0.363281"/><stop stop-opacity="1" stop-color="rgb(68.217468%, 69.017029%, 69.418335%)" offset="0.367187"/><stop stop-opacity="1" stop-color="rgb(67.71698%, 68.516541%, 68.914795%)" offset="0.371094"/><stop stop-opacity="1" stop-color="rgb(67.216492%, 68.016052%, 68.412781%)" offset="0.375"/><stop stop-opacity="1" stop-color="rgb(66.664124%, 67.463684%, 67.857361%)" offset="0.378906"/><stop stop-opacity="1" stop-color="rgb(66.111755%, 66.911316%, 67.301941%)" offset="0.382812"/><stop stop-opacity="1" stop-color="rgb(65.559387%, 66.358948%, 66.746521%)" offset="0.386719"/><stop stop-opacity="1" stop-color="rgb(65.008545%, 65.808105%, 66.191101%)" offset="0.390625"/><stop stop-opacity="1" stop-color="rgb(64.456177%, 65.255737%, 65.635681%)" offset="0.394531"/><stop stop-opacity="1" stop-color="rgb(63.903809%, 64.704895%, 65.080261%)" offset="0.398437"/><stop stop-opacity="1" stop-color="rgb(63.35144%, 64.152527%, 64.524841%)" offset="0.402344"/><stop stop-opacity="1" stop-color="rgb(62.800598%, 63.600159%, 63.969421%)" offset="0.40625"/><stop stop-opacity="1" stop-color="rgb(62.24823%, 63.047791%, 63.414001%)" offset="0.410156"/><stop stop-opacity="1" stop-color="rgb(61.695862%, 62.496948%, 62.858582%)" offset="0.414062"/><stop stop-opacity="1" stop-color="rgb(61.143494%, 61.94458%, 62.303162%)" offset="0.417969"/><stop stop-opacity="1" stop-color="rgb(60.592651%, 61.392212%, 61.749268%)" offset="0.421875"/><stop stop-opacity="1" stop-color="rgb(60.040283%, 60.839844%, 61.193848%)" offset="0.425781"/><stop stop-opacity="1" stop-color="rgb(59.489441%, 60.289001%, 60.638428%)" offset="0.429688"/><stop stop-opacity="1" stop-color="rgb(58.937073%, 59.736633%, 60.083008%)" offset="0.433594"/><stop stop-opacity="1" stop-color="rgb(58.384705%, 59.184265%, 59.527588%)" offset="0.4375"/><stop stop-opacity="1" stop-color="rgb(57.832336%, 58.631897%, 58.972168%)" offset="0.441406"/><stop stop-opacity="1" stop-color="rgb(57.281494%, 58.081055%, 58.416748%)" offset="0.445313"/><stop stop-opacity="1" stop-color="rgb(56.729126%, 57.528687%, 57.861328%)" offset="0.449219"/><stop stop-opacity="1" stop-color="rgb(56.176758%, 56.977844%, 57.305908%)" offset="0.453125"/><stop stop-opacity="1" stop-color="rgb(55.62439%, 56.425476%, 56.750488%)" offset="0.457031"/><stop stop-opacity="1" stop-color="rgb(55.073547%, 55.873108%, 56.195068%)" offset="0.460938"/><stop stop-opacity="1" stop-color="rgb(54.521179%, 55.32074%, 55.639648%)" offset="0.464844"/><stop stop-opacity="1" stop-color="rgb(53.968811%, 54.769897%, 55.085754%)" offset="0.46875"/><stop stop-opacity="1" stop-color="rgb(53.416443%, 54.217529%, 54.530334%)" offset="0.472656"/><stop stop-opacity="1" stop-color="rgb(52.865601%, 53.665161%, 53.974915%)" offset="0.476563"/><stop stop-opacity="1" stop-color="rgb(52.313232%, 53.112793%, 53.419495%)" offset="0.480469"/><stop stop-opacity="1" stop-color="rgb(51.76239%, 52.561951%, 52.864075%)" offset="0.484375"/><stop stop-opacity="1" stop-color="rgb(51.148987%, 51.939392%, 52.253723%)" offset="0.488281"/><stop stop-opacity="1" stop-color="rgb(50.537109%, 51.316833%, 51.643372%)" offset="0.492188"/><stop stop-opacity="1" stop-color="rgb(49.89624%, 50.660706%, 51.005554%)" offset="0.496094"/><stop stop-opacity="1" stop-color="rgb(49.255371%, 50.004578%, 50.367737%)" offset="0.5"/><stop stop-opacity="1" stop-color="rgb(48.612976%, 49.346924%, 49.729919%)" offset="0.503906"/><stop stop-opacity="1" stop-color="rgb(47.972107%, 48.690796%, 49.092102%)" offset="0.507813"/><stop stop-opacity="1" stop-color="rgb(47.329712%, 48.034668%, 48.454285%)" offset="0.511719"/><stop stop-opacity="1" stop-color="rgb(46.688843%, 47.37854%, 47.817993%)" offset="0.515625"/><stop stop-opacity="1" stop-color="rgb(46.047974%, 46.720886%, 47.180176%)" offset="0.519531"/><stop stop-opacity="1" stop-color="rgb(45.407104%, 46.064758%, 46.542358%)" offset="0.523438"/><stop stop-opacity="1" stop-color="rgb(44.764709%, 45.40863%, 45.904541%)" offset="0.527344"/><stop stop-opacity="1" stop-color="rgb(44.12384%, 44.752502%, 45.266724%)" offset="0.53125"/><stop stop-opacity="1" stop-color="rgb(43.481445%, 44.094849%, 44.628906%)" offset="0.535156"/><stop stop-opacity="1" stop-color="rgb(42.840576%, 43.438721%, 43.992615%)" offset="0.539063"/><stop stop-opacity="1" stop-color="rgb(42.199707%, 42.781067%, 43.354797%)" offset="0.542969"/><stop stop-opacity="1" stop-color="rgb(41.558838%, 42.124939%, 42.71698%)" offset="0.546875"/><stop stop-opacity="1" stop-color="rgb(40.916443%, 41.468811%, 42.079163%)" offset="0.550781"/><stop stop-opacity="1" stop-color="rgb(40.275574%, 40.812683%, 41.441345%)" offset="0.554688"/><stop stop-opacity="1" stop-color="rgb(39.634705%, 40.155029%, 40.803528%)" offset="0.558594"/><stop stop-opacity="1" stop-color="rgb(38.993835%, 39.498901%, 40.167236%)" offset="0.5625"/><stop stop-opacity="1" stop-color="rgb(38.35144%, 38.842773%, 39.529419%)" offset="0.566406"/><stop stop-opacity="1" stop-color="rgb(37.710571%, 38.186646%, 38.891602%)" offset="0.570313"/><stop stop-opacity="1" stop-color="rgb(37.068176%, 37.528992%, 38.253784%)" offset="0.574219"/><stop stop-opacity="1" stop-color="rgb(36.427307%, 36.872864%, 37.615967%)" offset="0.578125"/><stop stop-opacity="1" stop-color="rgb(35.786438%, 36.216736%, 36.978149%)" offset="0.582031"/><stop stop-opacity="1" stop-color="rgb(35.145569%, 35.560608%, 36.341858%)" offset="0.585938"/><stop stop-opacity="1" stop-color="rgb(35.015869%, 35.423279%, 36.236572%)" offset="0.589844"/><stop stop-opacity="1" stop-color="rgb(34.886169%, 35.287476%, 36.131287%)" offset="0.59375"/><stop stop-opacity="1" stop-color="rgb(35.276794%, 35.676575%, 36.566162%)" offset="0.597656"/><stop stop-opacity="1" stop-color="rgb(35.667419%, 36.0672%, 37.001038%)" offset="0.601563"/><stop stop-opacity="1" stop-color="rgb(36.056519%, 36.456299%, 37.435913%)" offset="0.605469"/><stop stop-opacity="1" stop-color="rgb(36.447144%, 36.846924%, 37.870789%)" offset="0.609375"/><stop stop-opacity="1" stop-color="rgb(36.837769%, 37.237549%, 38.304138%)" offset="0.613281"/><stop stop-opacity="1" stop-color="rgb(37.228394%, 37.628174%, 38.739014%)" offset="0.617188"/><stop stop-opacity="1" stop-color="rgb(37.620544%, 38.021851%, 39.176941%)" offset="0.621094"/><stop stop-opacity="1" stop-color="rgb(38.014221%, 38.415527%, 39.614868%)" offset="0.625"/><stop stop-opacity="1" stop-color="rgb(38.673401%, 39.102173%, 40.301514%)" offset="0.628906"/><stop stop-opacity="1" stop-color="rgb(39.334106%, 39.788818%, 40.988159%)" offset="0.632813"/><stop stop-opacity="1" stop-color="rgb(39.993286%, 40.473938%, 41.674805%)" offset="0.636719"/><stop stop-opacity="1" stop-color="rgb(40.652466%, 41.160583%, 42.36145%)" offset="0.640625"/><stop stop-opacity="1" stop-color="rgb(41.311646%, 41.847229%, 43.048096%)" offset="0.644531"/><stop stop-opacity="1" stop-color="rgb(41.972351%, 42.533875%, 43.734741%)" offset="0.648438"/><stop stop-opacity="1" stop-color="rgb(42.631531%, 43.22052%, 44.421387%)" offset="0.652344"/><stop stop-opacity="1" stop-color="rgb(43.29071%, 43.907166%, 45.108032%)" offset="0.65625"/><stop stop-opacity="1" stop-color="rgb(43.94989%, 44.593811%, 45.793152%)" offset="0.660156"/><stop stop-opacity="1" stop-color="rgb(44.610596%, 45.280457%, 46.479797%)" offset="0.664063"/><stop stop-opacity="1" stop-color="rgb(45.269775%, 45.967102%, 47.166443%)" offset="0.667969"/><stop stop-opacity="1" stop-color="rgb(45.930481%, 46.653748%, 47.853088%)" offset="0.671875"/><stop stop-opacity="1" stop-color="rgb(46.589661%, 47.340393%, 48.539734%)" offset="0.675781"/><stop stop-opacity="1" stop-color="rgb(47.24884%, 48.027039%, 49.226379%)" offset="0.679688"/><stop stop-opacity="1" stop-color="rgb(47.97821%, 48.76709%, 49.966431%)" offset="0.683594"/><stop stop-opacity="1" stop-color="rgb(48.707581%, 49.507141%, 50.706482%)" offset="0.6875"/><stop stop-opacity="1" stop-color="rgb(49.055481%, 49.781799%, 50.98114%)" offset="0.691406"/><stop stop-opacity="1" stop-color="rgb(49.403381%, 50.056458%, 51.257324%)" offset="0.695313"/><stop stop-opacity="1" stop-color="rgb(42.848206%, 43.003845%, 44.203186%)" offset="0.699219"/><stop stop-opacity="1" stop-color="rgb(36.294556%, 35.951233%, 37.150574%)" offset="0.703125"/><stop stop-opacity="1" stop-color="rgb(31.388855%, 30.830383%, 31.654358%)" offset="0.707031"/><stop stop-opacity="1" stop-color="rgb(26.48468%, 25.709534%, 26.159668%)" offset="0.710938"/><stop stop-opacity="1" stop-color="rgb(23.387146%, 22.264099%, 22.85614%)" offset="0.714844"/><stop stop-opacity="1" stop-color="rgb(20.289612%, 18.818665%, 19.554138%)" offset="0.71875"/><stop stop-opacity="1" stop-color="rgb(17.951965%, 16.583252%, 17.184448%)" offset="0.722656"/><stop stop-opacity="1" stop-color="rgb(15.615845%, 14.349365%, 14.816284%)" offset="0.726563"/><stop stop-opacity="1" stop-color="rgb(14.859009%, 13.526917%, 13.926697%)" offset="0.730469"/><stop stop-opacity="1" stop-color="rgb(14.103699%, 12.704468%, 13.038635%)" offset="0.734375"/><stop stop-opacity="1" stop-color="rgb(17.480469%, 16.098022%, 16.346741%)" offset="0.738281"/><stop stop-opacity="1" stop-color="rgb(20.857239%, 19.493103%, 19.656372%)" offset="0.742188"/><stop stop-opacity="1" stop-color="rgb(26.843262%, 25.6073%, 25.689697%)" offset="0.746094"/><stop stop-opacity="1" stop-color="rgb(32.830811%, 31.723022%, 31.723022%)" offset="0.75"/><stop stop-opacity="1" stop-color="rgb(38.299561%, 37.341309%, 37.341309%)" offset="0.753906"/><stop stop-opacity="1" stop-color="rgb(43.769836%, 42.961121%, 42.961121%)" offset="0.757812"/><stop stop-opacity="1" stop-color="rgb(48.574829%, 47.802734%, 47.872925%)" offset="0.761719"/><stop stop-opacity="1" stop-color="rgb(53.381348%, 52.645874%, 52.784729%)" offset="0.765625"/><stop stop-opacity="1" stop-color="rgb(57.798767%, 57.035828%, 57.284546%)" offset="0.769531"/><stop stop-opacity="1" stop-color="rgb(62.217712%, 61.427307%, 61.785889%)" offset="0.773438"/><stop stop-opacity="1" stop-color="rgb(66.186523%, 65.487671%, 65.771484%)" offset="0.777344"/><stop stop-opacity="1" stop-color="rgb(70.15686%, 69.549561%, 69.75708%)" offset="0.78125"/><stop stop-opacity="1" stop-color="rgb(73.884583%, 73.394775%, 73.498535%)" offset="0.785156"/><stop stop-opacity="1" stop-color="rgb(77.613831%, 77.241516%, 77.241516%)" offset="0.789062"/><stop stop-opacity="1" stop-color="rgb(80.412292%, 80.149841%, 80.149841%)" offset="0.792969"/><stop stop-opacity="1" stop-color="rgb(83.21228%, 83.059692%, 83.059692%)" offset="0.796875"/><stop stop-opacity="1" stop-color="rgb(85.700989%, 85.624695%, 85.624695%)" offset="0.800781"/><stop stop-opacity="1" stop-color="rgb(88.189697%, 88.189697%, 88.189697%)" offset="0.804687"/><stop stop-opacity="1" stop-color="rgb(89.97345%, 89.97345%, 89.97345%)" offset="0.808594"/><stop stop-opacity="1" stop-color="rgb(91.757202%, 91.757202%, 91.757202%)" offset="0.8125"/><stop stop-opacity="1" stop-color="rgb(93.333435%, 93.333435%, 93.333435%)" offset="0.816406"/><stop stop-opacity="1" stop-color="rgb(94.909668%, 94.909668%, 94.909668%)" offset="0.820312"/><stop stop-opacity="1" stop-color="rgb(96.089172%, 96.089172%, 96.089172%)" offset="0.824219"/><stop stop-opacity="1" stop-color="rgb(97.270203%, 97.270203%, 97.270203%)" offset="0.828125"/><stop stop-opacity="1" stop-color="rgb(98.033142%, 98.033142%, 98.033142%)" offset="0.832031"/><stop stop-opacity="1" stop-color="rgb(98.796082%, 98.796082%, 98.796082%)" offset="0.835937"/><stop stop-opacity="1" stop-color="rgb(99.176025%, 99.176025%, 99.176025%)" offset="0.839844"/><stop stop-opacity="1" stop-color="rgb(99.557495%, 99.557495%, 99.557495%)" offset="0.84375"/><stop stop-opacity="1" stop-color="rgb(98.960876%, 99.000549%, 99.031067%)" offset="0.847656"/><stop stop-opacity="1" stop-color="rgb(98.365784%, 98.445129%, 98.504639%)" offset="0.851562"/><stop stop-opacity="1" stop-color="rgb(96.41571%, 96.589661%, 96.720886%)" offset="0.855469"/><stop stop-opacity="1" stop-color="rgb(94.465637%, 94.734192%, 94.937134%)" offset="0.859375"/><stop stop-opacity="1" stop-color="rgb(92.652893%, 93.005371%, 93.257141%)" offset="0.863281"/><stop stop-opacity="1" stop-color="rgb(90.840149%, 91.27655%, 91.577148%)" offset="0.867187"/><stop stop-opacity="1" stop-color="rgb(89.323425%, 89.819336%, 90.119934%)" offset="0.871094"/><stop stop-opacity="1" stop-color="rgb(87.806702%, 88.363647%, 88.664246%)" offset="0.875"/><stop stop-opacity="1" stop-color="rgb(86.289978%, 86.906433%, 87.207031%)" offset="0.878906"/><stop stop-opacity="1" stop-color="rgb(84.77478%, 85.450745%, 85.749817%)" offset="0.882812"/><stop stop-opacity="1" stop-color="rgb(83.258057%, 83.99353%, 84.292603%)" offset="0.886719"/><stop stop-opacity="1" stop-color="rgb(81.742859%, 82.536316%, 82.836914%)" offset="0.890625"/><stop stop-opacity="1" stop-color="rgb(80.705261%, 81.448364%, 81.871033%)" offset="0.894531"/><stop stop-opacity="1" stop-color="rgb(79.669189%, 80.360413%, 80.905151%)" offset="0.898437"/><stop stop-opacity="1" stop-color="rgb(78.656006%, 79.289246%, 79.962158%)" offset="0.902344"/><stop stop-opacity="1" stop-color="rgb(77.642822%, 78.219604%, 79.020691%)" offset="0.90625"/><stop stop-opacity="1" stop-color="rgb(76.629639%, 77.148438%, 78.079224%)" offset="0.910156"/><stop stop-opacity="1" stop-color="rgb(75.616455%, 76.078796%, 77.137756%)" offset="0.914062"/><stop stop-opacity="1" stop-color="rgb(74.79248%, 75.248718%, 76.353455%)" offset="0.917969"/><stop stop-opacity="1" stop-color="rgb(73.970032%, 74.41864%, 75.569153%)" offset="0.921875"/><stop stop-opacity="1" stop-color="rgb(73.379517%, 73.883057%, 74.978638%)" offset="0.925781"/><stop stop-opacity="1" stop-color="rgb(72.790527%, 73.348999%, 74.389648%)" offset="0.929687"/><stop stop-opacity="1" stop-color="rgb(72.200012%, 72.813416%, 73.799133%)" offset="0.933594"/><stop stop-opacity="1" stop-color="rgb(71.609497%, 72.279358%, 73.210144%)" offset="0.9375"/><stop stop-opacity="1" stop-color="rgb(71.018982%, 71.743774%, 72.619629%)" offset="0.941406"/><stop stop-opacity="1" stop-color="rgb(70.429993%, 71.208191%, 72.029114%)" offset="0.945312"/><stop stop-opacity="1" stop-color="rgb(70.150757%, 70.939636%, 71.791077%)" offset="0.949219"/><stop stop-opacity="1" stop-color="rgb(69.871521%, 70.671082%, 71.55304%)" offset="0.953125"/><stop stop-opacity="1" stop-color="rgb(69.667053%, 70.466614%, 71.400452%)" offset="0.957031"/><stop stop-opacity="1" stop-color="rgb(69.464111%, 70.263672%, 71.247864%)" offset="0.960937"/><stop stop-opacity="1" stop-color="rgb(69.259644%, 70.059204%, 71.09375%)" offset="0.964844"/><stop stop-opacity="1" stop-color="rgb(69.055176%, 69.856262%, 70.941162%)" offset="0.96875"/><stop stop-opacity="1" stop-color="rgb(68.850708%, 69.651794%, 70.788574%)" offset="0.972656"/><stop stop-opacity="1" stop-color="rgb(68.647766%, 69.448853%, 70.635986%)" offset="0.976562"/><stop stop-opacity="1" stop-color="rgb(68.623352%, 69.422913%, 70.617676%)" offset="0.984375"/><stop stop-opacity="1" stop-color="rgb(68.598938%, 69.398499%, 70.599365%)" offset="1"/></linearGradient><clipPath id="b5b8dd8c19"><path d="M 136 245 L 239 245 L 239 281.804688 L 136 281.804688 Z M 136 245 " clip-rule="nonzero"/></clipPath><clipPath id="c234bb8f13"><path d="M 272 230 L 315.433594 230 L 315.433594 232 L 272 232 Z M 272 230 " clip-rule="nonzero"/></clipPath><clipPath id="b0a0a08e12"><path d="M 59.683594 230 L 103 230 L 103 232 L 59.683594 232 Z M 59.683594 230 " clip-rule="nonzero"/></clipPath></defs><rect x="-37.5" width="450" fill="#ffffff" y="-37.499999" height="449.999989" fill-opacity="1"/><rect x="-37.5" width="450" fill="#000000" y="-37.499999" height="449.999989" fill-opacity="1"/><g clip-path="url(#b4489002a4)"><g clip-path="url(#146725b5b8)"><path fill="url(#57c40539f5)" d="M 68.140625 125.855469 L 68.140625 125.910156 L 68.363281 125.910156 L 68.363281 125.855469 Z M 68.140625 125.855469 " fill-rule="nonzero"/></g></g><path fill="#f7f8fd" d="M 99.226562 146.816406 C 104.480469 141.785156 110.398438 138.410156 116.925781 136.917969 C 118.363281 136.585938 119.800781 136.363281 121.292969 136.253906 C 135.730469 134.980469 152.65625 134.816406 166.59375 139.074219 C 170.355469 140.234375 173.894531 141.675781 177.324219 143.277344 C 177.433594 143.332031 177.542969 143.390625 177.65625 143.5 C 181.582031 145.378906 185.289062 147.425781 188.9375 149.582031 C 185.34375 147.207031 181.636719 144.882812 177.875 142.835938 L 178.980469 139.242188 C 180.253906 139.074219 181.472656 139.019531 182.632812 139.242188 C 188.21875 140.125 192.644531 144.882812 194.964844 149.695312 C 195.628906 149.75 196.292969 149.804688 197.011719 149.914062 C 192.808594 139.90625 186.28125 136.863281 179.425781 137.800781 L 179.3125 137.800781 C 179.039062 137.859375 178.761719 137.914062 178.429688 137.96875 L 178.320312 137.96875 C 176.273438 138.355469 174.226562 139.074219 172.234375 140.070312 C 171.625 139.792969 171.074219 139.574219 170.464844 139.351562 C 172.675781 138.355469 174.945312 137.582031 177.324219 137.082031 C 178.816406 136.75 180.308594 136.53125 181.859375 136.417969 C 196.679688 135.148438 214.105469 134.980469 228.429688 139.242188 C 236.890625 141.730469 244.304688 145.601562 251.4375 149.640625 C 244.246094 145.046875 236.671875 140.511719 228.816406 138.132812 C 215.652344 134.097656 197.179688 133.378906 183.296875 134.761719 C 177.710938 135.3125 172.898438 136.695312 168.75 138.6875 C 168.195312 138.464844 167.589844 138.300781 167.035156 138.078125 C 154.257812 134.042969 136.285156 133.324219 122.789062 134.707031 C 116.425781 135.367188 111.0625 137.082031 106.636719 139.738281 C 106.691406 139.683594 106.746094 139.683594 106.804688 139.628906 C 106.25 132.328125 106.085938 128.84375 106.140625 120.878906 C 160.5625 101.960938 214.710938 101.742188 268.972656 120.824219 C 268.914062 132.382812 268.695312 140.679688 267.421875 151.296875 C 269.910156 151.683594 272.289062 152.238281 274.503906 152.902344 C 275.996094 140.789062 276.328125 130.390625 276.214844 115.734375 C 218.417969 94.21875 159.402344 93.554688 98.949219 115.734375 C 98.617188 127.902344 98.949219 134.539062 99.890625 144.660156 C 100.332031 144.328125 100.773438 143.941406 101.21875 143.554688 C 98.671875 145.601562 96.957031 147.261719 94.246094 149.804688 C 91.316406 152.625 88.109375 154.007812 84.679688 155.167969 C 84.679688 155.167969 84.511719 155.558594 84.347656 156.773438 C 85.675781 156.277344 87.335938 155.945312 88.992188 155.167969 C 92.921875 153.125 96.074219 149.804688 99.226562 146.816406 Z M 177.820312 139.296875 L 176.824219 142.117188 C 175.828125 141.617188 174.835938 141.121094 173.839844 140.625 C 175.164062 140.070312 176.492188 139.628906 177.820312 139.296875 Z M 103.042969 141.949219 C 103.097656 141.894531 103.097656 141.894531 103.042969 141.949219 C 103.097656 141.894531 103.097656 141.894531 103.042969 141.949219 C 102.929688 142.0625 102.765625 142.171875 102.65625 142.226562 C 102.820312 142.117188 102.929688 142.007812 103.042969 141.949219 Z M 103.042969 141.949219 " fill-opacity="1" fill-rule="evenodd"/><path fill="#f7f8fd" d="M 81.582031 167.945312 C 82.136719 166.894531 82.578125 166.230469 83.242188 165.402344 C 91.8125 155.777344 97.789062 169.660156 96.792969 180.945312 C 99.335938 168.886719 95.90625 160.257812 88.773438 160.867188 L 88.828125 160.8125 L 88.386719 160.921875 C 87.667969 161.03125 86.890625 161.199219 86.117188 161.476562 L 83.40625 162.140625 C 90.320312 155.890625 131.582031 155.890625 140.042969 156.332031 C 120.851562 154.5625 101.824219 155.226562 82.855469 158.820312 C 82.300781 159.707031 81.304688 161.972656 80.753906 164.242188 C 80.199219 166.5625 80.253906 168.167969 80.253906 171.152344 C 80.753906 170.492188 81.085938 168.996094 81.582031 167.945312 Z M 81.582031 167.945312 " fill-opacity="1" fill-rule="evenodd"/><path fill="#f7f8fd" d="M 136.339844 178.066406 L 136.339844 177.183594 L 113.71875 176.628906 L 114.878906 177.734375 Z M 136.339844 178.066406 " fill-opacity="1" fill-rule="evenodd"/><path fill="#f7f8fd" d="M 98.0625 159.539062 C 96.238281 159.707031 94.414062 159.871094 92.589844 160.203125 C 92.753906 160.644531 92.808594 161.199219 92.808594 161.363281 C 105.253906 160.09375 120.410156 159.539062 132.910156 159.207031 L 132.910156 158.929688 C 118.804688 158.324219 110.675781 158.324219 98.0625 159.539062 Z M 98.0625 159.539062 " fill-opacity="1" fill-rule="evenodd"/><path fill="#f7f8fd" d="M 136.613281 170.046875 C 127.15625 169.773438 117.476562 170.101562 107.964844 170.101562 L 110.011719 172.316406 C 118.859375 172.207031 127.929688 171.761719 136.613281 171.761719 Z M 136.613281 170.046875 " fill-opacity="1" fill-rule="evenodd"/><path fill="#f7f8fd" d="M 185.5625 180.335938 L 185.5625 180.058594 L 184.902344 180.558594 Z M 185.5625 180.335938 " fill-opacity="1" fill-rule="evenodd"/><path fill="#f7f8fd" d="M 118.804688 137.636719 C 118.527344 137.691406 118.253906 137.746094 117.976562 137.800781 L 117.863281 137.800781 C 109.734375 139.460938 101.328125 146.652344 96.074219 154.0625 L 136.945312 152.347656 C 132.964844 140.234375 126.105469 136.585938 118.917969 137.636719 Z M 96.738281 153.566406 C 101.050781 148.367188 109.84375 141.011719 117.367188 139.296875 L 112.832031 152.347656 L 113.71875 152.292969 Z M 122.070312 139.074219 C 127.929688 140.070312 132.523438 145.492188 134.570312 150.691406 L 114.601562 152.183594 L 118.472656 139.074219 C 119.746094 138.910156 120.960938 138.910156 122.070312 139.074219 Z M 122.070312 139.074219 " fill-opacity="1" fill-rule="evenodd"/><path fill="#f7f8fd" d="M 185.121094 149.417969 C 169.136719 139.074219 156.96875 136.363281 132.078125 137.691406 L 141.757812 151.351562 Z M 181.414062 148.699219 L 142.367188 149.582031 L 134.402344 138.910156 C 151.21875 137.140625 168.140625 139.574219 181.414062 148.699219 Z M 181.414062 148.699219 " fill-opacity="1" fill-rule="evenodd"/><path fill="#f7f8fd" d="M 138.328125 162.582031 C 125 162.582031 111.726562 162.800781 98.453125 162.914062 C 101.4375 168.332031 102.710938 174.582031 102.65625 181.441406 L 104.425781 181.441406 C 105.035156 176.023438 105.253906 170.824219 102.65625 166.011719 C 114.269531 165.625 125.886719 165.292969 137.5 164.847656 Z M 138.328125 162.582031 " fill-opacity="1" fill-rule="evenodd"/><path fill="#f7f8fd" d="M 250.109375 149.25 C 250.222656 149.25 250.386719 149.25 250.496094 149.25 C 249.28125 148.53125 248.007812 147.8125 246.738281 147.148438 C 247.566406 147.648438 248.449219 148.199219 249.28125 148.753906 Z M 250.109375 149.25 " fill-opacity="1" fill-rule="evenodd"/><path fill="#f7f8fd" d="M 192.863281 137.691406 L 202.101562 150.414062 C 203.375 150.632812 204.589844 150.910156 205.863281 151.1875 L 247.398438 149.417969 C 231.027344 139.128906 218.527344 136.417969 192.863281 137.691406 Z M 243.582031 148.699219 L 203.429688 149.582031 L 195.242188 138.910156 C 212.554688 137.140625 229.976562 139.574219 243.582031 148.699219 Z M 243.582031 148.699219 " fill-opacity="1" fill-rule="evenodd"/><path fill="#f7f8fd" d="M 247.898438 180.335938 L 247.898438 180.058594 L 247.234375 180.558594 Z M 247.898438 180.335938 " fill-opacity="1" fill-rule="evenodd"/><path fill="#f7f8fd" d="M 280.53125 188.078125 C 286.671875 187.859375 292.921875 187.195312 299.058594 187.195312 L 295.242188 182.328125 L 294.082031 174.308594 C 295.355469 169.882812 291.480469 165.734375 289.710938 164.515625 C 288.660156 163.796875 287.832031 161.476562 286.28125 159.707031 C 277.324219 149.417969 250.164062 148.644531 236.117188 151.410156 C 238.9375 151.851562 269.964844 148.808594 282.300781 159.152344 L 248.175781 159.429688 C 248.949219 161.75 249.777344 164.019531 250.496094 166.285156 C 247.234375 165.957031 244.027344 165.402344 240.820312 164.847656 L 237.277344 164.296875 L 234.625 163.796875 C 231.96875 163.191406 230.476562 163.355469 229.039062 161.089844 C 228.539062 160.257812 227.929688 159.152344 226.992188 157.769531 C 232.023438 158.324219 238.386719 158.65625 243.140625 160.3125 C 245.1875 161.03125 246.792969 163.191406 247.953125 165.070312 C 247.125 162.636719 246.515625 159.261719 242.808594 158.15625 C 233.40625 156.773438 224.003906 155.003906 214.546875 154.0625 C 202.820312 149.195312 184.625 149.195312 174.058594 151.410156 C 176.769531 151.851562 206.96875 148.808594 218.972656 159.152344 L 185.785156 159.429688 C 186.503906 161.75 187.335938 164.019531 188.054688 166.285156 C 184.902344 165.957031 181.746094 165.402344 178.652344 164.847656 L 175.222656 164.296875 L 172.621094 163.796875 C 170.023438 163.191406 168.585938 163.355469 167.144531 161.089844 C 166.648438 160.257812 166.09375 159.152344 165.15625 157.769531 C 170.023438 158.324219 176.21875 158.65625 180.863281 160.3125 C 182.855469 161.03125 184.402344 163.191406 185.5625 165.070312 C 184.789062 162.636719 184.179688 159.261719 180.585938 158.15625 C 167.421875 156.164062 154.203125 153.398438 140.820312 153.398438 L 158.296875 156.277344 L 160.289062 156.828125 C 162.167969 157.273438 163.773438 159.539062 165.042969 161.476562 C 166.59375 163.910156 168.195312 164.683594 170.242188 165.292969 C 181.195312 168.332031 193.75 169.050781 205.144531 170.324219 C 210.507812 170.933594 210.453125 170.765625 215.210938 169.496094 C 217.421875 168.886719 222.566406 166.398438 223.726562 166.285156 C 223.507812 169.164062 219.746094 169.496094 219.136719 171.152344 L 224.835938 171.152344 L 227.988281 171.484375 C 222.84375 173.257812 215.707031 174.03125 209.789062 173.863281 C 193.695312 173.476562 175.71875 172.867188 160.175781 169.21875 L 160.175781 171.152344 C 160.175781 176.410156 161.613281 177.625 165.375 179.117188 C 177.101562 183.820312 200.441406 182.050781 214.4375 181.996094 L 214.492188 182.546875 L 212.886719 182.546875 C 204.703125 182.824219 196.792969 183.765625 188.992188 183.542969 C 181.304688 183.324219 170.574219 184.207031 161.394531 179.726562 C 165.265625 185.203125 179.371094 185.425781 188.496094 185.367188 C 193.417969 185.367188 198.339844 185.425781 203.375 185.425781 L 208.90625 185.425781 L 208.960938 186.695312 L 178.320312 186.53125 C 170.796875 186.53125 162.777344 186.199219 159.734375 181.664062 L 159.179688 180.5 C 158.792969 178.179688 158.074219 168.832031 155.363281 163.851562 C 152.929688 159.375 147.566406 157.382812 143.195312 162.25 C 138.273438 167.78125 138.386719 180.167969 138.828125 183.652344 C 123.726562 183.929688 108.738281 183.597656 93.640625 183.652344 C 93.640625 178.675781 93.363281 172.980469 90.984375 168.554688 C 89.492188 165.679688 86.007812 165.347656 84.015625 167.890625 C 80.199219 172.703125 80.308594 181.773438 82.632812 187.25 C 84.292969 191.285156 87.058594 191.507812 90.375 191.175781 C 95.519531 190.679688 97.289062 191.230469 100.222656 186.53125 C 113.328125 186.53125 126.492188 186.144531 139.546875 186.863281 C 142.3125 194.441406 154.644531 195.988281 160.5625 187.359375 L 168.03125 188.246094 L 184.347656 188.578125 L 197.234375 188.523438 C 199.945312 192.449219 206.527344 193.71875 211.613281 192.226562 C 210.894531 192.613281 210.121094 192.890625 209.292969 193.113281 C 213.386719 193.664062 218.03125 192.28125 221.347656 188.523438 C 219.855469 188.632812 218.363281 188.6875 216.8125 188.742188 C 216.980469 188.464844 217.144531 188.246094 217.3125 187.96875 C 223.0625 187.746094 228.925781 187.140625 234.679688 187.082031 L 235.34375 187.96875 L 233.519531 187.96875 C 231.859375 187.96875 230.253906 188.023438 228.59375 188.078125 L 229.867188 188.246094 L 246.625 188.578125 L 259.84375 188.523438 C 264.105469 194.441406 277.101562 194.496094 280.53125 188.078125 Z M 209.179688 167.945312 L 191.648438 166.949219 L 191.261719 165.898438 L 208.460938 166.949219 L 215.875 166.285156 L 215.875 166.675781 Z M 208.460938 165.402344 L 190.429688 164.683594 C 190.429688 164.683594 190.042969 163.796875 189.878906 163.464844 L 208.519531 164.296875 L 216.480469 163.246094 L 216.539062 164.628906 Z M 217.035156 162.027344 L 207.910156 163.300781 L 188.992188 162.582031 L 188.328125 161.199219 L 207.023438 162.25 L 217.035156 161.476562 Z M 213.992188 176.078125 L 214.105469 177.402344 C 200.054688 176.90625 176.492188 179.449219 164.546875 173.035156 C 180.363281 176.628906 197.457031 176.464844 213.992188 176.078125 Z M 163.828125 176.023438 L 163.164062 175.523438 C 170.851562 180.390625 209.402344 179.394531 214.324219 179.230469 L 214.492188 181.109375 C 202.988281 180.945312 177.324219 183.15625 163.828125 176.023438 Z M 85.234375 187.195312 C 82.246094 182.273438 81.914062 169.882812 87.113281 169.496094 C 83.90625 172.925781 83.351562 180.058594 85.289062 184.152344 C 84.511719 179.894531 84.457031 175.191406 87.003906 171.429688 C 86.226562 173.863281 85.953125 176.078125 85.953125 178.675781 C 85.953125 179.726562 86.007812 181.277344 86.339844 182.546875 C 87.003906 185.480469 89.769531 185.367188 90.652344 182.546875 C 90.984375 181.441406 91.207031 180.335938 91.425781 179.78125 C 92.089844 182.601562 88.660156 192.78125 85.234375 187.195312 Z M 149.226562 187.46875 L 148.0625 187.46875 C 145.628906 187.46875 143.308594 184.097656 142.3125 180.722656 C 140.597656 175.082031 142.808594 167.117188 146.847656 165.347656 C 143.085938 169.714844 141.039062 176.960938 145.574219 183.433594 C 143.640625 177.734375 143.195312 172.261719 147.125 167.449219 C 145.355469 171.210938 144.136719 175.523438 145.464844 179.5625 C 146.183594 181.882812 147.566406 184.097656 149.171875 184.097656 C 152.046875 184.097656 153.375 181.996094 154.09375 179.617188 C 154.535156 178.179688 154.8125 176.683594 155.035156 175.191406 C 156.140625 178.785156 154.09375 187.46875 149.226562 187.46875 Z M 281.691406 182.601562 C 281.691406 179.507812 281.140625 177.847656 280.308594 174.859375 L 284.347656 174.582031 C 285.675781 177.847656 286.394531 179.007812 286.394531 182.601562 Z M 292.476562 179.339844 C 292.476562 179.78125 292.3125 180.226562 292.035156 180.558594 L 291.757812 180.777344 L 291.8125 180.832031 C 291.539062 181.109375 291.148438 181.332031 290.761719 181.386719 C 290.097656 181.550781 289.765625 181.441406 289.214844 181.164062 C 287.390625 180.226562 287.941406 177.238281 290.265625 177.238281 C 290.707031 177.238281 291.09375 177.347656 291.425781 177.570312 L 291.425781 177.515625 C 291.480469 177.570312 291.539062 177.625 291.539062 177.679688 C 292.144531 178.011719 292.476562 178.621094 292.476562 179.339844 Z M 284.070312 165.789062 C 284.402344 163.851562 284.566406 161.972656 284.015625 160.035156 C 287.390625 161.199219 288.773438 164.019531 284.070312 165.789062 Z M 269.964844 162.25 L 280.253906 161.476562 L 280.253906 162.027344 L 270.90625 163.300781 L 251.4375 162.582031 L 250.773438 161.199219 Z M 271.40625 165.402344 L 252.875 164.683594 C 252.875 164.683594 252.488281 163.796875 252.265625 163.464844 L 271.40625 164.296875 L 279.589844 163.246094 L 279.644531 164.628906 Z M 279.09375 166.230469 L 279.09375 166.617188 L 272.179688 167.945312 L 254.203125 166.949219 L 253.816406 165.898438 L 271.515625 166.949219 Z M 220.742188 165.789062 C 221.074219 163.851562 221.238281 161.972656 220.6875 160.035156 C 223.949219 161.199219 225.332031 164.019531 220.742188 165.789062 Z M 226.214844 164.574219 C 225.222656 163.851562 224.390625 161.53125 222.898438 159.761719 C 221.738281 158.378906 220.242188 157.160156 218.472656 156.109375 L 219.910156 156.332031 L 221.957031 156.882812 C 223.894531 157.328125 225.554688 159.59375 226.878906 161.53125 C 228.484375 163.964844 230.089844 164.738281 232.246094 165.347656 C 243.472656 168.390625 256.414062 169.109375 268.140625 170.378906 C 273.671875 170.988281 273.617188 170.824219 278.539062 169.550781 C 280.808594 168.941406 286.0625 166.453125 287.332031 166.34375 C 287.058594 169.21875 283.242188 169.550781 282.632812 171.210938 L 288.496094 171.210938 L 291.703125 171.542969 C 286.394531 173.3125 279.09375 174.085938 272.953125 173.917969 C 259.292969 173.589844 244.304688 173.089844 230.476562 170.878906 C 229.8125 167.890625 227.488281 165.457031 226.214844 164.574219 Z M 218.472656 182.601562 C 218.472656 179.507812 217.921875 177.847656 217.144531 174.859375 L 221.074219 174.582031 C 222.398438 177.847656 223.0625 179.007812 223.0625 182.601562 Z M 228.539062 180.558594 L 228.320312 180.777344 L 228.375 180.832031 C 228.097656 181.109375 227.765625 181.332031 227.378906 181.386719 C 226.714844 181.550781 226.4375 181.441406 225.886719 181.164062 C 224.113281 180.226562 224.667969 177.238281 226.878906 177.238281 C 227.269531 177.238281 227.65625 177.347656 227.988281 177.570312 L 227.988281 177.515625 C 228.042969 177.570312 228.097656 177.625 228.097656 177.679688 C 228.59375 178.066406 228.925781 178.675781 228.925781 179.339844 C 228.925781 179.78125 228.761719 180.226562 228.539062 180.558594 Z M 230.476562 174.308594 C 230.53125 174.140625 230.53125 173.976562 230.585938 173.863281 C 245.574219 176.574219 261.613281 176.410156 277.15625 176.078125 L 277.265625 177.402344 C 264.324219 176.960938 243.527344 178.953125 230.53125 174.75 Z M 230.917969 177.460938 C 244.691406 180.113281 273.230469 179.394531 277.433594 179.230469 L 277.597656 181.109375 C 267.144531 180.945312 245.519531 182.660156 230.972656 178.234375 Z M 240.542969 186.640625 C 238.660156 186.640625 236.726562 186.640625 234.84375 186.53125 L 233.1875 184.375 C 238.882812 185.425781 245.796875 185.480469 251.050781 185.425781 C 256.140625 185.425781 261.171875 185.480469 266.371094 185.480469 L 272.066406 185.480469 L 272.125 186.75 Z M 276.105469 182.601562 C 267.699219 182.878906 259.570312 183.820312 251.546875 183.597656 C 245.90625 183.433594 238.773438 183.820312 231.691406 182.492188 L 231.582031 182.382812 L 231.304688 180.445312 C 244.082031 183.542969 264.824219 182.160156 277.710938 182.105469 L 277.765625 182.660156 L 276.105469 182.660156 Z M 276.105469 182.601562 " fill-opacity="1" fill-rule="evenodd"/><g clip-path="url(#b5b8dd8c19)"><path fill="#f7f8fd" d="M 187.222656 273.53125 C 176.160156 268.277344 165.652344 261.917969 156.140625 254.117188 C 152.710938 251.296875 149.503906 248.367188 146.460938 245.324219 L 136.503906 245.324219 C 150.386719 260.976562 167.53125 272.648438 187.058594 281.441406 C 207.410156 273.3125 224.722656 261.417969 238.496094 245.324219 L 228.648438 245.324219 C 217.699219 256.773438 204.09375 266.34375 187.222656 273.53125 Z M 187.222656 273.53125 " fill-opacity="1" fill-rule="evenodd"/></g><g clip-path="url(#c234bb8f13)"><path fill="#f7f8fd" d="M 272.457031 230.335938 L 315.265625 230.335938 L 315.265625 231.941406 L 272.457031 231.941406 Z M 272.457031 230.335938 " fill-opacity="1" fill-rule="evenodd"/></g><path fill="#f7f8fd" d="M 272.457031 233.929688 L 299.832031 233.929688 L 299.832031 235.535156 L 272.457031 235.535156 Z M 272.457031 233.929688 " fill-opacity="1" fill-rule="evenodd"/><g clip-path="url(#b0a0a08e12)"><path fill="#f7f8fd" d="M 59.734375 230.335938 L 102.542969 230.335938 L 102.542969 231.941406 L 59.734375 231.941406 Z M 59.734375 230.335938 " fill-opacity="1" fill-rule="evenodd"/></g><path fill="#f7f8fd" d="M 75.167969 233.929688 L 102.542969 233.929688 L 102.542969 235.535156 L 75.167969 235.535156 Z M 75.167969 233.929688 " fill-opacity="1" fill-rule="evenodd"/><path fill="#e11e25" d="M 168.914062 124.972656 L 167.921875 121.984375 L 166.925781 124.972656 L 163.773438 124.972656 L 166.371094 126.851562 L 165.375 129.839844 L 167.921875 128.011719 L 170.464844 129.839844 L 169.46875 126.851562 L 172.070312 124.972656 Z M 168.914062 124.972656 " fill-opacity="1" fill-rule="evenodd"/><path fill="#e11e25" d="M 188.9375 121.484375 L 187.5 116.949219 L 186.007812 121.484375 L 181.25 121.484375 L 185.121094 124.308594 L 183.628906 128.84375 L 187.5 126.023438 L 191.371094 128.84375 L 189.878906 124.308594 L 193.75 121.484375 Z M 188.9375 121.484375 " fill-opacity="1" fill-rule="evenodd"/><path fill="#e11e25" d="M 208.019531 124.972656 L 207.078125 121.984375 L 206.085938 124.972656 L 202.929688 124.972656 L 205.476562 126.851562 L 204.480469 129.839844 L 207.078125 128.011719 L 209.625 129.839844 L 208.628906 126.851562 L 211.171875 124.972656 Z M 208.019531 124.972656 " fill-opacity="1" fill-rule="evenodd"/><path fill="#e11e25" d="M 227.597656 124.972656 L 226.605469 121.984375 L 225.664062 124.972656 L 222.511719 124.972656 L 225.054688 126.851562 L 224.058594 129.839844 L 226.605469 128.011719 L 229.203125 129.839844 L 228.207031 126.851562 L 230.753906 124.972656 Z M 227.597656 124.972656 " fill-opacity="1" fill-rule="evenodd"/><path fill="#e11e25" d="M 149.945312 126.851562 L 152.488281 124.972656 L 149.335938 124.972656 L 148.339844 121.984375 L 147.402344 124.972656 L 144.191406 124.972656 L 146.792969 126.851562 L 145.796875 129.839844 L 148.339844 128.011719 L 150.886719 129.839844 Z M 149.945312 126.851562 " fill-opacity="1" fill-rule="evenodd"/><path fill="#e11e25" d="M 236.558594 117.78125 C 202.988281 107.769531 169.414062 108.542969 135.894531 118.777344 C 168.308594 112.027344 201.878906 111.53125 236.558594 117.78125 Z M 236.558594 117.78125 " fill-opacity="1" fill-rule="evenodd"/><path fill="#e11e25" d="M 149.171875 243.386719 C 159.457031 252.570312 171.183594 261.363281 186.945312 269.273438 C 202.710938 261.363281 214.492188 252.570312 224.722656 243.386719 C 213.441406 252.070312 201.105469 260.867188 186.945312 266.175781 C 172.789062 260.867188 160.453125 252.070312 149.171875 243.386719 Z M 149.171875 243.386719 " fill-opacity="1" fill-rule="evenodd"/><g fill="#f7f8fd" fill-opacity="1"><g transform="translate(128.248371, 221.72422)"><g><path d="M 2.59375 0 L 2.59375 -22.015625 L 6.296875 -22.015625 L 16.125 -4.296875 L 16.125 -22.015625 L 18.84375 -22.015625 L 18.84375 0 L 15.625 0 L 5.96875 -17.390625 L 5.3125 -17.390625 L 5.3125 0 Z M 2.59375 0 "/></g></g></g><g fill="#f7f8fd" fill-opacity="1"><g transform="translate(149.699678, 221.72422)"><g><path d="M 2.59375 0 L 2.59375 -22.015625 L 17.125 -22.015625 L 17.125 -19.515625 L 5.3125 -19.515625 L 5.3125 -12.8125 L 15.859375 -12.8125 L 15.859375 -10.34375 L 5.3125 -10.34375 L 5.3125 -2.515625 L 17.125 -2.515625 L 17.125 0 Z M 2.59375 0 "/></g></g></g><g fill="#f7f8fd" fill-opacity="1"><g transform="translate(168.372466, 221.72422)"><g><path d="M 0.390625 0 L 7.015625 -11.265625 L 0.453125 -22.015625 L 3.53125 -22.015625 L 9.078125 -12.75 L 9.796875 -12.75 L 15.359375 -22.015625 L 18.46875 -22.015625 L 11.859375 -11.265625 L 18.5 0 L 15.390625 0 L 9.796875 -9.671875 L 9.109375 -9.671875 L 3.53125 0 Z M 0.390625 0 "/></g></g></g><g fill="#f7f8fd" fill-opacity="1"><g transform="translate(187.254396, 221.72422)"><g><path d="M 5.171875 0 L 2.03125 -3.140625 L 2.03125 -18.875 L 5.171875 -22.015625 L 15.109375 -22.015625 L 18.15625 -18.96875 L 16.4375 -17.203125 L 14.046875 -19.59375 L 6.390625 -19.59375 L 4.75 -17.953125 L 4.75 -4.0625 L 6.390625 -2.421875 L 14.28125 -2.421875 L 16.703125 -4.84375 L 18.4375 -3.078125 L 15.328125 0 Z M 5.171875 0 "/></g></g></g><g fill="#f7f8fd" fill-opacity="1"><g transform="translate(206.584468, 221.72422)"><g><path d="M 0.421875 0 L 7.859375 -22.015625 L 12.0625 -22.015625 L 19.515625 0 L 16.671875 0 L 14.78125 -5.734375 L 5.140625 -5.734375 L 3.28125 0 Z M 5.9375 -8.125 L 14.015625 -8.125 L 10.3125 -19.453125 L 9.625 -19.453125 Z M 5.9375 -8.125 "/></g></g></g><g fill="#f7f8fd" fill-opacity="1"><g transform="translate(226.512068, 221.72422)"><g><path d="M 2.59375 0 L 2.59375 -22.015625 L 14.640625 -22.015625 L 17.75 -18.875 L 17.75 -11.859375 L 14.640625 -8.71875 L 14.546875 -8.71875 L 18.515625 0 L 15.5 0 L 11.59375 -8.71875 L 5.3125 -8.71875 L 5.3125 0 Z M 5.3125 -11.140625 L 13.40625 -11.140625 L 15.03125 -12.78125 L 15.03125 -17.953125 L 13.40625 -19.59375 L 5.3125 -19.59375 Z M 5.3125 -11.140625 "/></g></g></g><g fill="#e11e25" fill-opacity="1"><g transform="translate(119.931933, 237.026422)"><g><path d="M 6.84375 0 L 0.65625 0 L 0.65625 -5.921875 L 6.78125 -5.921875 L 6.78125 -4.9375 L 1.953125 -4.9375 L 1.953125 -3.5 L 6.546875 -3.5 L 6.546875 -2.546875 L 1.953125 -2.546875 L 1.953125 -1.015625 L 6.84375 -1.015625 Z M 6.84375 0 "/></g></g></g><g fill="#e11e25" fill-opacity="1"><g transform="translate(127.06733, 237.026422)"><g><path d="M 7.53125 -1.71875 C 7.53125 -1.351562 7.488281 -1.050781 7.40625 -0.8125 C 7.320312 -0.582031 7.164062 -0.398438 6.9375 -0.265625 C 6.707031 -0.140625 6.378906 -0.0507812 5.953125 0 C 5.535156 0.0507812 4.976562 0.078125 4.28125 0.078125 L 4 0.078125 C 3.226562 0.078125 2.613281 0.0546875 2.15625 0.015625 C 1.707031 -0.0234375 1.363281 -0.109375 1.125 -0.234375 C 0.894531 -0.367188 0.75 -0.550781 0.6875 -0.78125 C 0.625 -1.019531 0.59375 -1.332031 0.59375 -1.71875 L 0.59375 -1.890625 L 1.875 -1.890625 L 1.875 -1.75 C 1.875 -1.5625 1.894531 -1.410156 1.9375 -1.296875 C 1.976562 -1.191406 2.070312 -1.109375 2.21875 -1.046875 C 2.363281 -0.984375 2.570312 -0.941406 2.84375 -0.921875 C 3.113281 -0.910156 3.472656 -0.90625 3.921875 -0.90625 L 4.140625 -0.90625 C 4.609375 -0.90625 4.984375 -0.914062 5.265625 -0.9375 C 5.546875 -0.957031 5.757812 -0.992188 5.90625 -1.046875 C 6.050781 -1.109375 6.144531 -1.1875 6.1875 -1.28125 C 6.238281 -1.382812 6.265625 -1.515625 6.265625 -1.671875 L 6.265625 -1.734375 C 6.265625 -1.898438 6.242188 -2.03125 6.203125 -2.125 C 6.160156 -2.226562 6.066406 -2.3125 5.921875 -2.375 C 5.773438 -2.4375 5.554688 -2.476562 5.265625 -2.5 C 4.972656 -2.519531 4.578125 -2.53125 4.078125 -2.53125 C 3.296875 -2.53125 2.679688 -2.550781 2.234375 -2.59375 C 1.785156 -2.644531 1.445312 -2.726562 1.21875 -2.84375 C 0.988281 -2.96875 0.84375 -3.132812 0.78125 -3.34375 C 0.71875 -3.5625 0.6875 -3.847656 0.6875 -4.203125 L 0.6875 -4.28125 C 0.6875 -4.625 0.722656 -4.90625 0.796875 -5.125 C 0.867188 -5.351562 1.015625 -5.53125 1.234375 -5.65625 C 1.460938 -5.78125 1.773438 -5.867188 2.171875 -5.921875 C 2.566406 -5.972656 3.085938 -6 3.734375 -6 L 4.015625 -6 C 4.765625 -6 5.359375 -5.972656 5.796875 -5.921875 C 6.234375 -5.867188 6.566406 -5.773438 6.796875 -5.640625 C 7.035156 -5.515625 7.1875 -5.335938 7.25 -5.109375 C 7.3125 -4.878906 7.34375 -4.59375 7.34375 -4.25 L 7.34375 -4.09375 L 6.0625 -4.09375 L 6.0625 -4.1875 C 6.0625 -4.363281 6.039062 -4.503906 6 -4.609375 C 5.96875 -4.722656 5.882812 -4.8125 5.75 -4.875 C 5.625 -4.945312 5.4375 -4.992188 5.1875 -5.015625 C 4.945312 -5.035156 4.625 -5.046875 4.21875 -5.046875 L 3.984375 -5.046875 C 3.535156 -5.046875 3.175781 -5.035156 2.90625 -5.015625 C 2.632812 -4.992188 2.425781 -4.953125 2.28125 -4.890625 C 2.144531 -4.835938 2.054688 -4.757812 2.015625 -4.65625 C 1.972656 -4.5625 1.953125 -4.4375 1.953125 -4.28125 L 1.953125 -4.203125 C 1.953125 -4.054688 1.96875 -3.9375 2 -3.84375 C 2.039062 -3.757812 2.132812 -3.691406 2.28125 -3.640625 C 2.425781 -3.585938 2.648438 -3.550781 2.953125 -3.53125 C 3.253906 -3.507812 3.671875 -3.5 4.203125 -3.5 C 4.941406 -3.5 5.53125 -3.476562 5.96875 -3.4375 C 6.40625 -3.394531 6.738281 -3.3125 6.96875 -3.1875 C 7.195312 -3.070312 7.347656 -2.898438 7.421875 -2.671875 C 7.492188 -2.441406 7.53125 -2.144531 7.53125 -1.78125 Z M 7.53125 -1.71875 "/></g></g></g><g fill="#e11e25" fill-opacity="1"><g transform="translate(135.126131, 237.026422)"><g><path d="M 4.125 0 L 2.828125 0 L 2.828125 -4.90625 L 0.109375 -4.90625 L 0.109375 -5.921875 L 6.859375 -5.921875 L 6.859375 -4.90625 L 4.125 -4.90625 Z M 4.125 0 "/></g></g></g><g fill="#e11e25" fill-opacity="1"><g transform="translate(229.629969, 237.026422)"><g><path d="M 4.171875 0 L 2.921875 0 L 2.921875 -4.84375 L 2.890625 -4.84375 L 0.78125 -3.296875 L 0.171875 -4.171875 L 2.59375 -5.921875 L 4.171875 -5.921875 Z M 4.171875 0 "/></g></g></g><g fill="#e11e25" fill-opacity="1"><g transform="translate(234.855596, 237.026422)"><g><path d="M 3.609375 0.078125 C 2.992188 0.078125 2.488281 0.0546875 2.09375 0.015625 C 1.707031 -0.0234375 1.40625 -0.101562 1.1875 -0.21875 C 0.976562 -0.34375 0.832031 -0.515625 0.75 -0.734375 C 0.675781 -0.960938 0.640625 -1.253906 0.640625 -1.609375 L 0.640625 -1.75 L 1.828125 -1.75 L 1.828125 -1.65625 C 1.828125 -1.488281 1.847656 -1.351562 1.890625 -1.25 C 1.941406 -1.15625 2.03125 -1.078125 2.15625 -1.015625 C 2.289062 -0.960938 2.476562 -0.925781 2.71875 -0.90625 C 2.96875 -0.894531 3.285156 -0.890625 3.671875 -0.890625 L 3.796875 -0.890625 C 4.304688 -0.890625 4.703125 -0.90625 4.984375 -0.9375 C 5.273438 -0.96875 5.492188 -1.035156 5.640625 -1.140625 C 5.796875 -1.253906 5.894531 -1.421875 5.9375 -1.640625 C 5.976562 -1.859375 6 -2.160156 6 -2.546875 L 6 -2.796875 L 5.984375 -2.796875 C 5.921875 -2.710938 5.835938 -2.640625 5.734375 -2.578125 C 5.640625 -2.515625 5.515625 -2.457031 5.359375 -2.40625 C 5.210938 -2.351562 5.023438 -2.3125 4.796875 -2.28125 C 4.566406 -2.257812 4.296875 -2.25 3.984375 -2.25 L 3.796875 -2.25 C 3.109375 -2.25 2.550781 -2.269531 2.125 -2.3125 C 1.695312 -2.351562 1.367188 -2.4375 1.140625 -2.5625 C 0.910156 -2.6875 0.753906 -2.867188 0.671875 -3.109375 C 0.597656 -3.347656 0.5625 -3.671875 0.5625 -4.078125 L 0.5625 -4.203125 C 0.5625 -4.585938 0.601562 -4.894531 0.6875 -5.125 C 0.769531 -5.363281 0.925781 -5.546875 1.15625 -5.671875 C 1.382812 -5.804688 1.707031 -5.894531 2.125 -5.9375 C 2.550781 -5.976562 3.113281 -6 3.8125 -6 L 4.015625 -6 C 4.734375 -6 5.300781 -5.972656 5.71875 -5.921875 C 6.144531 -5.867188 6.472656 -5.75 6.703125 -5.5625 C 6.929688 -5.382812 7.078125 -5.113281 7.140625 -4.75 C 7.210938 -4.382812 7.25 -3.890625 7.25 -3.265625 L 7.25 -2.921875 C 7.25 -2.472656 7.234375 -2.082031 7.203125 -1.75 C 7.171875 -1.425781 7.109375 -1.148438 7.015625 -0.921875 C 6.929688 -0.703125 6.804688 -0.523438 6.640625 -0.390625 C 6.484375 -0.265625 6.28125 -0.164062 6.03125 -0.09375 C 5.78125 -0.0195312 5.472656 0.0234375 5.109375 0.046875 C 4.742188 0.0664062 4.320312 0.078125 3.84375 0.078125 Z M 3.984375 -3.1875 C 4.429688 -3.1875 4.785156 -3.195312 5.046875 -3.21875 C 5.316406 -3.238281 5.519531 -3.273438 5.65625 -3.328125 C 5.800781 -3.378906 5.898438 -3.453125 5.953125 -3.546875 C 6.003906 -3.640625 6.03125 -3.765625 6.03125 -3.921875 L 6.03125 -3.984375 C 6.03125 -4.222656 6.007812 -4.410156 5.96875 -4.546875 C 5.9375 -4.691406 5.851562 -4.800781 5.71875 -4.875 C 5.582031 -4.945312 5.375 -4.992188 5.09375 -5.015625 C 4.820312 -5.035156 4.453125 -5.046875 3.984375 -5.046875 L 3.84375 -5.046875 C 3.382812 -5.046875 3.015625 -5.035156 2.734375 -5.015625 C 2.460938 -4.992188 2.257812 -4.945312 2.125 -4.875 C 1.988281 -4.8125 1.898438 -4.722656 1.859375 -4.609375 C 1.828125 -4.492188 1.8125 -4.335938 1.8125 -4.140625 L 1.8125 -4.046875 C 1.8125 -3.847656 1.828125 -3.691406 1.859375 -3.578125 C 1.898438 -3.460938 1.988281 -3.375 2.125 -3.3125 C 2.269531 -3.257812 2.476562 -3.222656 2.75 -3.203125 C 3.019531 -3.191406 3.382812 -3.1875 3.84375 -3.1875 Z M 3.984375 -3.1875 "/></g></g></g><g fill="#e11e25" fill-opacity="1"><g transform="translate(242.683546, 237.026422)"><g><path d="M 3.609375 0.078125 C 2.992188 0.078125 2.488281 0.0546875 2.09375 0.015625 C 1.707031 -0.0234375 1.40625 -0.101562 1.1875 -0.21875 C 0.976562 -0.34375 0.832031 -0.515625 0.75 -0.734375 C 0.675781 -0.960938 0.640625 -1.253906 0.640625 -1.609375 L 0.640625 -1.75 L 1.828125 -1.75 L 1.828125 -1.65625 C 1.828125 -1.488281 1.847656 -1.351562 1.890625 -1.25 C 1.941406 -1.15625 2.03125 -1.078125 2.15625 -1.015625 C 2.289062 -0.960938 2.476562 -0.925781 2.71875 -0.90625 C 2.96875 -0.894531 3.285156 -0.890625 3.671875 -0.890625 L 3.796875 -0.890625 C 4.304688 -0.890625 4.703125 -0.90625 4.984375 -0.9375 C 5.273438 -0.96875 5.492188 -1.035156 5.640625 -1.140625 C 5.796875 -1.253906 5.894531 -1.421875 5.9375 -1.640625 C 5.976562 -1.859375 6 -2.160156 6 -2.546875 L 6 -2.796875 L 5.984375 -2.796875 C 5.921875 -2.710938 5.835938 -2.640625 5.734375 -2.578125 C 5.640625 -2.515625 5.515625 -2.457031 5.359375 -2.40625 C 5.210938 -2.351562 5.023438 -2.3125 4.796875 -2.28125 C 4.566406 -2.257812 4.296875 -2.25 3.984375 -2.25 L 3.796875 -2.25 C 3.109375 -2.25 2.550781 -2.269531 2.125 -2.3125 C 1.695312 -2.351562 1.367188 -2.4375 1.140625 -2.5625 C 0.910156 -2.6875 0.753906 -2.867188 0.671875 -3.109375 C 0.597656 -3.347656 0.5625 -3.671875 0.5625 -4.078125 L 0.5625 -4.203125 C 0.5625 -4.585938 0.601562 -4.894531 0.6875 -5.125 C 0.769531 -5.363281 0.925781 -5.546875 1.15625 -5.671875 C 1.382812 -5.804688 1.707031 -5.894531 2.125 -5.9375 C 2.550781 -5.976562 3.113281 -6 3.8125 -6 L 4.015625 -6 C 4.734375 -6 5.300781 -5.972656 5.71875 -5.921875 C 6.144531 -5.867188 6.472656 -5.75 6.703125 -5.5625 C 6.929688 -5.382812 7.078125 -5.113281 7.140625 -4.75 C 7.210938 -4.382812 7.25 -3.890625 7.25 -3.265625 L 7.25 -2.921875 C 7.25 -2.472656 7.234375 -2.082031 7.203125 -1.75 C 7.171875 -1.425781 7.109375 -1.148438 7.015625 -0.921875 C 6.929688 -0.703125 6.804688 -0.523438 6.640625 -0.390625 C 6.484375 -0.265625 6.28125 -0.164062 6.03125 -0.09375 C 5.78125 -0.0195312 5.472656 0.0234375 5.109375 0.046875 C 4.742188 0.0664062 4.320312 0.078125 3.84375 0.078125 Z M 3.984375 -3.1875 C 4.429688 -3.1875 4.785156 -3.195312 5.046875 -3.21875 C 5.316406 -3.238281 5.519531 -3.273438 5.65625 -3.328125 C 5.800781 -3.378906 5.898438 -3.453125 5.953125 -3.546875 C 6.003906 -3.640625 6.03125 -3.765625 6.03125 -3.921875 L 6.03125 -3.984375 C 6.03125 -4.222656 6.007812 -4.410156 5.96875 -4.546875 C 5.9375 -4.691406 5.851562 -4.800781 5.71875 -4.875 C 5.582031 -4.945312 5.375 -4.992188 5.09375 -5.015625 C 4.820312 -5.035156 4.453125 -5.046875 3.984375 -5.046875 L 3.84375 -5.046875 C 3.382812 -5.046875 3.015625 -5.035156 2.734375 -5.015625 C 2.460938 -4.992188 2.257812 -4.945312 2.125 -4.875 C 1.988281 -4.8125 1.898438 -4.722656 1.859375 -4.609375 C 1.828125 -4.492188 1.8125 -4.335938 1.8125 -4.140625 L 1.8125 -4.046875 C 1.8125 -3.847656 1.828125 -3.691406 1.859375 -3.578125 C 1.898438 -3.460938 1.988281 -3.375 2.125 -3.3125 C 2.269531 -3.257812 2.476562 -3.222656 2.75 -3.203125 C 3.019531 -3.191406 3.382812 -3.1875 3.84375 -3.1875 Z M 3.984375 -3.1875 "/></g></g></g><g fill="#e11e25" fill-opacity="1"><g transform="translate(250.511496, 237.026422)"><g><path d="M 3.609375 0.078125 C 2.992188 0.078125 2.488281 0.0546875 2.09375 0.015625 C 1.707031 -0.0234375 1.40625 -0.101562 1.1875 -0.21875 C 0.976562 -0.34375 0.832031 -0.515625 0.75 -0.734375 C 0.675781 -0.960938 0.640625 -1.253906 0.640625 -1.609375 L 0.640625 -1.75 L 1.828125 -1.75 L 1.828125 -1.65625 C 1.828125 -1.488281 1.847656 -1.351562 1.890625 -1.25 C 1.941406 -1.15625 2.03125 -1.078125 2.15625 -1.015625 C 2.289062 -0.960938 2.476562 -0.925781 2.71875 -0.90625 C 2.96875 -0.894531 3.285156 -0.890625 3.671875 -0.890625 L 3.796875 -0.890625 C 4.304688 -0.890625 4.703125 -0.90625 4.984375 -0.9375 C 5.273438 -0.96875 5.492188 -1.035156 5.640625 -1.140625 C 5.796875 -1.253906 5.894531 -1.421875 5.9375 -1.640625 C 5.976562 -1.859375 6 -2.160156 6 -2.546875 L 6 -2.796875 L 5.984375 -2.796875 C 5.921875 -2.710938 5.835938 -2.640625 5.734375 -2.578125 C 5.640625 -2.515625 5.515625 -2.457031 5.359375 -2.40625 C 5.210938 -2.351562 5.023438 -2.3125 4.796875 -2.28125 C 4.566406 -2.257812 4.296875 -2.25 3.984375 -2.25 L 3.796875 -2.25 C 3.109375 -2.25 2.550781 -2.269531 2.125 -2.3125 C 1.695312 -2.351562 1.367188 -2.4375 1.140625 -2.5625 C 0.910156 -2.6875 0.753906 -2.867188 0.671875 -3.109375 C 0.597656 -3.347656 0.5625 -3.671875 0.5625 -4.078125 L 0.5625 -4.203125 C 0.5625 -4.585938 0.601562 -4.894531 0.6875 -5.125 C 0.769531 -5.363281 0.925781 -5.546875 1.15625 -5.671875 C 1.382812 -5.804688 1.707031 -5.894531 2.125 -5.9375 C 2.550781 -5.976562 3.113281 -6 3.8125 -6 L 4.015625 -6 C 4.734375 -6 5.300781 -5.972656 5.71875 -5.921875 C 6.144531 -5.867188 6.472656 -5.75 6.703125 -5.5625 C 6.929688 -5.382812 7.078125 -5.113281 7.140625 -4.75 C 7.210938 -4.382812 7.25 -3.890625 7.25 -3.265625 L 7.25 -2.921875 C 7.25 -2.472656 7.234375 -2.082031 7.203125 -1.75 C 7.171875 -1.425781 7.109375 -1.148438 7.015625 -0.921875 C 6.929688 -0.703125 6.804688 -0.523438 6.640625 -0.390625 C 6.484375 -0.265625 6.28125 -0.164062 6.03125 -0.09375 C 5.78125 -0.0195312 5.472656 0.0234375 5.109375 0.046875 C 4.742188 0.0664062 4.320312 0.078125 3.84375 0.078125 Z M 3.984375 -3.1875 C 4.429688 -3.1875 4.785156 -3.195312 5.046875 -3.21875 C 5.316406 -3.238281 5.519531 -3.273438 5.65625 -3.328125 C 5.800781 -3.378906 5.898438 -3.453125 5.953125 -3.546875 C 6.003906 -3.640625 6.03125 -3.765625 6.03125 -3.921875 L 6.03125 -3.984375 C 6.03125 -4.222656 6.007812 -4.410156 5.96875 -4.546875 C 5.9375 -4.691406 5.851562 -4.800781 5.71875 -4.875 C 5.582031 -4.945312 5.375 -4.992188 5.09375 -5.015625 C 4.820312 -5.035156 4.453125 -5.046875 3.984375 -5.046875 L 3.84375 -5.046875 C 3.382812 -5.046875 3.015625 -5.035156 2.734375 -5.015625 C 2.460938 -4.992188 2.257812 -4.945312 2.125 -4.875 C 1.988281 -4.8125 1.898438 -4.722656 1.859375 -4.609375 C 1.828125 -4.492188 1.8125 -4.335938 1.8125 -4.140625 L 1.8125 -4.046875 C 1.8125 -3.847656 1.828125 -3.691406 1.859375 -3.578125 C 1.898438 -3.460938 1.988281 -3.375 2.125 -3.3125 C 2.269531 -3.257812 2.476562 -3.222656 2.75 -3.203125 C 3.019531 -3.191406 3.382812 -3.1875 3.84375 -3.1875 Z M 3.984375 -3.1875 "/></g></g></g><g fill="#f7f8fd" fill-opacity="1"><g transform="translate(153.682152, 241.849293)"><g><path d="M 2.828125 1.953125 C 2.296875 1.597656 1.878906 1.285156 1.578125 1.015625 C 1.273438 0.742188 1.082031 0.484375 1 0.234375 C 0.914062 -0.015625 0.925781 -0.289062 1.03125 -0.59375 C 1.144531 -0.90625 1.347656 -1.28125 1.640625 -1.71875 L 1.71875 -1.828125 C 1.90625 -2.117188 2.082031 -2.363281 2.25 -2.5625 C 2.414062 -2.757812 2.582031 -2.90625 2.75 -3 C 2.914062 -3.101562 3.085938 -3.160156 3.265625 -3.171875 C 3.441406 -3.179688 3.640625 -3.15625 3.859375 -3.09375 C 4.078125 -3.03125 4.328125 -2.921875 4.609375 -2.765625 C 4.890625 -2.609375 5.207031 -2.410156 5.5625 -2.171875 L 5.75 -2.046875 C 6.226562 -1.722656 6.609375 -1.441406 6.890625 -1.203125 C 7.171875 -0.972656 7.359375 -0.757812 7.453125 -0.5625 C 7.554688 -0.363281 7.578125 -0.164062 7.515625 0.03125 C 7.460938 0.238281 7.347656 0.472656 7.171875 0.734375 L 7.0625 0.890625 L 6.21875 0.328125 L 6.28125 0.25 C 6.375 0.113281 6.429688 -0.00390625 6.453125 -0.109375 C 6.484375 -0.222656 6.460938 -0.332031 6.390625 -0.4375 C 6.328125 -0.550781 6.207031 -0.675781 6.03125 -0.8125 C 5.851562 -0.957031 5.597656 -1.144531 5.265625 -1.375 L 5.140625 -1.453125 C 4.765625 -1.703125 4.457031 -1.890625 4.21875 -2.015625 C 3.988281 -2.140625 3.785156 -2.195312 3.609375 -2.1875 C 3.441406 -2.175781 3.28125 -2.085938 3.125 -1.921875 C 2.976562 -1.765625 2.800781 -1.53125 2.59375 -1.21875 L 2.546875 -1.15625 C 2.335938 -0.84375 2.191406 -0.585938 2.109375 -0.390625 C 2.023438 -0.203125 2.007812 -0.0234375 2.0625 0.140625 C 2.113281 0.304688 2.242188 0.472656 2.453125 0.640625 C 2.660156 0.804688 2.953125 1.015625 3.328125 1.265625 L 3.453125 1.34375 C 3.796875 1.570312 4.066406 1.742188 4.265625 1.859375 C 4.472656 1.972656 4.644531 2.035156 4.78125 2.046875 C 4.925781 2.066406 5.039062 2.039062 5.125 1.96875 C 5.207031 1.90625 5.300781 1.796875 5.40625 1.640625 L 5.4375 1.578125 L 6.296875 2.140625 L 6.1875 2.328125 C 6.019531 2.578125 5.847656 2.765625 5.671875 2.890625 C 5.503906 3.015625 5.304688 3.070312 5.078125 3.0625 C 4.847656 3.050781 4.566406 2.960938 4.234375 2.796875 C 3.898438 2.640625 3.492188 2.398438 3.015625 2.078125 Z M 2.828125 1.953125 "/></g></g></g><g fill="#f7f8fd" fill-opacity="1"><g transform="translate(159.65793, 245.797045)"><g><path d="M 6.03125 2.984375 L 4.96875 2.46875 L 4.953125 1.359375 L 1.96875 -0.125 L 1.0625 0.53125 L 0.03125 0.015625 L 4.59375 -3.109375 L 5.78125 -2.53125 Z M 4.9375 0.515625 L 4.84375 -2.125 L 4.8125 -2.15625 L 2.640625 -0.625 Z M 4.9375 0.515625 "/></g></g></g><g fill="#f7f8fd" fill-opacity="1"><g transform="translate(166.004501, 248.912267)"><g><path d="M 4.421875 -0.96875 C 4.648438 -0.882812 4.835938 -0.828125 4.984375 -0.796875 C 5.140625 -0.765625 5.269531 -0.765625 5.375 -0.796875 C 5.476562 -0.828125 5.5625 -0.882812 5.625 -0.96875 C 5.6875 -1.050781 5.742188 -1.160156 5.796875 -1.296875 L 5.828125 -1.390625 C 5.890625 -1.566406 5.921875 -1.707031 5.921875 -1.8125 C 5.921875 -1.914062 5.890625 -2.007812 5.828125 -2.09375 C 5.765625 -2.175781 5.660156 -2.253906 5.515625 -2.328125 C 5.367188 -2.398438 5.164062 -2.476562 4.90625 -2.5625 L 2.828125 -3.28125 L 2.28125 -1.703125 Z M 5.765625 2.015625 L 4.765625 1.65625 L 4.921875 1.21875 C 4.992188 0.988281 5.039062 0.800781 5.0625 0.65625 C 5.082031 0.507812 5.054688 0.378906 4.984375 0.265625 C 4.921875 0.160156 4.796875 0.0664062 4.609375 -0.015625 C 4.429688 -0.109375 4.179688 -0.207031 3.859375 -0.3125 L 2.015625 -0.953125 L 1.5 0.53125 L 0.515625 0.1875 L 2.109375 -4.375 L 5.5625 -3.1875 C 5.914062 -3.0625 6.203125 -2.9375 6.421875 -2.8125 C 6.640625 -2.6875 6.800781 -2.550781 6.90625 -2.40625 C 7.007812 -2.257812 7.054688 -2.085938 7.046875 -1.890625 C 7.035156 -1.691406 6.984375 -1.460938 6.890625 -1.203125 L 6.828125 -1.03125 C 6.703125 -0.675781 6.539062 -0.429688 6.34375 -0.296875 C 6.15625 -0.171875 5.910156 -0.132812 5.609375 -0.1875 L 5.609375 -0.15625 C 5.753906 -0.0625 5.875 0.0195312 5.96875 0.09375 C 6.0625 0.164062 6.125 0.253906 6.15625 0.359375 C 6.195312 0.472656 6.203125 0.597656 6.171875 0.734375 C 6.148438 0.878906 6.101562 1.054688 6.03125 1.265625 Z M 5.765625 2.015625 "/></g></g></g><g fill="#f7f8fd" fill-opacity="1"><g transform="translate(172.456085, 251.055653)"><g/></g></g><g fill="#f7f8fd" fill-opacity="1"><g transform="translate(174.929981, 251.772959)"><g><path d="M 6.28125 -0.34375 C 6.226562 -0.0507812 6.15625 0.175781 6.0625 0.34375 C 5.96875 0.507812 5.816406 0.628906 5.609375 0.703125 C 5.410156 0.785156 5.132812 0.816406 4.78125 0.796875 C 4.4375 0.785156 3.988281 0.734375 3.4375 0.640625 L 3.203125 0.609375 C 2.585938 0.503906 2.101562 0.398438 1.75 0.296875 C 1.394531 0.203125 1.128906 0.0859375 0.953125 -0.046875 C 0.773438 -0.179688 0.675781 -0.347656 0.65625 -0.546875 C 0.644531 -0.742188 0.664062 -0.992188 0.71875 -1.296875 L 0.75 -1.453125 L 1.78125 -1.28125 L 1.75 -1.171875 C 1.726562 -1.015625 1.726562 -0.882812 1.75 -0.78125 C 1.769531 -0.675781 1.828125 -0.59375 1.921875 -0.53125 C 2.023438 -0.46875 2.1875 -0.410156 2.40625 -0.359375 C 2.625 -0.304688 2.910156 -0.25 3.265625 -0.1875 L 3.453125 -0.15625 C 3.828125 -0.09375 4.128906 -0.046875 4.359375 -0.015625 C 4.585938 0.00390625 4.765625 0 4.890625 -0.03125 C 5.023438 -0.0703125 5.113281 -0.125 5.15625 -0.1875 C 5.207031 -0.257812 5.242188 -0.359375 5.265625 -0.484375 L 5.265625 -0.53125 C 5.285156 -0.675781 5.285156 -0.785156 5.265625 -0.859375 C 5.253906 -0.941406 5.195312 -1.019531 5.09375 -1.09375 C 4.988281 -1.164062 4.816406 -1.226562 4.578125 -1.28125 C 4.335938 -1.34375 4.019531 -1.40625 3.625 -1.46875 C 3 -1.582031 2.507812 -1.6875 2.15625 -1.78125 C 1.800781 -1.875 1.535156 -1.984375 1.359375 -2.109375 C 1.179688 -2.242188 1.082031 -2.398438 1.0625 -2.578125 C 1.050781 -2.765625 1.070312 -3 1.125 -3.28125 L 1.125 -3.34375 C 1.175781 -3.613281 1.25 -3.835938 1.34375 -4.015625 C 1.4375 -4.191406 1.578125 -4.3125 1.765625 -4.375 C 1.960938 -4.445312 2.222656 -4.476562 2.546875 -4.46875 C 2.878906 -4.457031 3.300781 -4.40625 3.8125 -4.3125 L 4.046875 -4.28125 C 4.640625 -4.175781 5.109375 -4.070312 5.453125 -3.96875 C 5.804688 -3.875 6.066406 -3.753906 6.234375 -3.609375 C 6.398438 -3.472656 6.5 -3.3125 6.53125 -3.125 C 6.5625 -2.9375 6.550781 -2.703125 6.5 -2.421875 L 6.484375 -2.296875 L 5.453125 -2.46875 L 5.46875 -2.546875 C 5.488281 -2.679688 5.488281 -2.796875 5.46875 -2.890625 C 5.457031 -2.984375 5.398438 -3.066406 5.296875 -3.140625 C 5.191406 -3.210938 5.039062 -3.269531 4.84375 -3.3125 C 4.65625 -3.363281 4.398438 -3.414062 4.078125 -3.46875 L 3.890625 -3.5 C 3.535156 -3.5625 3.242188 -3.601562 3.015625 -3.625 C 2.785156 -3.644531 2.613281 -3.644531 2.5 -3.625 C 2.382812 -3.601562 2.300781 -3.554688 2.25 -3.484375 C 2.207031 -3.410156 2.175781 -3.304688 2.15625 -3.171875 L 2.15625 -3.125 C 2.132812 -3 2.125 -2.894531 2.125 -2.8125 C 2.132812 -2.738281 2.195312 -2.671875 2.3125 -2.609375 C 2.425781 -2.546875 2.609375 -2.484375 2.859375 -2.421875 C 3.109375 -2.367188 3.445312 -2.304688 3.875 -2.234375 C 4.457031 -2.140625 4.921875 -2.046875 5.265625 -1.953125 C 5.609375 -1.859375 5.863281 -1.742188 6.03125 -1.609375 C 6.207031 -1.484375 6.304688 -1.320312 6.328125 -1.125 C 6.347656 -0.9375 6.335938 -0.695312 6.296875 -0.40625 Z M 6.28125 -0.34375 "/></g></g></g><g fill="#f7f8fd" fill-opacity="1"><g transform="translate(181.705948, 252.881128)"><g><path d="M 5.578125 0.28125 L 0.546875 0.03125 L 0.796875 -4.796875 L 5.78125 -4.546875 L 5.734375 -3.75 L 1.796875 -3.953125 L 1.734375 -2.78125 L 5.46875 -2.578125 L 5.4375 -1.796875 L 1.703125 -2 L 1.640625 -0.75 L 5.625 -0.546875 Z M 5.578125 0.28125 "/></g></g></g><g fill="#f7f8fd" fill-opacity="1"><g transform="translate(187.812772, 253.203315)"><g><path d="M 3.6875 -2.609375 C 3.925781 -2.617188 4.125 -2.640625 4.28125 -2.671875 C 4.4375 -2.710938 4.554688 -2.765625 4.640625 -2.828125 C 4.722656 -2.890625 4.773438 -2.972656 4.796875 -3.078125 C 4.828125 -3.179688 4.835938 -3.304688 4.828125 -3.453125 L 4.828125 -3.5625 C 4.816406 -3.738281 4.789062 -3.875 4.75 -3.96875 C 4.707031 -4.0625 4.640625 -4.132812 4.546875 -4.1875 C 4.460938 -4.238281 4.335938 -4.265625 4.171875 -4.265625 C 4.003906 -4.273438 3.785156 -4.273438 3.515625 -4.265625 L 1.328125 -4.125 L 1.4375 -2.46875 Z M 6.09375 -0.390625 L 5.03125 -0.328125 L 5 -0.796875 C 4.988281 -1.035156 4.960938 -1.222656 4.921875 -1.359375 C 4.878906 -1.503906 4.804688 -1.613281 4.703125 -1.6875 C 4.597656 -1.757812 4.441406 -1.800781 4.234375 -1.8125 C 4.035156 -1.832031 3.773438 -1.832031 3.453125 -1.8125 L 1.5 -1.6875 L 1.59375 -0.109375 L 0.546875 -0.03125 L 0.234375 -4.84375 L 3.875 -5.078125 C 4.25 -5.109375 4.5625 -5.109375 4.8125 -5.078125 C 5.070312 -5.054688 5.273438 -4.992188 5.421875 -4.890625 C 5.578125 -4.796875 5.6875 -4.65625 5.75 -4.46875 C 5.8125 -4.289062 5.851562 -4.066406 5.875 -3.796875 L 5.890625 -3.625 C 5.910156 -3.238281 5.851562 -2.945312 5.71875 -2.75 C 5.59375 -2.5625 5.390625 -2.429688 5.109375 -2.359375 L 5.109375 -2.328125 C 5.273438 -2.304688 5.414062 -2.273438 5.53125 -2.234375 C 5.65625 -2.203125 5.75 -2.144531 5.8125 -2.0625 C 5.882812 -1.976562 5.9375 -1.863281 5.96875 -1.71875 C 6 -1.582031 6.023438 -1.40625 6.046875 -1.1875 Z M 6.09375 -0.390625 "/></g></g></g><g fill="#f7f8fd" fill-opacity="1"><g transform="translate(194.7038, 252.743367)"><g><path d="M 3.90625 -0.75 L 2.65625 -0.5 L -0.875 -4.75 L 0.3125 -4.984375 L 3.125 -1.53125 L 3.15625 -1.546875 L 4.484375 -5.78125 L 5.640625 -6 Z M 3.90625 -0.75 "/></g></g></g><g fill="#f7f8fd" fill-opacity="1"><g transform="translate(201.459797, 251.35036)"><g><path d="M 1.53125 -0.421875 L 0.53125 -0.140625 L -0.765625 -4.796875 L 0.234375 -5.078125 Z M 1.53125 -0.421875 "/></g></g></g><g fill="#f7f8fd" fill-opacity="1"><g transform="translate(203.751235, 250.806314)"><g><path d="M 3.234375 -1.125 C 2.628906 -0.90625 2.132812 -0.753906 1.75 -0.671875 C 1.363281 -0.597656 1.035156 -0.597656 0.765625 -0.671875 C 0.503906 -0.753906 0.285156 -0.929688 0.109375 -1.203125 C -0.0664062 -1.472656 -0.242188 -1.851562 -0.421875 -2.34375 L -0.46875 -2.46875 C -0.59375 -2.789062 -0.6875 -3.078125 -0.75 -3.328125 C -0.8125 -3.578125 -0.832031 -3.800781 -0.8125 -4 C -0.800781 -4.195312 -0.75 -4.367188 -0.65625 -4.515625 C -0.5625 -4.671875 -0.421875 -4.816406 -0.234375 -4.953125 C -0.046875 -5.097656 0.191406 -5.234375 0.484375 -5.359375 C 0.773438 -5.484375 1.117188 -5.617188 1.515625 -5.765625 L 1.71875 -5.84375 C 2.269531 -6.050781 2.722656 -6.195312 3.078125 -6.28125 C 3.429688 -6.375 3.71875 -6.398438 3.9375 -6.359375 C 4.15625 -6.316406 4.328125 -6.210938 4.453125 -6.046875 C 4.585938 -5.890625 4.707031 -5.664062 4.8125 -5.375 L 4.875 -5.1875 L 3.921875 -4.828125 L 3.890625 -4.921875 C 3.835938 -5.078125 3.773438 -5.195312 3.703125 -5.28125 C 3.628906 -5.375 3.523438 -5.425781 3.390625 -5.4375 C 3.265625 -5.445312 3.09375 -5.421875 2.875 -5.359375 C 2.65625 -5.304688 2.363281 -5.210938 2 -5.078125 L 1.84375 -5.015625 C 1.425781 -4.859375 1.09375 -4.722656 0.84375 -4.609375 C 0.601562 -4.492188 0.441406 -4.359375 0.359375 -4.203125 C 0.273438 -4.046875 0.25 -3.863281 0.28125 -3.65625 C 0.320312 -3.445312 0.40625 -3.164062 0.53125 -2.8125 L 0.5625 -2.75 C 0.695312 -2.394531 0.816406 -2.125 0.921875 -1.9375 C 1.035156 -1.75 1.171875 -1.628906 1.328125 -1.578125 C 1.492188 -1.535156 1.707031 -1.546875 1.96875 -1.609375 C 2.226562 -1.671875 2.566406 -1.78125 2.984375 -1.9375 L 3.140625 -2 C 3.515625 -2.132812 3.804688 -2.253906 4.015625 -2.359375 C 4.222656 -2.460938 4.375 -2.5625 4.46875 -2.65625 C 4.570312 -2.757812 4.617188 -2.867188 4.609375 -2.984375 C 4.597656 -3.097656 4.5625 -3.238281 4.5 -3.40625 L 4.46875 -3.46875 L 5.4375 -3.828125 L 5.515625 -3.625 C 5.617188 -3.34375 5.671875 -3.09375 5.671875 -2.875 C 5.671875 -2.664062 5.597656 -2.472656 5.453125 -2.296875 C 5.316406 -2.117188 5.082031 -1.941406 4.75 -1.765625 C 4.425781 -1.597656 3.988281 -1.410156 3.4375 -1.203125 Z M 3.234375 -1.125 "/></g></g></g><g fill="#f7f8fd" fill-opacity="1"><g transform="translate(210.426666, 248.280232)"><g><path d="M 4.96875 -2.546875 L 0.484375 -0.25 L -1.71875 -4.546875 L 2.71875 -6.8125 L 3.078125 -6.109375 L -0.421875 -4.328125 L 0.125 -3.28125 L 3.4375 -4.984375 L 3.78125 -4.28125 L 0.46875 -2.578125 L 1.046875 -1.46875 L 4.59375 -3.28125 Z M 4.96875 -2.546875 "/></g></g></g><g fill="#f7f8fd" fill-opacity="1"><g transform="translate(215.870868, 245.495863)"><g><path d="M 4.34375 -4.5625 C 4.5 -4.320312 4.597656 -4.101562 4.640625 -3.90625 C 4.691406 -3.71875 4.671875 -3.523438 4.578125 -3.328125 C 4.484375 -3.128906 4.300781 -2.921875 4.03125 -2.703125 C 3.769531 -2.484375 3.40625 -2.21875 2.9375 -1.90625 L 2.75 -1.765625 C 2.226562 -1.421875 1.800781 -1.15625 1.46875 -0.96875 C 1.144531 -0.789062 0.875 -0.691406 0.65625 -0.671875 C 0.4375 -0.660156 0.253906 -0.71875 0.109375 -0.84375 C -0.0351562 -0.976562 -0.191406 -1.171875 -0.359375 -1.421875 L -0.453125 -1.546875 L 0.40625 -2.125 L 0.46875 -2.03125 C 0.550781 -1.90625 0.632812 -1.8125 0.71875 -1.75 C 0.800781 -1.695312 0.90625 -1.6875 1.03125 -1.71875 C 1.15625 -1.75 1.3125 -1.816406 1.5 -1.921875 C 1.6875 -2.023438 1.9375 -2.175781 2.25 -2.375 L 2.40625 -2.484375 C 2.71875 -2.703125 2.960938 -2.878906 3.140625 -3.015625 C 3.328125 -3.160156 3.457031 -3.285156 3.53125 -3.390625 C 3.601562 -3.503906 3.628906 -3.601562 3.609375 -3.6875 C 3.597656 -3.769531 3.5625 -3.863281 3.5 -3.96875 L 3.46875 -4.015625 C 3.382812 -4.128906 3.304688 -4.207031 3.234375 -4.25 C 3.171875 -4.300781 3.070312 -4.316406 2.9375 -4.296875 C 2.8125 -4.273438 2.644531 -4.203125 2.4375 -4.078125 C 2.226562 -3.960938 1.957031 -3.789062 1.625 -3.5625 C 1.09375 -3.21875 0.664062 -2.957031 0.34375 -2.78125 C 0.0195312 -2.613281 -0.25 -2.515625 -0.46875 -2.484375 C -0.6875 -2.453125 -0.863281 -2.5 -1 -2.625 C -1.132812 -2.75 -1.28125 -2.925781 -1.4375 -3.15625 L -1.46875 -3.203125 C -1.625 -3.441406 -1.726562 -3.65625 -1.78125 -3.84375 C -1.832031 -4.039062 -1.8125 -4.226562 -1.71875 -4.40625 C -1.632812 -4.59375 -1.460938 -4.789062 -1.203125 -5 C -0.953125 -5.21875 -0.613281 -5.46875 -0.1875 -5.75 L 0.015625 -5.890625 C 0.515625 -6.222656 0.921875 -6.472656 1.234375 -6.640625 C 1.554688 -6.804688 1.828125 -6.894531 2.046875 -6.90625 C 2.265625 -6.914062 2.445312 -6.859375 2.59375 -6.734375 C 2.75 -6.617188 2.90625 -6.445312 3.0625 -6.21875 L 3.125 -6.109375 L 2.25 -5.53125 L 2.203125 -5.59375 C 2.128906 -5.707031 2.054688 -5.796875 1.984375 -5.859375 C 1.910156 -5.921875 1.8125 -5.941406 1.6875 -5.921875 C 1.5625 -5.898438 1.410156 -5.84375 1.234375 -5.75 C 1.066406 -5.65625 0.847656 -5.515625 0.578125 -5.328125 L 0.421875 -5.234375 C 0.117188 -5.023438 -0.117188 -4.847656 -0.296875 -4.703125 C -0.484375 -4.566406 -0.609375 -4.453125 -0.671875 -4.359375 C -0.734375 -4.265625 -0.753906 -4.171875 -0.734375 -4.078125 C -0.722656 -3.992188 -0.679688 -3.894531 -0.609375 -3.78125 L -0.578125 -3.75 C -0.515625 -3.644531 -0.453125 -3.566406 -0.390625 -3.515625 C -0.328125 -3.460938 -0.234375 -3.453125 -0.109375 -3.484375 C 0.015625 -3.523438 0.179688 -3.609375 0.390625 -3.734375 C 0.609375 -3.859375 0.898438 -4.039062 1.265625 -4.28125 C 1.753906 -4.613281 2.160156 -4.863281 2.484375 -5.03125 C 2.804688 -5.195312 3.070312 -5.289062 3.28125 -5.3125 C 3.5 -5.34375 3.679688 -5.296875 3.828125 -5.171875 C 3.972656 -5.046875 4.128906 -4.859375 4.296875 -4.609375 Z M 4.34375 -4.5625 "/></g></g></g></svg>