<svg xmlns="http://www.w3.org/2000/svg" xmlns:xlink="http://www.w3.org/1999/xlink" width="500" zoomAndPan="magnify" viewBox="0 0 375 374.999991" height="500" preserveAspectRatio="xMidYMid meet" version="1.0"><defs><g/><clipPath id="be0269d280"><path d="M 97.664062 123 L 251 123 L 251 168 L 97.664062 168 Z M 97.664062 123 " clip-rule="nonzero"/></clipPath><clipPath id="894202d5a0"><path d="M 125 151 L 274.664062 151 L 274.664062 171 L 125 171 Z M 125 151 " clip-rule="nonzero"/></clipPath></defs><rect x="-37.5" width="450" fill="#ffffff" y="-37.499999" height="449.999989" fill-opacity="1"/><rect x="-37.5" width="450" fill="#000000" y="-37.499999" height="449.999989" fill-opacity="1"/><g fill="#ffffff" fill-opacity="1"><g transform="translate(90.878905, 254.501381)"><g><path d="M -2.875 0 L 0 -2.875 L 0 -77.625 L -2.875 -80.5 L 14.375 -80.5 C 15.9375 -80.5 17.285156 -79.929688 18.421875 -78.796875 C 19.554688 -77.660156 20.125 -76.3125 20.125 -74.75 L 20.125 -5.75 C 20.125 -4.914062 20.394531 -4.226562 20.9375 -3.6875 C 21.476562 -3.144531 22.164062 -2.875 23 -2.875 L 28.75 -2.875 L 28.75 -80.5 L 37.375 -80.5 L 34.5 -77.625 L 34.5 -2.875 L 37.375 0 L 20.125 0 C 18.507812 0 17.132812 -0.539062 16 -1.625 C 14.914062 -2.757812 14.375 -4.132812 14.375 -5.75 L 14.375 -74.75 C 14.375 -75.53125 14.078125 -76.191406 13.484375 -76.734375 C 12.941406 -77.328125 12.28125 -77.625 11.5 -77.625 L 5.75 -77.625 L 5.75 0 Z M -2.875 0 "/></g></g></g><g fill="#ffffff" fill-opacity="1"><g transform="translate(135.078273, 254.501381)"><g><path d="M -2.875 0 L 0 -2.875 L 0 -77.625 L -2.875 -80.5 L 20.125 -80.5 L 20.125 -74.75 L 17.25 -77.625 L 5.75 -77.625 L 5.75 -34.5 L 14.375 -34.5 L 14.375 -31.625 L 5.75 -31.625 L 5.75 -2.875 L 17.25 -2.875 L 20.125 -5.75 L 20.125 0 Z M -2.875 0 "/></g></g></g><g fill="#ffffff" fill-opacity="1"><g transform="translate(162.029107, 254.501381)"><g><path d="M -2.875 0 L 0 -2.875 L 0 -25.875 C 0 -27.4375 0.539062 -28.785156 1.625 -29.921875 C 2.757812 -31.054688 4.132812 -31.625 5.75 -31.625 L 17.25 -31.625 C 18.8125 -31.625 20.160156 -31.054688 21.296875 -29.921875 C 22.429688 -28.785156 23 -27.4375 23 -25.875 L 23 -2.875 L 25.875 0 L 17.25 0 L 17.25 -25.875 C 17.25 -26.65625 16.953125 -27.316406 16.359375 -27.859375 C 15.816406 -28.453125 15.15625 -28.75 14.375 -28.75 L 8.625 -28.75 C 7.789062 -28.75 7.101562 -28.453125 6.5625 -27.859375 C 6.019531 -27.316406 5.75 -26.65625 5.75 -25.875 L 5.75 0 Z M 5.75 -34.5 C 4.132812 -34.5 2.757812 -35.039062 1.625 -36.125 C 0.539062 -37.257812 0 -38.632812 0 -40.25 L 0 -77.625 L -2.875 -80.5 L 5.75 -80.5 L 5.75 -40.25 C 5.75 -39.414062 6.019531 -38.726562 6.5625 -38.1875 C 7.101562 -37.644531 7.789062 -37.375 8.625 -37.375 L 14.375 -37.375 C 15.15625 -37.375 15.816406 -37.644531 16.359375 -38.1875 C 16.953125 -38.726562 17.25 -39.414062 17.25 -40.25 L 17.25 -80.5 L 25.875 -80.5 L 23 -77.625 L 23 -40.25 C 23 -38.632812 22.429688 -37.257812 21.296875 -36.125 C 20.160156 -35.039062 18.8125 -34.5 17.25 -34.5 Z M 5.75 -34.5 "/></g></g></g><g fill="#ffffff" fill-opacity="1"><g transform="translate(194.729453, 254.501381)"><g><path d="M 5.75 -0.71875 L 5.65625 -0.71875 C 5.65625 -0.71875 5.6875 -0.71875 5.75 -0.71875 Z M 5.75 0 C 4.132812 0 2.757812 -0.539062 1.625 -1.625 C 0.539062 -2.757812 0 -4.132812 0 -5.75 L 0 -74.75 C 0 -76.3125 0.539062 -77.660156 1.625 -78.796875 C 2.757812 -79.929688 4.132812 -80.5 5.75 -80.5 L 23 -80.5 L 23 -74.75 L 20.125 -77.625 L 8.625 -77.625 C 7.789062 -77.625 7.101562 -77.328125 6.5625 -76.734375 C 6.019531 -76.191406 5.75 -75.53125 5.75 -74.75 L 5.75 -5.75 C 5.75 -4.914062 6.019531 -4.226562 6.5625 -3.6875 C 7.101562 -3.144531 7.789062 -2.875 8.625 -2.875 L 20.125 -2.875 L 23 -5.75 L 23 0 Z M 5.75 0 "/></g></g></g><g fill="#ffffff" fill-opacity="1"><g transform="translate(224.555043, 254.501381)"><g><path d="M 17.25 -31.625 L 17.25 -74.75 C 17.25 -75.53125 16.953125 -76.191406 16.359375 -76.734375 C 15.816406 -77.328125 15.15625 -77.625 14.375 -77.625 L 8.625 -77.625 C 7.789062 -77.625 7.101562 -77.328125 6.5625 -76.734375 C 6.019531 -76.191406 5.75 -75.53125 5.75 -74.75 L 5.75 -31.625 Z M -2.875 0 L 0 -2.875 L 0 -74.75 C 0 -76.3125 0.539062 -77.660156 1.625 -78.796875 C 2.757812 -79.929688 4.132812 -80.5 5.75 -80.5 L 17.25 -80.5 C 18.8125 -80.5 20.160156 -79.929688 21.296875 -78.796875 C 22.429688 -77.660156 23 -76.3125 23 -74.75 L 23 -2.875 L 25.875 0 L 17.25 0 L 17.25 -28.75 L 5.75 -28.75 L 5.75 0 Z M -2.875 0 "/></g></g></g><g fill="#ffffff" fill-opacity="1"><g transform="translate(257.255389, 254.501381)"><g><path d="M 5.75 -36.5625 C 6.59375 -37.101562 7.550781 -37.375 8.625 -37.375 L 14.375 -37.375 C 15.15625 -37.375 15.816406 -37.644531 16.359375 -38.1875 C 16.953125 -38.726562 17.25 -39.414062 17.25 -40.25 L 17.25 -74.75 C 17.25 -75.53125 16.953125 -76.191406 16.359375 -76.734375 C 15.816406 -77.328125 15.15625 -77.625 14.375 -77.625 L 5.75 -77.625 Z M -2.875 0 L 0 -2.875 L 0 -77.625 L -2.875 -80.5 L 17.25 -80.5 C 18.8125 -80.5 20.160156 -79.929688 21.296875 -78.796875 C 22.429688 -77.660156 23 -76.3125 23 -74.75 L 23 -40.25 C 23 -38.632812 22.429688 -37.257812 21.296875 -36.125 C 20.160156 -35.039062 18.8125 -34.5 17.25 -34.5 L 8.625 -34.5 C 7.789062 -34.5 7.101562 -34.203125 6.5625 -33.609375 C 6.019531 -33.066406 5.75 -32.40625 5.75 -31.625 L 5.75 -30.8125 C 6.59375 -31.351562 7.550781 -31.625 8.625 -31.625 L 17.25 -31.625 C 18.8125 -31.625 20.160156 -31.054688 21.296875 -29.921875 C 22.429688 -28.785156 23 -27.4375 23 -25.875 L 23 -2.875 L 25.875 0 L 17.25 0 L 17.25 -25.875 C 17.25 -26.65625 16.953125 -27.316406 16.359375 -27.859375 C 15.816406 -28.453125 15.15625 -28.75 14.375 -28.75 L 8.625 -28.75 C 7.789062 -28.75 7.101562 -28.453125 6.5625 -27.859375 C 6.019531 -27.316406 5.75 -26.65625 5.75 -25.875 L 5.75 0 Z M -2.875 0 "/></g></g></g><path fill="#ffffff" d="M 189.0625 119.328125 C 162.546875 119.203125 139.738281 123.414062 136.449219 123.828125 C 131.1875 124.496094 129.457031 128.113281 129.457031 128.113281 L 119.265625 150.46875 C 121.066406 150.25 123.386719 149.96875 126.144531 149.632812 C 126.765625 107.210938 233.792969 123.597656 237.378906 125.984375 C 222.214844 121.035156 204.972656 119.402344 189.0625 119.328125 Z M 189.0625 119.328125 " fill-opacity="1" fill-rule="nonzero"/><g clip-path="url(#be0269d280)"><path fill="#ffffff" d="M 165.285156 125.234375 C 165.285156 125.234375 193.054688 120.46875 236.996094 128.34375 C 236.582031 127.929688 245.496094 135.390625 250.261719 150.726562 C 250.054688 150.519531 131.914062 140.363281 97.714844 167.101562 C 98.335938 166.273438 112.429688 151.558594 154.710938 147.828125 C 196.996094 144.097656 247.359375 153.835938 241.347656 139.535156 C 235.339844 125.234375 202.589844 125.234375 165.285156 125.234375 Z M 165.285156 125.234375 " fill-opacity="1" fill-rule="nonzero"/></g><path fill="#ffffff" d="M 119.890625 150.261719 L 116.316406 153.578125 C 116.316406 153.578125 113.933594 150.519531 105.796875 150.832031 C 97.664062 151.140625 102.117188 142.125 106.9375 142.023438 C 111.757812 141.917969 116.421875 141.089844 116.058594 143.578125 C 115.695312 146.066406 115.644531 149.328125 114.917969 149.640625 C 114.191406 149.949219 114.96875 142.539062 108.960938 143.679688 C 102.949219 144.820312 104.140625 147.257812 105.644531 147.828125 C 107.144531 148.394531 109.324219 146.945312 111.136719 149.070312 C 112.949219 151.195312 118.285156 152.335938 119.890625 150.261719 Z M 119.890625 150.261719 " fill-opacity="1" fill-rule="nonzero"/><path fill="#ffffff" d="M 249.890625 150.625 L 253.464844 153.941406 C 253.464844 153.941406 255.847656 150.886719 263.984375 151.195312 C 272.121094 151.507812 267.664062 142.492188 262.84375 142.386719 C 258.023438 142.285156 253.363281 141.453125 253.726562 143.941406 C 254.085938 146.429688 254.140625 149.695312 254.867188 150.003906 C 255.589844 150.316406 254.8125 142.90625 260.824219 144.046875 C 266.835938 145.1875 265.644531 147.621094 264.140625 148.191406 C 262.636719 148.761719 260.460938 147.3125 258.648438 149.433594 C 256.832031 151.558594 251.496094 152.699219 249.890625 150.625 Z M 249.890625 150.625 " fill-opacity="1" fill-rule="nonzero"/><g clip-path="url(#894202d5a0)"><path fill="#ffffff" d="M 191.558594 151.140625 C 171.425781 151.210938 149.402344 153.417969 125.101562 160.78125 L 125.140625 160.773438 C 162.515625 151.820312 205.707031 152.007812 236.71875 154.25 C 236.613281 154.257812 236.566406 154.253906 236.460938 154.257812 C 232.304688 154.472656 229.785156 155.085938 224.257812 155.578125 C 218.726562 156.074219 213.167969 156.703125 208.890625 157.472656 C 206.75 157.859375 204.933594 158.277344 203.589844 158.738281 C 202.914062 158.96875 202.359375 159.210938 201.9375 159.46875 C 201.511719 159.730469 201.199219 160.011719 201.070312 160.375 C 200.9375 160.753906 201.109375 161.152344 201.421875 161.445312 C 240.730469 185.582031 267.539062 139.804688 274.003906 170.855469 C 274.304688 170.835938 274.609375 170.816406 274.894531 170.808594 C 273.574219 161.492188 268.773438 159.195312 266.894531 156.058594 C 266.308594 155.082031 265.53125 154.625 264.734375 154.554688 C 263.9375 154.480469 263.152344 154.769531 262.453125 155.152344 C 257.308594 159.003906 251.046875 161.417969 245.054688 162.550781 C 238.816406 163.675781 231.757812 164.132812 225.167969 164.125 C 193.464844 158.414062 230.78125 155.878906 246.6875 154.335938 C 229.9375 153.144531 211.691406 151.074219 191.558594 151.140625 Z M 191.558594 151.140625 " fill-opacity="1" fill-rule="nonzero"/></g><g fill="#ffffff" fill-opacity="1"><g transform="translate(125.253471, 267.268134)"><g><path d="M 0.8125 0.09375 C 0.570312 0.09375 0.453125 0.015625 0.453125 -0.140625 C 0.453125 -0.265625 0.53125 -0.328125 0.6875 -0.328125 L 1 -0.296875 C 1.257812 -0.296875 1.4375 -0.441406 1.53125 -0.734375 C 1.601562 -0.984375 1.640625 -1.429688 1.640625 -2.078125 L 1.640625 -6.703125 C 1.640625 -7.347656 1.609375 -7.769531 1.546875 -7.96875 C 1.492188 -8.164062 1.421875 -8.300781 1.328125 -8.375 C 1.242188 -8.445312 1.132812 -8.484375 1 -8.484375 L 0.6875 -8.453125 C 0.53125 -8.453125 0.453125 -8.515625 0.453125 -8.640625 C 0.453125 -8.804688 0.570312 -8.890625 0.8125 -8.890625 C 1.050781 -8.890625 1.273438 -8.867188 1.484375 -8.828125 C 1.703125 -8.796875 1.925781 -8.78125 2.15625 -8.78125 C 2.394531 -8.78125 2.617188 -8.796875 2.828125 -8.828125 C 3.046875 -8.867188 3.269531 -8.890625 3.5 -8.890625 C 3.738281 -8.890625 3.859375 -8.804688 3.859375 -8.640625 C 3.859375 -8.515625 3.78125 -8.453125 3.625 -8.453125 L 3.3125 -8.484375 C 3.050781 -8.484375 2.875 -8.335938 2.78125 -8.046875 C 2.707031 -7.804688 2.671875 -7.359375 2.671875 -6.703125 L 2.671875 -3 C 2.671875 -2.039062 2.691406 -1.25 2.734375 -0.625 C 3.054688 -0.53125 3.410156 -0.484375 3.796875 -0.484375 C 4.179688 -0.484375 4.515625 -0.503906 4.796875 -0.546875 C 5.085938 -0.597656 5.335938 -0.664062 5.546875 -0.75 C 5.941406 -0.914062 6.25 -1.191406 6.46875 -1.578125 C 6.550781 -1.734375 6.632812 -1.8125 6.71875 -1.8125 C 6.8125 -1.8125 6.859375 -1.75 6.859375 -1.625 C 6.859375 -1.570312 6.84375 -1.503906 6.8125 -1.421875 C 6.78125 -1.304688 6.726562 -1.132812 6.65625 -0.90625 C 6.59375 -0.675781 6.539062 -0.5 6.5 -0.375 C 6.457031 -0.257812 6.410156 -0.164062 6.359375 -0.09375 C 6.253906 0.0507812 6.109375 0.125 5.921875 0.125 C 5.742188 0.125 5.570312 0.125 5.40625 0.125 C 5.238281 0.125 5.0625 0.117188 4.875 0.109375 C 4.695312 0.109375 4.503906 0.101562 4.296875 0.09375 C 4.085938 0.0820312 3.847656 0.0664062 3.578125 0.046875 C 3.304688 0.0351562 3.070312 0.0234375 2.875 0.015625 C 2.6875 0.00390625 2.492188 0 2.296875 0 C 2.097656 0 1.9375 0.00390625 1.8125 0.015625 C 1.6875 0.0234375 1.566406 0.0351562 1.453125 0.046875 C 1.347656 0.0546875 1.242188 0.0664062 1.140625 0.078125 C 1.046875 0.0859375 0.9375 0.09375 0.8125 0.09375 Z M 0.8125 0.09375 "/></g></g><g transform="translate(132.439792, 267.268134)"><g><path d="M 3.53125 -8.453125 L 3.21875 -8.484375 C 2.957031 -8.484375 2.78125 -8.335938 2.6875 -8.046875 C 2.601562 -7.785156 2.5625 -7.335938 2.5625 -6.703125 L 2.5625 -3.46875 C 2.5625 -2.863281 2.601562 -2.425781 2.6875 -2.15625 C 2.769531 -1.894531 2.890625 -1.65625 3.046875 -1.4375 C 3.210938 -1.21875 3.40625 -1.03125 3.625 -0.875 C 4.050781 -0.570312 4.535156 -0.421875 5.078125 -0.421875 C 5.617188 -0.421875 6.066406 -0.484375 6.421875 -0.609375 C 6.773438 -0.742188 7.0625 -0.9375 7.28125 -1.1875 C 7.664062 -1.664062 7.859375 -2.4375 7.859375 -3.5 L 7.84375 -6.703125 C 7.84375 -7.347656 7.8125 -7.769531 7.75 -7.96875 C 7.6875 -8.164062 7.613281 -8.300781 7.53125 -8.375 C 7.445312 -8.445312 7.335938 -8.484375 7.203125 -8.484375 L 6.875 -8.453125 C 6.71875 -8.453125 6.640625 -8.515625 6.640625 -8.640625 C 6.640625 -8.804688 6.757812 -8.890625 7 -8.890625 C 7.238281 -8.890625 7.445312 -8.867188 7.625 -8.828125 C 7.8125 -8.796875 8.003906 -8.78125 8.203125 -8.78125 L 9.28125 -8.890625 C 9.5625 -8.890625 9.703125 -8.804688 9.703125 -8.640625 C 9.703125 -8.515625 9.625 -8.453125 9.46875 -8.453125 L 9.15625 -8.484375 C 8.882812 -8.484375 8.707031 -8.335938 8.625 -8.046875 C 8.539062 -7.785156 8.5 -7.335938 8.5 -6.703125 L 8.5 -3.171875 C 8.5 -2.191406 8.1875 -1.390625 7.5625 -0.765625 C 6.9375 -0.148438 6.101562 0.15625 5.0625 0.15625 C 3.9375 0.15625 3.046875 -0.148438 2.390625 -0.765625 C 1.722656 -1.421875 1.390625 -2.320312 1.390625 -3.46875 L 1.390625 -6.703125 C 1.390625 -7.335938 1.351562 -7.753906 1.28125 -7.953125 C 1.21875 -8.160156 1.140625 -8.300781 1.046875 -8.375 C 0.960938 -8.445312 0.851562 -8.484375 0.71875 -8.484375 L 0.390625 -8.453125 C 0.234375 -8.453125 0.15625 -8.515625 0.15625 -8.640625 C 0.15625 -8.804688 0.273438 -8.890625 0.515625 -8.890625 C 0.765625 -8.890625 1.003906 -8.867188 1.234375 -8.828125 C 1.460938 -8.796875 1.703125 -8.78125 1.953125 -8.78125 C 2.210938 -8.78125 2.460938 -8.796875 2.703125 -8.828125 C 2.941406 -8.867188 3.179688 -8.890625 3.421875 -8.890625 C 3.660156 -8.890625 3.78125 -8.804688 3.78125 -8.640625 C 3.78125 -8.515625 3.695312 -8.453125 3.53125 -8.453125 Z M 3.53125 -8.453125 "/></g></g><g transform="translate(142.305426, 267.268134)"><g><path d="M 0.640625 0.09375 C 0.367188 0.09375 0.234375 0.0195312 0.234375 -0.125 C 0.234375 -0.28125 0.316406 -0.359375 0.484375 -0.359375 C 0.660156 -0.367188 0.8125 -0.398438 0.9375 -0.453125 C 1.070312 -0.503906 1.203125 -0.585938 1.328125 -0.703125 C 1.535156 -0.898438 1.828125 -1.304688 2.203125 -1.921875 L 3.75 -4.5 L 2.015625 -7.40625 C 1.773438 -7.820312 1.597656 -8.082031 1.484375 -8.1875 C 1.316406 -8.34375 1.128906 -8.421875 0.921875 -8.421875 C 0.722656 -8.421875 0.625 -8.5 0.625 -8.65625 C 0.625 -8.8125 0.765625 -8.890625 1.046875 -8.890625 L 2.203125 -8.78125 C 2.390625 -8.78125 2.570312 -8.796875 2.75 -8.828125 C 2.925781 -8.867188 3.085938 -8.890625 3.234375 -8.890625 C 3.515625 -8.890625 3.65625 -8.820312 3.65625 -8.6875 C 3.65625 -8.59375 3.613281 -8.53125 3.53125 -8.5 C 3.457031 -8.46875 3.375 -8.445312 3.28125 -8.4375 C 3.195312 -8.425781 3.113281 -8.410156 3.03125 -8.390625 C 2.957031 -8.367188 2.921875 -8.316406 2.921875 -8.234375 C 2.921875 -8.066406 3.007812 -7.835938 3.1875 -7.546875 L 4.375 -5.53125 L 5.578125 -7.53125 C 5.765625 -7.84375 5.859375 -8.050781 5.859375 -8.15625 C 5.859375 -8.351562 5.6875 -8.453125 5.34375 -8.453125 C 5.1875 -8.453125 5.109375 -8.515625 5.109375 -8.640625 C 5.109375 -8.804688 5.25 -8.890625 5.53125 -8.890625 L 6.390625 -8.78125 C 6.628906 -8.78125 6.835938 -8.796875 7.015625 -8.828125 C 7.203125 -8.867188 7.34375 -8.890625 7.4375 -8.890625 C 7.71875 -8.890625 7.859375 -8.8125 7.859375 -8.65625 C 7.859375 -8.5 7.773438 -8.421875 7.609375 -8.421875 C 7.441406 -8.421875 7.296875 -8.398438 7.171875 -8.359375 C 7.046875 -8.328125 6.921875 -8.257812 6.796875 -8.15625 C 6.546875 -7.9375 6.242188 -7.507812 5.890625 -6.875 L 4.734375 -4.9375 L 6.71875 -1.59375 C 7.195312 -0.769531 7.671875 -0.359375 8.140625 -0.359375 C 8.328125 -0.359375 8.421875 -0.28125 8.421875 -0.125 C 8.421875 0.0195312 8.28125 0.09375 8 0.09375 C 7.882812 0.09375 7.785156 0.0859375 7.703125 0.078125 C 7.628906 0.0664062 7.554688 0.0546875 7.484375 0.046875 C 7.242188 0.015625 7.03125 0 6.84375 0 L 5.75 0.09375 C 5.46875 0.09375 5.328125 0.015625 5.328125 -0.140625 C 5.328125 -0.265625 5.390625 -0.328125 5.515625 -0.328125 C 5.640625 -0.328125 5.734375 -0.332031 5.796875 -0.34375 C 5.859375 -0.351562 5.898438 -0.375 5.921875 -0.40625 C 5.960938 -0.4375 5.984375 -0.488281 5.984375 -0.5625 C 5.984375 -0.582031 5.960938 -0.65625 5.921875 -0.78125 C 5.878906 -0.90625 5.785156 -1.09375 5.640625 -1.34375 L 4.109375 -3.90625 L 2.53125 -1.265625 C 2.34375 -0.941406 2.25 -0.734375 2.25 -0.640625 C 2.25 -0.429688 2.421875 -0.328125 2.765625 -0.328125 C 2.921875 -0.328125 3 -0.265625 3 -0.140625 C 3 0.015625 2.851562 0.09375 2.5625 0.09375 L 1.703125 0 C 1.484375 0 1.273438 0.015625 1.078125 0.046875 C 0.878906 0.078125 0.734375 0.09375 0.640625 0.09375 Z M 0.640625 0.09375 "/></g></g><g transform="translate(150.946044, 267.268134)"><g><path d="M 3.53125 -8.453125 L 3.21875 -8.484375 C 2.957031 -8.484375 2.78125 -8.335938 2.6875 -8.046875 C 2.601562 -7.785156 2.5625 -7.335938 2.5625 -6.703125 L 2.5625 -3.46875 C 2.5625 -2.863281 2.601562 -2.425781 2.6875 -2.15625 C 2.769531 -1.894531 2.890625 -1.65625 3.046875 -1.4375 C 3.210938 -1.21875 3.40625 -1.03125 3.625 -0.875 C 4.050781 -0.570312 4.535156 -0.421875 5.078125 -0.421875 C 5.617188 -0.421875 6.066406 -0.484375 6.421875 -0.609375 C 6.773438 -0.742188 7.0625 -0.9375 7.28125 -1.1875 C 7.664062 -1.664062 7.859375 -2.4375 7.859375 -3.5 L 7.84375 -6.703125 C 7.84375 -7.347656 7.8125 -7.769531 7.75 -7.96875 C 7.6875 -8.164062 7.613281 -8.300781 7.53125 -8.375 C 7.445312 -8.445312 7.335938 -8.484375 7.203125 -8.484375 L 6.875 -8.453125 C 6.71875 -8.453125 6.640625 -8.515625 6.640625 -8.640625 C 6.640625 -8.804688 6.757812 -8.890625 7 -8.890625 C 7.238281 -8.890625 7.445312 -8.867188 7.625 -8.828125 C 7.8125 -8.796875 8.003906 -8.78125 8.203125 -8.78125 L 9.28125 -8.890625 C 9.5625 -8.890625 9.703125 -8.804688 9.703125 -8.640625 C 9.703125 -8.515625 9.625 -8.453125 9.46875 -8.453125 L 9.15625 -8.484375 C 8.882812 -8.484375 8.707031 -8.335938 8.625 -8.046875 C 8.539062 -7.785156 8.5 -7.335938 8.5 -6.703125 L 8.5 -3.171875 C 8.5 -2.191406 8.1875 -1.390625 7.5625 -0.765625 C 6.9375 -0.148438 6.101562 0.15625 5.0625 0.15625 C 3.9375 0.15625 3.046875 -0.148438 2.390625 -0.765625 C 1.722656 -1.421875 1.390625 -2.320312 1.390625 -3.46875 L 1.390625 -6.703125 C 1.390625 -7.335938 1.351562 -7.753906 1.28125 -7.953125 C 1.21875 -8.160156 1.140625 -8.300781 1.046875 -8.375 C 0.960938 -8.445312 0.851562 -8.484375 0.71875 -8.484375 L 0.390625 -8.453125 C 0.234375 -8.453125 0.15625 -8.515625 0.15625 -8.640625 C 0.15625 -8.804688 0.273438 -8.890625 0.515625 -8.890625 C 0.765625 -8.890625 1.003906 -8.867188 1.234375 -8.828125 C 1.460938 -8.796875 1.703125 -8.78125 1.953125 -8.78125 C 2.210938 -8.78125 2.460938 -8.796875 2.703125 -8.828125 C 2.941406 -8.867188 3.179688 -8.890625 3.421875 -8.890625 C 3.660156 -8.890625 3.78125 -8.804688 3.78125 -8.640625 C 3.78125 -8.515625 3.695312 -8.453125 3.53125 -8.453125 Z M 3.53125 -8.453125 "/></g></g><g transform="translate(160.811678, 267.268134)"><g><path d="M 0.875 0.09375 C 0.59375 0.09375 0.453125 0.015625 0.453125 -0.140625 C 0.453125 -0.265625 0.53125 -0.328125 0.6875 -0.328125 L 1 -0.296875 C 1.257812 -0.296875 1.4375 -0.441406 1.53125 -0.734375 C 1.601562 -0.984375 1.640625 -1.429688 1.640625 -2.078125 L 1.640625 -6.703125 C 1.640625 -7.347656 1.609375 -7.769531 1.546875 -7.96875 C 1.492188 -8.164062 1.421875 -8.300781 1.328125 -8.375 C 1.242188 -8.445312 1.132812 -8.484375 1 -8.484375 L 0.6875 -8.453125 C 0.53125 -8.453125 0.453125 -8.515625 0.453125 -8.640625 C 0.453125 -8.804688 0.570312 -8.890625 0.8125 -8.890625 C 1.050781 -8.890625 1.273438 -8.867188 1.484375 -8.828125 C 1.703125 -8.796875 1.929688 -8.78125 2.171875 -8.78125 C 2.398438 -8.78125 2.625 -8.796875 2.84375 -8.828125 C 3.0625 -8.867188 3.335938 -8.890625 3.671875 -8.890625 C 4.015625 -8.890625 4.378906 -8.832031 4.765625 -8.71875 C 5.160156 -8.613281 5.488281 -8.457031 5.75 -8.25 C 6.3125 -7.84375 6.59375 -7.296875 6.59375 -6.609375 C 6.59375 -5.847656 6.28125 -5.191406 5.65625 -4.640625 C 5.445312 -4.460938 5.222656 -4.3125 4.984375 -4.1875 L 7.109375 -1.09375 C 7.347656 -0.738281 7.613281 -0.523438 7.90625 -0.453125 C 7.988281 -0.429688 8.09375 -0.414062 8.21875 -0.40625 C 8.4375 -0.382812 8.546875 -0.3125 8.546875 -0.1875 C 8.546875 -0.0625 8.425781 0 8.1875 0 L 6.9375 0 C 6.632812 0 6.359375 -0.195312 6.109375 -0.59375 L 4.46875 -3.234375 C 4.3125 -3.460938 4.164062 -3.625 4.03125 -3.71875 C 3.894531 -3.820312 3.6875 -3.875 3.40625 -3.875 C 3.125 -3.875 2.878906 -3.867188 2.671875 -3.859375 L 2.671875 -2.078125 C 2.671875 -1.421875 2.695312 -0.992188 2.75 -0.796875 C 2.8125 -0.609375 2.882812 -0.476562 2.96875 -0.40625 C 3.0625 -0.332031 3.175781 -0.296875 3.3125 -0.296875 L 3.625 -0.328125 C 3.78125 -0.328125 3.859375 -0.265625 3.859375 -0.140625 C 3.859375 0.015625 3.722656 0.09375 3.453125 0.09375 C 3.304688 0.09375 3.148438 0.0820312 2.984375 0.0625 C 2.460938 -0.0195312 2.015625 -0.0351562 1.640625 0.015625 C 1.265625 0.0664062 1.007812 0.09375 0.875 0.09375 Z M 2.671875 -4.4375 C 2.953125 -4.40625 3.226562 -4.390625 3.5 -4.390625 L 3.90625 -4.390625 C 4.332031 -4.390625 4.691406 -4.53125 4.984375 -4.8125 C 5.316406 -5.15625 5.484375 -5.613281 5.484375 -6.1875 C 5.484375 -6.882812 5.273438 -7.4375 4.859375 -7.84375 C 4.460938 -8.226562 3.953125 -8.421875 3.328125 -8.421875 C 3.097656 -8.421875 2.929688 -8.390625 2.828125 -8.328125 C 2.722656 -8.273438 2.671875 -8.171875 2.671875 -8.015625 Z M 2.671875 -4.4375 "/></g></g><g transform="translate(169.340931, 267.268134)"><g><path d="M 2.875 0.09375 C 2.582031 0.09375 2.4375 0.015625 2.4375 -0.140625 C 2.4375 -0.265625 2.519531 -0.328125 2.6875 -0.328125 L 3 -0.296875 C 3.257812 -0.296875 3.4375 -0.441406 3.53125 -0.734375 C 3.601562 -0.984375 3.640625 -1.429688 3.640625 -2.078125 L 3.640625 -4.375 L 1.578125 -7.421875 C 1.296875 -7.828125 1.097656 -8.082031 0.984375 -8.1875 C 0.804688 -8.34375 0.617188 -8.421875 0.421875 -8.421875 C 0.222656 -8.421875 0.125 -8.5 0.125 -8.65625 C 0.125 -8.71875 0.160156 -8.769531 0.234375 -8.8125 C 0.304688 -8.863281 0.414062 -8.890625 0.5625 -8.890625 C 0.71875 -8.890625 0.878906 -8.867188 1.046875 -8.828125 C 1.210938 -8.796875 1.394531 -8.78125 1.59375 -8.78125 L 2.65625 -8.890625 C 2.9375 -8.890625 3.078125 -8.816406 3.078125 -8.671875 C 3.078125 -8.523438 2.957031 -8.453125 2.71875 -8.453125 C 2.476562 -8.453125 2.359375 -8.375 2.359375 -8.21875 C 2.359375 -8.132812 2.4375 -7.96875 2.59375 -7.71875 L 4.390625 -4.984375 L 5.78125 -7.1875 C 6.070312 -7.625 6.226562 -7.890625 6.25 -7.984375 C 6.269531 -8.078125 6.28125 -8.140625 6.28125 -8.171875 C 6.28125 -8.359375 6.140625 -8.453125 5.859375 -8.453125 C 5.585938 -8.453125 5.453125 -8.523438 5.453125 -8.671875 C 5.453125 -8.816406 5.597656 -8.890625 5.890625 -8.890625 C 6.035156 -8.890625 6.179688 -8.867188 6.328125 -8.828125 C 6.484375 -8.796875 6.640625 -8.78125 6.796875 -8.78125 C 6.953125 -8.78125 7.097656 -8.796875 7.234375 -8.828125 C 7.367188 -8.867188 7.515625 -8.890625 7.671875 -8.890625 C 7.972656 -8.890625 8.125 -8.8125 8.125 -8.65625 C 8.125 -8.5 8.019531 -8.421875 7.8125 -8.421875 C 7.601562 -8.421875 7.4375 -8.363281 7.3125 -8.25 C 7.113281 -8.082031 6.859375 -7.757812 6.546875 -7.28125 L 4.671875 -4.46875 L 4.671875 -2.078125 C 4.671875 -1.421875 4.695312 -0.992188 4.75 -0.796875 C 4.8125 -0.609375 4.882812 -0.476562 4.96875 -0.40625 C 5.0625 -0.332031 5.175781 -0.296875 5.3125 -0.296875 L 5.625 -0.328125 C 5.78125 -0.328125 5.859375 -0.265625 5.859375 -0.140625 C 5.859375 0.015625 5.722656 0.09375 5.453125 0.09375 C 5.304688 0.09375 5.148438 0.0820312 4.984375 0.0625 C 4.460938 -0.0195312 4.015625 -0.0351562 3.640625 0.015625 C 3.265625 0.0664062 3.007812 0.09375 2.875 0.09375 Z M 2.875 0.09375 "/></g></g><g transform="translate(177.595047, 267.268134)"><g/></g><g transform="translate(181.034262, 267.268134)"><g><path d="M 0.953125 0.09375 C 0.671875 0.09375 0.53125 0.015625 0.53125 -0.140625 C 0.53125 -0.265625 0.609375 -0.328125 0.765625 -0.328125 L 1.09375 -0.296875 C 1.320312 -0.296875 1.484375 -0.410156 1.578125 -0.640625 C 1.679688 -0.890625 1.734375 -1.367188 1.734375 -2.078125 L 1.703125 -6.703125 C 1.703125 -7.421875 1.660156 -7.875 1.578125 -8.0625 C 1.503906 -8.25 1.425781 -8.363281 1.34375 -8.40625 C 1.257812 -8.457031 1.164062 -8.484375 1.0625 -8.484375 L 0.734375 -8.453125 C 0.578125 -8.453125 0.5 -8.515625 0.5 -8.640625 C 0.5 -8.804688 0.617188 -8.890625 0.859375 -8.890625 C 1.097656 -8.890625 1.328125 -8.867188 1.546875 -8.828125 C 1.765625 -8.796875 1.988281 -8.78125 2.21875 -8.78125 C 2.457031 -8.78125 2.679688 -8.796875 2.890625 -8.828125 C 3.109375 -8.867188 3.335938 -8.890625 3.578125 -8.890625 C 3.816406 -8.890625 3.9375 -8.804688 3.9375 -8.640625 C 3.9375 -8.515625 3.859375 -8.453125 3.703125 -8.453125 L 3.375 -8.484375 C 3.144531 -8.484375 2.984375 -8.367188 2.890625 -8.140625 C 2.785156 -7.890625 2.734375 -7.410156 2.734375 -6.703125 L 2.765625 -2.078125 C 2.765625 -1.367188 2.804688 -0.921875 2.890625 -0.734375 C 2.984375 -0.546875 3.070312 -0.425781 3.15625 -0.375 C 3.25 -0.320312 3.347656 -0.296875 3.453125 -0.296875 L 3.78125 -0.328125 C 3.9375 -0.328125 4.015625 -0.265625 4.015625 -0.140625 C 4.015625 0.015625 3.875 0.09375 3.59375 0.09375 C 3.445312 0.09375 3.289062 0.0820312 3.125 0.0625 C 2.582031 -0.03125 2.117188 -0.0507812 1.734375 0 C 1.359375 0.0625 1.097656 0.09375 0.953125 0.09375 Z M 0.953125 0.09375 "/></g></g><g transform="translate(185.475762, 267.268134)"><g><path d="M 0.890625 0.09375 C 0.609375 0.09375 0.46875 0.015625 0.46875 -0.140625 C 0.46875 -0.265625 0.546875 -0.328125 0.703125 -0.328125 L 1.015625 -0.296875 C 1.285156 -0.296875 1.460938 -0.441406 1.546875 -0.734375 C 1.628906 -0.984375 1.671875 -1.429688 1.671875 -2.078125 L 1.671875 -6.6875 C 1.671875 -7.332031 1.640625 -7.753906 1.578125 -7.953125 C 1.515625 -8.148438 1.4375 -8.28125 1.34375 -8.34375 C 1.257812 -8.414062 1.148438 -8.453125 1.015625 -8.453125 L 0.703125 -8.421875 C 0.546875 -8.421875 0.46875 -8.488281 0.46875 -8.625 C 0.46875 -8.789062 0.609375 -8.875 0.890625 -8.875 L 1.75 -8.78125 C 1.9375 -8.78125 2.097656 -8.796875 2.234375 -8.828125 L 8.28125 -1.796875 L 8.28125 -6.703125 C 8.28125 -7.335938 8.242188 -7.753906 8.171875 -7.953125 C 8.109375 -8.160156 8.03125 -8.300781 7.9375 -8.375 C 7.851562 -8.445312 7.742188 -8.484375 7.609375 -8.484375 L 7.28125 -8.453125 C 7.125 -8.453125 7.046875 -8.515625 7.046875 -8.640625 C 7.046875 -8.804688 7.1875 -8.890625 7.46875 -8.890625 C 7.582031 -8.890625 7.726562 -8.875 7.90625 -8.84375 C 8.132812 -8.800781 8.34375 -8.78125 8.53125 -8.78125 C 8.726562 -8.78125 8.914062 -8.796875 9.09375 -8.828125 C 9.269531 -8.867188 9.476562 -8.890625 9.71875 -8.890625 C 9.957031 -8.890625 10.078125 -8.804688 10.078125 -8.640625 C 10.078125 -8.515625 10 -8.453125 9.84375 -8.453125 L 9.515625 -8.484375 C 9.253906 -8.484375 9.078125 -8.335938 8.984375 -8.046875 C 8.910156 -7.804688 8.875 -7.359375 8.875 -6.703125 L 8.875 -0.078125 C 8.875 0.0664062 8.859375 0.160156 8.828125 0.203125 C 8.804688 0.253906 8.769531 0.28125 8.71875 0.28125 C 8.632812 0.28125 8.507812 0.1875 8.34375 0 L 2.296875 -7 L 2.296875 -2.078125 C 2.296875 -1.421875 2.328125 -0.992188 2.390625 -0.796875 C 2.453125 -0.609375 2.523438 -0.476562 2.609375 -0.40625 C 2.691406 -0.332031 2.800781 -0.296875 2.9375 -0.296875 L 3.25 -0.328125 C 3.414062 -0.328125 3.5 -0.265625 3.5 -0.140625 C 3.5 0.015625 3.367188 0.09375 3.109375 0.09375 C 2.859375 0.09375 2.632812 0.078125 2.4375 0.046875 C 2.25 0.015625 2.0625 0 1.875 0 C 1.695312 0 1.519531 0.015625 1.34375 0.046875 C 1.164062 0.078125 1.015625 0.09375 0.890625 0.09375 Z M 0.890625 0.09375 "/></g></g><g transform="translate(195.662389, 267.268134)"><g><path d="M 2.6875 0.09375 C 2.40625 0.09375 2.265625 0.015625 2.265625 -0.140625 C 2.265625 -0.265625 2.34375 -0.328125 2.5 -0.328125 L 2.8125 -0.296875 C 3.082031 -0.296875 3.257812 -0.441406 3.34375 -0.734375 C 3.414062 -0.984375 3.453125 -1.429688 3.453125 -2.078125 L 3.453125 -8.203125 L 3.28125 -8.203125 C 2.519531 -8.203125 1.910156 -8.125 1.453125 -7.96875 C 1.140625 -7.851562 0.925781 -7.660156 0.8125 -7.390625 C 0.726562 -7.179688 0.640625 -7.078125 0.546875 -7.078125 C 0.421875 -7.078125 0.359375 -7.15625 0.359375 -7.3125 C 0.359375 -7.351562 0.367188 -7.398438 0.390625 -7.453125 C 0.410156 -7.515625 0.429688 -7.582031 0.453125 -7.65625 C 0.523438 -7.863281 0.566406 -8.082031 0.578125 -8.3125 C 0.597656 -8.539062 0.625 -8.691406 0.65625 -8.765625 C 0.695312 -8.847656 0.75 -8.890625 0.8125 -8.890625 C 0.875 -8.890625 0.929688 -8.882812 0.984375 -8.875 C 1.035156 -8.863281 1.113281 -8.847656 1.21875 -8.828125 C 1.476562 -8.796875 1.804688 -8.78125 2.203125 -8.78125 L 6.359375 -8.78125 C 6.679688 -8.78125 6.914062 -8.796875 7.0625 -8.828125 C 7.207031 -8.867188 7.316406 -8.890625 7.390625 -8.890625 C 7.535156 -8.890625 7.609375 -8.820312 7.609375 -8.6875 C 7.609375 -8.613281 7.59375 -8.53125 7.5625 -8.4375 C 7.5 -8.21875 7.457031 -8.03125 7.4375 -7.875 C 7.414062 -7.71875 7.394531 -7.59375 7.375 -7.5 C 7.363281 -7.40625 7.347656 -7.328125 7.328125 -7.265625 C 7.285156 -7.171875 7.226562 -7.125 7.15625 -7.125 C 7.09375 -7.125 7.050781 -7.148438 7.03125 -7.203125 C 7.007812 -7.253906 6.988281 -7.347656 6.96875 -7.484375 C 6.945312 -7.628906 6.910156 -7.75 6.859375 -7.84375 C 6.804688 -7.9375 6.734375 -8.007812 6.640625 -8.0625 C 6.492188 -8.15625 6.242188 -8.203125 5.890625 -8.203125 L 4.484375 -8.203125 L 4.484375 -2.078125 C 4.484375 -1.421875 4.515625 -0.992188 4.578125 -0.796875 C 4.640625 -0.609375 4.710938 -0.476562 4.796875 -0.40625 C 4.878906 -0.332031 4.988281 -0.296875 5.125 -0.296875 L 5.453125 -0.328125 C 5.609375 -0.328125 5.6875 -0.265625 5.6875 -0.140625 C 5.6875 0.015625 5.546875 0.09375 5.265625 0.09375 C 5.117188 0.09375 4.960938 0.0820312 4.796875 0.0625 C 4.273438 -0.0195312 3.828125 -0.0351562 3.453125 0.015625 C 3.078125 0.0664062 2.820312 0.09375 2.6875 0.09375 Z M 2.6875 0.09375 "/></g></g><g transform="translate(203.621716, 267.268134)"><g><path d="M 0.78125 0.09375 C 0.539062 0.09375 0.421875 0.015625 0.421875 -0.140625 C 0.421875 -0.265625 0.5 -0.328125 0.65625 -0.328125 L 0.984375 -0.296875 C 1.222656 -0.296875 1.390625 -0.398438 1.484375 -0.609375 C 1.578125 -0.847656 1.625 -1.332031 1.625 -2.0625 L 1.625 -6.703125 C 1.625 -7.421875 1.585938 -7.875 1.515625 -8.0625 C 1.453125 -8.25 1.378906 -8.363281 1.296875 -8.40625 C 1.210938 -8.457031 1.109375 -8.484375 0.984375 -8.484375 L 0.65625 -8.453125 C 0.5 -8.453125 0.421875 -8.515625 0.421875 -8.640625 C 0.421875 -8.804688 0.535156 -8.890625 0.765625 -8.890625 C 1.003906 -8.890625 1.195312 -8.882812 1.34375 -8.875 C 1.5 -8.863281 1.65625 -8.847656 1.8125 -8.828125 C 2.21875 -8.796875 2.535156 -8.78125 2.765625 -8.78125 C 3.003906 -8.78125 3.253906 -8.785156 3.515625 -8.796875 C 3.773438 -8.804688 4.066406 -8.816406 4.390625 -8.828125 C 5.242188 -8.867188 5.832031 -8.890625 6.15625 -8.890625 C 6.488281 -8.890625 6.671875 -8.867188 6.703125 -8.828125 C 6.742188 -8.785156 6.765625 -8.726562 6.765625 -8.65625 C 6.765625 -8.59375 6.765625 -8.53125 6.765625 -8.46875 C 6.765625 -8.40625 6.757812 -8.335938 6.75 -8.265625 C 6.75 -8.171875 6.738281 -8.023438 6.71875 -7.828125 C 6.695312 -7.628906 6.671875 -7.492188 6.640625 -7.421875 C 6.609375 -7.359375 6.5625 -7.328125 6.5 -7.328125 C 6.445312 -7.328125 6.410156 -7.335938 6.390625 -7.359375 C 6.367188 -7.390625 6.335938 -7.457031 6.296875 -7.5625 C 6.265625 -7.664062 6.203125 -7.765625 6.109375 -7.859375 C 6.015625 -7.953125 5.863281 -8.03125 5.65625 -8.09375 C 5.269531 -8.207031 4.546875 -8.265625 3.484375 -8.265625 L 2.890625 -8.265625 C 2.785156 -8.265625 2.71875 -8.25 2.6875 -8.21875 C 2.664062 -8.1875 2.65625 -8.117188 2.65625 -8.015625 L 2.65625 -5.25 C 3.175781 -5.1875 3.609375 -5.15625 3.953125 -5.15625 C 4.296875 -5.15625 4.539062 -5.15625 4.6875 -5.15625 C 4.832031 -5.164062 4.953125 -5.179688 5.046875 -5.203125 C 5.210938 -5.234375 5.332031 -5.3125 5.40625 -5.4375 C 5.5625 -5.664062 5.6875 -5.78125 5.78125 -5.78125 C 5.894531 -5.78125 5.953125 -5.71875 5.953125 -5.59375 L 5.71875 -4.671875 L 5.75 -4.171875 C 5.75 -3.859375 5.675781 -3.703125 5.53125 -3.703125 C 5.394531 -3.703125 5.328125 -3.785156 5.328125 -3.953125 C 5.328125 -4.117188 5.316406 -4.242188 5.296875 -4.328125 C 5.285156 -4.410156 5.234375 -4.472656 5.140625 -4.515625 C 4.992188 -4.585938 4.648438 -4.625 4.109375 -4.625 C 3.566406 -4.625 3.082031 -4.601562 2.65625 -4.5625 L 2.65625 -3 C 2.65625 -2.03125 2.675781 -1.234375 2.71875 -0.609375 C 3.070312 -0.523438 3.457031 -0.484375 3.875 -0.484375 C 4.289062 -0.484375 4.644531 -0.492188 4.9375 -0.515625 C 5.226562 -0.546875 5.484375 -0.59375 5.703125 -0.65625 C 6.128906 -0.78125 6.441406 -1.023438 6.640625 -1.390625 C 6.722656 -1.546875 6.804688 -1.625 6.890625 -1.625 C 6.984375 -1.625 7.03125 -1.554688 7.03125 -1.421875 C 7.03125 -1.367188 7.015625 -1.300781 6.984375 -1.21875 C 6.953125 -1.113281 6.898438 -0.945312 6.828125 -0.71875 C 6.765625 -0.488281 6.710938 -0.320312 6.671875 -0.21875 C 6.640625 -0.125 6.601562 -0.0507812 6.5625 0 C 6.5 0.0820312 6.367188 0.125 6.171875 0.125 C 5.984375 0.125 5.800781 0.125 5.625 0.125 C 5.445312 0.125 5.257812 0.125 5.0625 0.125 C 4.832031 0.113281 4.476562 0.09375 4 0.0625 C 2.8125 0.0078125 2.113281 -0.0078125 1.90625 0 C 1.707031 0.0195312 1.554688 0.0351562 1.453125 0.046875 C 1.347656 0.0546875 1.242188 0.0664062 1.140625 0.078125 C 1.035156 0.0859375 0.914062 0.09375 0.78125 0.09375 Z M 0.78125 0.09375 "/></g></g><g transform="translate(211.174887, 267.268134)"><g><path d="M 0.875 0.09375 C 0.59375 0.09375 0.453125 0.015625 0.453125 -0.140625 C 0.453125 -0.265625 0.53125 -0.328125 0.6875 -0.328125 L 1 -0.296875 C 1.257812 -0.296875 1.4375 -0.441406 1.53125 -0.734375 C 1.601562 -0.984375 1.640625 -1.429688 1.640625 -2.078125 L 1.640625 -6.703125 C 1.640625 -7.347656 1.609375 -7.769531 1.546875 -7.96875 C 1.492188 -8.164062 1.421875 -8.300781 1.328125 -8.375 C 1.242188 -8.445312 1.132812 -8.484375 1 -8.484375 L 0.6875 -8.453125 C 0.53125 -8.453125 0.453125 -8.515625 0.453125 -8.640625 C 0.453125 -8.804688 0.570312 -8.890625 0.8125 -8.890625 C 1.050781 -8.890625 1.273438 -8.867188 1.484375 -8.828125 C 1.703125 -8.796875 1.929688 -8.78125 2.171875 -8.78125 C 2.398438 -8.78125 2.625 -8.796875 2.84375 -8.828125 C 3.0625 -8.867188 3.335938 -8.890625 3.671875 -8.890625 C 4.015625 -8.890625 4.378906 -8.832031 4.765625 -8.71875 C 5.160156 -8.613281 5.488281 -8.457031 5.75 -8.25 C 6.3125 -7.84375 6.59375 -7.296875 6.59375 -6.609375 C 6.59375 -5.847656 6.28125 -5.191406 5.65625 -4.640625 C 5.445312 -4.460938 5.222656 -4.3125 4.984375 -4.1875 L 7.109375 -1.09375 C 7.347656 -0.738281 7.613281 -0.523438 7.90625 -0.453125 C 7.988281 -0.429688 8.09375 -0.414062 8.21875 -0.40625 C 8.4375 -0.382812 8.546875 -0.3125 8.546875 -0.1875 C 8.546875 -0.0625 8.425781 0 8.1875 0 L 6.9375 0 C 6.632812 0 6.359375 -0.195312 6.109375 -0.59375 L 4.46875 -3.234375 C 4.3125 -3.460938 4.164062 -3.625 4.03125 -3.71875 C 3.894531 -3.820312 3.6875 -3.875 3.40625 -3.875 C 3.125 -3.875 2.878906 -3.867188 2.671875 -3.859375 L 2.671875 -2.078125 C 2.671875 -1.421875 2.695312 -0.992188 2.75 -0.796875 C 2.8125 -0.609375 2.882812 -0.476562 2.96875 -0.40625 C 3.0625 -0.332031 3.175781 -0.296875 3.3125 -0.296875 L 3.625 -0.328125 C 3.78125 -0.328125 3.859375 -0.265625 3.859375 -0.140625 C 3.859375 0.015625 3.722656 0.09375 3.453125 0.09375 C 3.304688 0.09375 3.148438 0.0820312 2.984375 0.0625 C 2.460938 -0.0195312 2.015625 -0.0351562 1.640625 0.015625 C 1.265625 0.0664062 1.007812 0.09375 0.875 0.09375 Z M 2.671875 -4.4375 C 2.953125 -4.40625 3.226562 -4.390625 3.5 -4.390625 L 3.90625 -4.390625 C 4.332031 -4.390625 4.691406 -4.53125 4.984375 -4.8125 C 5.316406 -5.15625 5.484375 -5.613281 5.484375 -6.1875 C 5.484375 -6.882812 5.273438 -7.4375 4.859375 -7.84375 C 4.460938 -8.226562 3.953125 -8.421875 3.328125 -8.421875 C 3.097656 -8.421875 2.929688 -8.390625 2.828125 -8.328125 C 2.722656 -8.273438 2.671875 -8.171875 2.671875 -8.015625 Z M 2.671875 -4.4375 "/></g></g><g transform="translate(219.70414, 267.268134)"><g><path d="M 0.953125 0.09375 C 0.671875 0.09375 0.53125 0.015625 0.53125 -0.140625 C 0.53125 -0.265625 0.609375 -0.328125 0.765625 -0.328125 L 1.09375 -0.296875 C 1.320312 -0.296875 1.484375 -0.410156 1.578125 -0.640625 C 1.679688 -0.890625 1.734375 -1.367188 1.734375 -2.078125 L 1.703125 -6.703125 C 1.703125 -7.421875 1.660156 -7.875 1.578125 -8.0625 C 1.503906 -8.25 1.425781 -8.363281 1.34375 -8.40625 C 1.257812 -8.457031 1.164062 -8.484375 1.0625 -8.484375 L 0.734375 -8.453125 C 0.578125 -8.453125 0.5 -8.515625 0.5 -8.640625 C 0.5 -8.804688 0.617188 -8.890625 0.859375 -8.890625 C 1.097656 -8.890625 1.328125 -8.867188 1.546875 -8.828125 C 1.765625 -8.796875 1.988281 -8.78125 2.21875 -8.78125 C 2.457031 -8.78125 2.679688 -8.796875 2.890625 -8.828125 C 3.109375 -8.867188 3.335938 -8.890625 3.578125 -8.890625 C 3.816406 -8.890625 3.9375 -8.804688 3.9375 -8.640625 C 3.9375 -8.515625 3.859375 -8.453125 3.703125 -8.453125 L 3.375 -8.484375 C 3.144531 -8.484375 2.984375 -8.367188 2.890625 -8.140625 C 2.785156 -7.890625 2.734375 -7.410156 2.734375 -6.703125 L 2.765625 -2.078125 C 2.765625 -1.367188 2.804688 -0.921875 2.890625 -0.734375 C 2.984375 -0.546875 3.070312 -0.425781 3.15625 -0.375 C 3.25 -0.320312 3.347656 -0.296875 3.453125 -0.296875 L 3.78125 -0.328125 C 3.9375 -0.328125 4.015625 -0.265625 4.015625 -0.140625 C 4.015625 0.015625 3.875 0.09375 3.59375 0.09375 C 3.445312 0.09375 3.289062 0.0820312 3.125 0.0625 C 2.582031 -0.03125 2.117188 -0.0507812 1.734375 0 C 1.359375 0.0625 1.097656 0.09375 0.953125 0.09375 Z M 0.953125 0.09375 "/></g></g><g transform="translate(224.14564, 267.268134)"><g><path d="M 0.65625 -4.4375 C 0.65625 -5.09375 0.773438 -5.695312 1.015625 -6.25 C 1.265625 -6.800781 1.597656 -7.273438 2.015625 -7.671875 C 2.441406 -8.078125 2.929688 -8.390625 3.484375 -8.609375 C 4.046875 -8.835938 4.644531 -8.953125 5.28125 -8.953125 C 5.925781 -8.953125 6.523438 -8.832031 7.078125 -8.59375 C 7.628906 -8.363281 8.101562 -8.039062 8.5 -7.625 C 9.320312 -6.757812 9.734375 -5.65625 9.734375 -4.3125 C 9.734375 -3.050781 9.304688 -1.992188 8.453125 -1.140625 C 7.585938 -0.273438 6.484375 0.15625 5.140625 0.15625 C 3.828125 0.15625 2.75 -0.28125 1.90625 -1.15625 C 1.070312 -2.019531 0.65625 -3.113281 0.65625 -4.4375 Z M 1.78125 -4.8125 C 1.78125 -4.238281 1.867188 -3.675781 2.046875 -3.125 C 2.234375 -2.582031 2.5 -2.109375 2.84375 -1.703125 C 3.570312 -0.816406 4.492188 -0.375 5.609375 -0.375 C 6.472656 -0.375 7.179688 -0.695312 7.734375 -1.34375 C 8.296875 -2.007812 8.578125 -2.882812 8.578125 -3.96875 C 8.578125 -5.25 8.234375 -6.3125 7.546875 -7.15625 C 6.867188 -7.988281 6.007812 -8.40625 4.96875 -8.40625 C 4.101562 -8.40625 3.359375 -8.078125 2.734375 -7.421875 C 2.097656 -6.734375 1.78125 -5.863281 1.78125 -4.8125 Z M 1.78125 -4.8125 "/></g></g><g transform="translate(234.528794, 267.268134)"><g><path d="M 0.875 0.09375 C 0.59375 0.09375 0.453125 0.015625 0.453125 -0.140625 C 0.453125 -0.265625 0.53125 -0.328125 0.6875 -0.328125 L 1 -0.296875 C 1.257812 -0.296875 1.4375 -0.441406 1.53125 -0.734375 C 1.601562 -0.984375 1.640625 -1.429688 1.640625 -2.078125 L 1.640625 -6.703125 C 1.640625 -7.347656 1.609375 -7.769531 1.546875 -7.96875 C 1.492188 -8.164062 1.421875 -8.300781 1.328125 -8.375 C 1.242188 -8.445312 1.132812 -8.484375 1 -8.484375 L 0.6875 -8.453125 C 0.53125 -8.453125 0.453125 -8.515625 0.453125 -8.640625 C 0.453125 -8.804688 0.570312 -8.890625 0.8125 -8.890625 C 1.050781 -8.890625 1.273438 -8.867188 1.484375 -8.828125 C 1.703125 -8.796875 1.929688 -8.78125 2.171875 -8.78125 C 2.398438 -8.78125 2.625 -8.796875 2.84375 -8.828125 C 3.0625 -8.867188 3.335938 -8.890625 3.671875 -8.890625 C 4.015625 -8.890625 4.378906 -8.832031 4.765625 -8.71875 C 5.160156 -8.613281 5.488281 -8.457031 5.75 -8.25 C 6.3125 -7.84375 6.59375 -7.296875 6.59375 -6.609375 C 6.59375 -5.847656 6.28125 -5.191406 5.65625 -4.640625 C 5.445312 -4.460938 5.222656 -4.3125 4.984375 -4.1875 L 7.109375 -1.09375 C 7.347656 -0.738281 7.613281 -0.523438 7.90625 -0.453125 C 7.988281 -0.429688 8.09375 -0.414062 8.21875 -0.40625 C 8.4375 -0.382812 8.546875 -0.3125 8.546875 -0.1875 C 8.546875 -0.0625 8.425781 0 8.1875 0 L 6.9375 0 C 6.632812 0 6.359375 -0.195312 6.109375 -0.59375 L 4.46875 -3.234375 C 4.3125 -3.460938 4.164062 -3.625 4.03125 -3.71875 C 3.894531 -3.820312 3.6875 -3.875 3.40625 -3.875 C 3.125 -3.875 2.878906 -3.867188 2.671875 -3.859375 L 2.671875 -2.078125 C 2.671875 -1.421875 2.695312 -0.992188 2.75 -0.796875 C 2.8125 -0.609375 2.882812 -0.476562 2.96875 -0.40625 C 3.0625 -0.332031 3.175781 -0.296875 3.3125 -0.296875 L 3.625 -0.328125 C 3.78125 -0.328125 3.859375 -0.265625 3.859375 -0.140625 C 3.859375 0.015625 3.722656 0.09375 3.453125 0.09375 C 3.304688 0.09375 3.148438 0.0820312 2.984375 0.0625 C 2.460938 -0.0195312 2.015625 -0.0351562 1.640625 0.015625 C 1.265625 0.0664062 1.007812 0.09375 0.875 0.09375 Z M 2.671875 -4.4375 C 2.953125 -4.40625 3.226562 -4.390625 3.5 -4.390625 L 3.90625 -4.390625 C 4.332031 -4.390625 4.691406 -4.53125 4.984375 -4.8125 C 5.316406 -5.15625 5.484375 -5.613281 5.484375 -6.1875 C 5.484375 -6.882812 5.273438 -7.4375 4.859375 -7.84375 C 4.460938 -8.226562 3.953125 -8.421875 3.328125 -8.421875 C 3.097656 -8.421875 2.929688 -8.390625 2.828125 -8.328125 C 2.722656 -8.273438 2.671875 -8.171875 2.671875 -8.015625 Z M 2.671875 -4.4375 "/></g></g><g transform="translate(243.058047, 267.268134)"><g><path d="M 5.09375 -8.6875 L 5.375 -8.71875 C 5.488281 -8.71875 5.550781 -8.617188 5.5625 -8.421875 C 5.582031 -8.222656 5.601562 -8.0625 5.625 -7.9375 C 5.644531 -7.8125 5.664062 -7.695312 5.6875 -7.59375 C 5.707031 -7.488281 5.722656 -7.398438 5.734375 -7.328125 C 5.753906 -7.265625 5.765625 -7.207031 5.765625 -7.15625 C 5.765625 -7.113281 5.738281 -7.070312 5.6875 -7.03125 C 5.632812 -6.988281 5.582031 -6.96875 5.53125 -6.96875 C 5.425781 -6.96875 5.328125 -7.078125 5.234375 -7.296875 C 5.054688 -7.703125 4.90625 -7.960938 4.78125 -8.078125 C 4.5 -8.328125 4.082031 -8.453125 3.53125 -8.453125 C 2.757812 -8.453125 2.242188 -8.222656 1.984375 -7.765625 C 1.898438 -7.617188 1.859375 -7.4375 1.859375 -7.21875 C 1.859375 -7.007812 1.90625 -6.8125 2 -6.625 C 2.101562 -6.4375 2.257812 -6.25 2.46875 -6.0625 C 2.6875 -5.875 2.957031 -5.671875 3.28125 -5.453125 C 3.613281 -5.234375 3.96875 -4.992188 4.34375 -4.734375 C 4.71875 -4.472656 5.007812 -4.238281 5.21875 -4.03125 C 5.425781 -3.820312 5.597656 -3.617188 5.734375 -3.421875 C 5.984375 -3.023438 6.109375 -2.644531 6.109375 -2.28125 C 6.109375 -1.914062 6.054688 -1.585938 5.953125 -1.296875 C 5.847656 -1.015625 5.675781 -0.765625 5.4375 -0.546875 C 4.925781 -0.078125 4.171875 0.15625 3.171875 0.15625 C 2.660156 0.15625 2.101562 0.046875 1.5 -0.171875 C 1.351562 -0.222656 1.265625 -0.273438 1.234375 -0.328125 C 1.191406 -0.410156 1.15625 -0.550781 1.125 -0.75 C 1.09375 -0.957031 1.054688 -1.144531 1.015625 -1.3125 C 0.972656 -1.476562 0.9375 -1.625 0.90625 -1.75 L 0.8125 -2.09375 C 0.78125 -2.195312 0.765625 -2.28125 0.765625 -2.34375 C 0.765625 -2.5 0.828125 -2.578125 0.953125 -2.578125 C 1.109375 -2.578125 1.222656 -2.457031 1.296875 -2.21875 C 1.410156 -1.789062 1.519531 -1.515625 1.625 -1.390625 C 1.988281 -0.898438 2.414062 -0.582031 2.90625 -0.4375 C 3.050781 -0.382812 3.242188 -0.359375 3.484375 -0.359375 C 3.734375 -0.359375 3.972656 -0.394531 4.203125 -0.46875 C 4.441406 -0.539062 4.632812 -0.640625 4.78125 -0.765625 C 5.070312 -1.003906 5.21875 -1.289062 5.21875 -1.625 C 5.21875 -1.96875 5.109375 -2.273438 4.890625 -2.546875 C 4.671875 -2.816406 4.410156 -3.050781 4.109375 -3.25 C 3.804688 -3.457031 3.578125 -3.609375 3.421875 -3.703125 C 3.273438 -3.804688 3.140625 -3.898438 3.015625 -3.984375 C 1.898438 -4.722656 1.242188 -5.457031 1.046875 -6.1875 C 0.992188 -6.375 0.96875 -6.59375 0.96875 -6.84375 C 0.96875 -7.09375 1.03125 -7.347656 1.15625 -7.609375 C 1.28125 -7.878906 1.453125 -8.109375 1.671875 -8.296875 C 2.179688 -8.734375 2.832031 -8.953125 3.625 -8.953125 C 3.988281 -8.953125 4.28125 -8.910156 4.5 -8.828125 C 4.800781 -8.734375 5 -8.6875 5.09375 -8.6875 Z M 5.09375 -8.6875 "/></g></g></g></svg>