<svg xmlns="http://www.w3.org/2000/svg" xmlns:xlink="http://www.w3.org/1999/xlink" width="500" zoomAndPan="magnify" viewBox="0 0 375 374.999991" height="500" preserveAspectRatio="xMidYMid meet" version="1.0"><defs><g/><clipPath id="440a9ef7d5"><path d="M 262 161 L 296 161 L 296 173.933594 L 262 173.933594 Z M 262 161 " clip-rule="nonzero"/></clipPath><clipPath id="d31d2f57f2"><path d="M 132 132.683594 L 296.574219 132.683594 L 296.574219 173.933594 L 132 173.933594 Z M 132 132.683594 " clip-rule="nonzero"/></clipPath><clipPath id="d137ee2eae"><path d="M 75.324219 142 L 181 142 L 181 151 L 75.324219 151 Z M 75.324219 142 " clip-rule="nonzero"/></clipPath></defs><rect x="-37.5" width="450" fill="#ffffff" y="-37.499999" height="449.999989" fill-opacity="1"/><rect x="-37.5" width="450" fill="#000000" y="-37.499999" height="449.999989" fill-opacity="1"/><g clip-path="url(#440a9ef7d5)"><path fill="#ffffff" d="M 295.820312 174.058594 C 295.558594 173.3125 295.238281 172.597656 294.847656 171.910156 C 294.75 171.742188 294.65625 171.5625 294.546875 171.398438 L 294.226562 170.898438 C 294 170.570312 293.769531 170.246094 293.523438 169.933594 C 292.523438 168.667969 291.375 167.554688 290.085938 166.589844 C 287.457031 164.652344 284.550781 163.332031 281.363281 162.625 C 280.972656 162.53125 280.574219 162.464844 280.179688 162.386719 C 279.984375 162.351562 279.785156 162.320312 279.585938 162.289062 C 279.390625 162.253906 279.191406 162.222656 278.992188 162.199219 L 278.394531 162.128906 L 277.796875 162.074219 C 277.398438 162.035156 276.996094 162.019531 276.597656 162 C 275.796875 161.980469 274.996094 161.96875 274.199219 162.023438 C 274 162.03125 273.800781 162.042969 273.601562 162.058594 C 273.402344 162.078125 273.207031 162.089844 273.007812 162.109375 C 272.609375 162.15625 272.214844 162.199219 271.820312 162.261719 C 271.03125 162.375 270.25 162.53125 269.480469 162.726562 C 269.09375 162.820312 268.710938 162.929688 268.332031 163.042969 C 267.953125 163.164062 267.578125 163.28125 267.203125 163.417969 C 265.714844 163.949219 264.3125 164.652344 262.992188 165.523438 C 263.746094 165.304688 264.496094 165.105469 265.242188 164.929688 C 265.988281 164.746094 266.738281 164.597656 267.484375 164.46875 C 268.234375 164.339844 268.984375 164.238281 269.734375 164.160156 C 270.109375 164.117188 270.488281 164.085938 270.859375 164.054688 C 271.238281 164.035156 271.613281 164.007812 271.988281 163.996094 C 273.484375 163.933594 274.976562 163.964844 276.46875 164.09375 C 277.210938 164.167969 277.949219 164.242188 278.683594 164.367188 C 278.867188 164.390625 279.050781 164.421875 279.234375 164.453125 C 279.417969 164.488281 279.597656 164.515625 279.78125 164.550781 C 280.144531 164.625 280.511719 164.695312 280.871094 164.785156 C 283.789062 165.429688 286.539062 166.511719 289.113281 168.027344 C 291.757812 169.585938 293.992188 171.59375 295.820312 174.058594 Z M 295.820312 174.058594 " fill-opacity="1" fill-rule="nonzero"/></g><g clip-path="url(#d31d2f57f2)"><path fill="#ffffff" d="M 153.023438 137.664062 C 156.585938 136.632812 160.1875 135.730469 163.824219 134.957031 C 164.730469 134.753906 165.648438 134.585938 166.5625 134.417969 C 167.019531 134.335938 167.476562 134.246094 167.933594 134.164062 L 169.3125 133.945312 L 170.695312 133.726562 C 171.152344 133.65625 171.617188 133.605469 172.078125 133.539062 C 173.003906 133.425781 173.925781 133.285156 174.855469 133.203125 L 176.246094 133.066406 C 176.710938 133.019531 177.175781 132.96875 177.640625 132.941406 C 178.574219 132.878906 179.503906 132.808594 180.4375 132.757812 L 183.253906 132.683594 C 184.191406 132.691406 185.128906 132.714844 186.066406 132.726562 C 189.828125 132.863281 193.558594 133.300781 197.25 134.035156 C 200.933594 134.773438 204.546875 135.765625 208.09375 137.003906 C 211.621094 138.246094 215.078125 139.667969 218.460938 141.265625 C 219.300781 141.667969 220.148438 142.0625 220.976562 142.484375 C 221.804688 142.90625 222.648438 143.3125 223.46875 143.75 C 224.289062 144.183594 225.117188 144.609375 225.9375 145.050781 L 228.371094 146.378906 C 229.984375 147.261719 231.589844 148.117188 233.222656 148.859375 C 234.039062 149.234375 234.863281 149.574219 235.695312 149.878906 C 236.519531 150.183594 237.363281 150.449219 238.214844 150.667969 L 238.855469 150.828125 L 239.507812 150.964844 C 239.945312 151.0625 240.386719 151.132812 240.828125 151.214844 C 241.714844 151.359375 242.605469 151.492188 243.507812 151.59375 C 245.308594 151.800781 247.140625 151.945312 248.984375 152.09375 C 250.824219 152.246094 252.6875 152.402344 254.554688 152.65625 L 260.042969 153.496094 C 261.871094 153.769531 263.703125 154.050781 265.535156 154.363281 C 267.367188 154.675781 269.195312 155.011719 271.015625 155.414062 C 272.832031 155.816406 274.644531 156.265625 276.4375 156.789062 C 278.238281 157.308594 280.003906 157.917969 281.742188 158.617188 C 283.480469 159.324219 285.160156 160.15625 286.777344 161.113281 C 288.402344 162.070312 289.90625 163.191406 291.28125 164.484375 C 292.65625 165.777344 293.816406 167.238281 294.765625 168.871094 C 295.691406 170.496094 296.351562 172.226562 296.742188 174.058594 C 296.222656 172.28125 295.449219 170.621094 294.433594 169.074219 C 293.417969 167.546875 292.207031 166.195312 290.800781 165.015625 C 288.015625 162.671875 284.714844 161.019531 281.285156 159.804688 C 277.855469 158.570312 274.285156 157.730469 270.683594 157.078125 C 268.878906 156.753906 267.066406 156.464844 265.246094 156.210938 C 263.429688 155.949219 261.601562 155.722656 259.769531 155.496094 L 254.285156 154.8125 C 252.480469 154.613281 250.660156 154.484375 248.820312 154.375 C 246.980469 154.257812 245.121094 154.15625 243.25 153.960938 C 242.3125 153.871094 241.375 153.746094 240.4375 153.605469 C 239.96875 153.523438 239.5 153.457031 239.03125 153.359375 L 238.328125 153.21875 L 237.621094 153.054688 C 235.75 152.589844 233.941406 151.953125 232.1875 151.152344 C 230.453125 150.382812 228.789062 149.507812 227.152344 148.632812 L 224.714844 147.320312 C 223.910156 146.886719 223.089844 146.46875 222.28125 146.042969 C 221.46875 145.613281 220.644531 145.21875 219.828125 144.808594 C 219.011719 144.394531 218.179688 144.011719 217.351562 143.617188 C 214.054688 142.050781 210.683594 140.652344 207.242188 139.425781 C 203.8125 138.199219 200.316406 137.207031 196.753906 136.449219 C 193.195312 135.695312 189.597656 135.21875 185.964844 135.019531 C 185.058594 134.988281 184.152344 134.945312 183.242188 134.921875 L 180.515625 134.9375 C 179.605469 134.960938 178.691406 135.007812 177.777344 135.042969 C 177.324219 135.054688 176.867188 135.09375 176.410156 135.125 L 175.042969 135.222656 C 174.128906 135.277344 173.222656 135.390625 172.3125 135.480469 C 171.855469 135.527344 171.398438 135.566406 170.945312 135.625 L 169.582031 135.804688 L 168.21875 135.980469 C 167.765625 136.046875 167.316406 136.125 166.859375 136.191406 C 165.957031 136.339844 165.046875 136.460938 164.144531 136.632812 C 160.527344 137.25 156.925781 138.019531 153.351562 138.898438 C 146.515625 140.542969 139.761719 142.566406 132.996094 144.570312 L 132.800781 144.5625 C 139.453125 142.03125 146.171875 139.671875 153.023438 137.664062 Z M 153.023438 137.664062 " fill-opacity="1" fill-rule="nonzero"/></g><g clip-path="url(#d137ee2eae)"><path fill="#43b0f1" d="M 132.800781 145.207031 L 132.996094 145.214844 L 157.015625 146.15625 L 180.5 150.8125 L 75.34375 142.949219 Z M 132.800781 145.207031 " fill-opacity="1" fill-rule="nonzero"/></g><path fill="#43b0f1" d="M 223.140625 158.636719 L 98.601562 149.320312 L 195.332031 153.121094 Z M 223.140625 158.636719 " fill-opacity="1" fill-rule="nonzero"/><path fill="#43b0f1" d="M 258.265625 165.734375 L 133.730469 156.417969 L 230.457031 160.21875 Z M 258.265625 165.734375 " fill-opacity="1" fill-rule="nonzero"/><g fill="#ffffff" fill-opacity="1"><g transform="translate(138.977445, 198.540647)"><g><path d="M 14.671875 0 L 13.75 0 L 2.890625 -8.859375 L 2.890625 0 L 1.53125 0 L 1.53125 -10.96875 L 2.453125 -10.96875 L 13.3125 -2.109375 L 13.3125 -10.96875 L 14.671875 -10.96875 Z M 14.671875 0 "/></g></g></g><g fill="#ffffff" fill-opacity="1"><g transform="translate(155.873384, 198.540647)"><g><path d="M 14 0 L 1.53125 0 L 1.53125 -10.96875 L 14 -10.96875 L 14 -9.609375 L 2.890625 -9.609375 L 2.890625 -6.15625 L 12.71875 -6.15625 L 12.71875 -4.796875 L 2.890625 -4.796875 L 2.890625 -1.359375 L 14 -1.359375 Z M 14 0 "/></g></g></g><g fill="#ffffff" fill-opacity="1"><g transform="translate(171.706716, 198.540647)"><g><path d="M 14.75 0 L 12.6875 0 L 7.484375 -4.578125 L 2.296875 0 L 0.234375 0 L 6.453125 -5.484375 L 0.234375 -10.96875 L 2.296875 -10.96875 L 7.484375 -6.390625 L 12.6875 -10.96875 L 14.75 -10.96875 L 8.515625 -5.484375 Z M 14.75 0 "/></g></g></g><g fill="#ffffff" fill-opacity="1"><g transform="translate(187.371863, 198.540647)"><g><path d="M 10.890625 0 C 11.828125 0 12.628906 -0.332031 13.296875 -1 C 13.960938 -1.664062 14.296875 -2.46875 14.296875 -3.40625 L 12.9375 -3.40625 C 12.9375 -2.84375 12.738281 -2.359375 12.34375 -1.953125 C 11.945312 -1.554688 11.460938 -1.359375 10.890625 -1.359375 L 4.546875 -1.359375 C 3.984375 -1.359375 3.5 -1.554688 3.09375 -1.953125 C 2.695312 -2.359375 2.5 -2.84375 2.5 -3.40625 L 2.5 -7.5625 C 2.5 -8.125 2.695312 -8.601562 3.09375 -9 C 3.5 -9.40625 3.984375 -9.609375 4.546875 -9.609375 L 10.890625 -9.609375 C 11.460938 -9.609375 11.945312 -9.40625 12.34375 -9 C 12.738281 -8.601562 12.9375 -8.125 12.9375 -7.5625 L 14.296875 -7.5625 C 14.296875 -8.5 13.960938 -9.300781 13.296875 -9.96875 C 12.628906 -10.632812 11.828125 -10.96875 10.890625 -10.96875 L 4.546875 -10.96875 C 3.609375 -10.96875 2.804688 -10.632812 2.140625 -9.96875 C 1.472656 -9.300781 1.140625 -8.5 1.140625 -7.5625 L 1.140625 -3.40625 C 1.140625 -2.46875 1.472656 -1.664062 2.140625 -1 C 2.804688 -0.332031 3.609375 0 4.546875 0 Z M 10.890625 0 "/></g></g></g><g fill="#ffffff" fill-opacity="1"><g transform="translate(203.503339, 198.540647)"><g><path d="M 15.765625 0 L 14.125 0 L 12.453125 -2.484375 L 3.546875 -2.484375 L 1.875 0 L 0.234375 0 L 7.640625 -10.96875 L 8.359375 -10.96875 Z M 11.53125 -3.84375 L 8 -9.0625 L 4.46875 -3.84375 Z M 11.53125 -3.84375 "/></g></g></g><g fill="#ffffff" fill-opacity="1"><g transform="translate(220.192875, 198.540647)"><g><path d="M 14.671875 0 L 13.3125 0 L 13.3125 -2.984375 C 13.3125 -3.296875 13.203125 -3.5625 12.984375 -3.78125 C 12.765625 -4.007812 12.5 -4.125 12.1875 -4.125 L 2.890625 -4.125 L 2.890625 0 L 1.53125 0 L 1.53125 -10.96875 L 12.1875 -10.96875 C 12.875 -10.96875 13.457031 -10.722656 13.9375 -10.234375 C 14.425781 -9.742188 14.671875 -9.15625 14.671875 -8.46875 L 14.671875 -6.609375 C 14.671875 -5.898438 14.410156 -5.296875 13.890625 -4.796875 C 14.410156 -4.304688 14.671875 -3.703125 14.671875 -2.984375 Z M 12.1875 -5.484375 C 12.5 -5.484375 12.765625 -5.59375 12.984375 -5.8125 C 13.203125 -6.03125 13.3125 -6.296875 13.3125 -6.609375 L 13.3125 -8.46875 C 13.3125 -8.78125 13.203125 -9.046875 12.984375 -9.265625 C 12.765625 -9.492188 12.5 -9.609375 12.1875 -9.609375 L 2.890625 -9.609375 L 2.890625 -5.484375 Z M 12.1875 -5.484375 "/></g></g></g><g fill="#43b0f1" fill-opacity="1"><g transform="translate(126.170593, 227.207577)"><g><path d="M 5.21875 0.09375 C 4.25 0.09375 3.410156 -0.117188 2.703125 -0.546875 C 2.003906 -0.984375 1.46875 -1.5625 1.09375 -2.28125 C 0.726562 -3 0.546875 -3.796875 0.546875 -4.671875 C 0.546875 -5.585938 0.742188 -6.40625 1.140625 -7.125 C 1.546875 -7.851562 2.109375 -8.421875 2.828125 -8.828125 C 3.554688 -9.242188 4.378906 -9.453125 5.296875 -9.453125 C 5.710938 -9.453125 6.097656 -9.40625 6.453125 -9.3125 C 6.816406 -9.226562 7.113281 -9.128906 7.34375 -9.015625 C 7.582031 -8.898438 7.742188 -8.804688 7.828125 -8.734375 L 7.203125 -7.46875 C 6.679688 -7.925781 6.007812 -8.15625 5.1875 -8.15625 C 4.601562 -8.15625 4.070312 -8.007812 3.59375 -7.71875 C 3.125 -7.4375 2.753906 -7.023438 2.484375 -6.484375 C 2.222656 -5.953125 2.09375 -5.335938 2.09375 -4.640625 C 2.09375 -4.003906 2.210938 -3.421875 2.453125 -2.890625 C 2.691406 -2.367188 3.039062 -1.957031 3.5 -1.65625 C 3.96875 -1.351562 4.519531 -1.203125 5.15625 -1.203125 C 5.90625 -1.203125 6.625 -1.410156 7.3125 -1.828125 L 7.734375 -0.625 C 7.546875 -0.457031 7.203125 -0.296875 6.703125 -0.140625 C 6.210938 0.015625 5.71875 0.09375 5.21875 0.09375 Z M 5.21875 0.09375 "/></g></g></g><g fill="#43b0f1" fill-opacity="1"><g transform="translate(142.085072, 227.207577)"><g><path d="M 4.390625 -9.3125 L 8.875 0 L 7.234375 0 L 6.4375 -1.828125 L 2.171875 -1.828125 L 1.375 0 L -0.203125 0 L 4.25 -9.3125 Z M 3.765625 -5.359375 L 2.75 -3.09375 L 5.890625 -3.09375 L 4.890625 -5.34375 L 4.34375 -6.625 L 4.3125 -6.625 Z M 3.765625 -5.359375 "/></g></g></g><g fill="#43b0f1" fill-opacity="1"><g transform="translate(158.455175, 227.207577)"><g><path d="M 5.625 0 L 3.765625 -3.515625 C 3.367188 -3.503906 3.019531 -3.5 2.71875 -3.5 L 2.359375 -3.5 L 2.359375 0 L 0.984375 0 L 0.984375 -9.296875 L 3.09375 -9.296875 C 4.164062 -9.296875 5.046875 -9.070312 5.734375 -8.625 C 6.429688 -8.1875 6.78125 -7.472656 6.78125 -6.484375 C 6.78125 -5.859375 6.632812 -5.316406 6.34375 -4.859375 C 6.050781 -4.410156 5.617188 -4.066406 5.046875 -3.828125 L 7.265625 0 Z M 3.265625 -4.640625 C 4.085938 -4.640625 4.648438 -4.816406 4.953125 -5.171875 C 5.265625 -5.535156 5.421875 -5.96875 5.421875 -6.46875 C 5.421875 -7.570312 4.6875 -8.125 3.21875 -8.125 L 2.359375 -8.125 L 2.359375 -4.640625 Z M 3.265625 -4.640625 "/></g></g></g><g fill="#43b0f1" fill-opacity="1"><g transform="translate(173.876059, 227.207577)"><g/></g></g><g fill="#43b0f1" fill-opacity="1"><g transform="translate(184.677409, 227.207577)"><g><path d="M 3.125 0.125 C 2.613281 0.125 2.109375 0.0351562 1.609375 -0.140625 C 1.117188 -0.316406 0.765625 -0.515625 0.546875 -0.734375 L 1.21875 -1.9375 C 1.394531 -1.78125 1.671875 -1.613281 2.046875 -1.4375 C 2.421875 -1.257812 2.78125 -1.171875 3.125 -1.171875 C 3.570312 -1.171875 3.9375 -1.273438 4.21875 -1.484375 C 4.5 -1.703125 4.640625 -1.992188 4.640625 -2.359375 C 4.640625 -2.648438 4.5625 -2.898438 4.40625 -3.109375 C 4.257812 -3.328125 4.078125 -3.503906 3.859375 -3.640625 C 3.640625 -3.773438 3.328125 -3.945312 2.921875 -4.15625 C 2.441406 -4.382812 2.113281 -4.5625 1.9375 -4.6875 C 1.113281 -5.226562 0.703125 -5.984375 0.703125 -6.953125 C 0.703125 -7.753906 0.96875 -8.367188 1.5 -8.796875 C 2.03125 -9.222656 2.703125 -9.4375 3.515625 -9.4375 C 4.390625 -9.4375 5.128906 -9.1875 5.734375 -8.6875 L 5.0625 -7.546875 C 4.90625 -7.710938 4.679688 -7.851562 4.390625 -7.96875 C 4.097656 -8.09375 3.785156 -8.15625 3.453125 -8.15625 C 3.035156 -8.15625 2.703125 -8.0625 2.453125 -7.875 C 2.210938 -7.6875 2.09375 -7.40625 2.09375 -7.03125 C 2.09375 -6.769531 2.171875 -6.535156 2.328125 -6.328125 C 2.484375 -6.128906 2.675781 -5.953125 2.90625 -5.796875 C 3.132812 -5.640625 3.445312 -5.453125 3.84375 -5.234375 C 4.226562 -5.023438 4.519531 -4.859375 4.71875 -4.734375 C 4.925781 -4.617188 5.117188 -4.472656 5.296875 -4.296875 C 5.535156 -4.078125 5.726562 -3.816406 5.875 -3.515625 C 6.03125 -3.210938 6.109375 -2.878906 6.109375 -2.515625 C 6.109375 -1.953125 5.976562 -1.472656 5.71875 -1.078125 C 5.46875 -0.679688 5.113281 -0.378906 4.65625 -0.171875 C 4.207031 0.0234375 3.695312 0.125 3.125 0.125 Z M 3.125 0.125 "/></g></g></g><g fill="#43b0f1" fill-opacity="1"><g transform="translate(199.022515, 227.207577)"><g><path d="M 4.390625 -9.3125 L 8.875 0 L 7.234375 0 L 6.4375 -1.828125 L 2.171875 -1.828125 L 1.375 0 L -0.203125 0 L 4.25 -9.3125 Z M 3.765625 -5.359375 L 2.75 -3.09375 L 5.890625 -3.09375 L 4.890625 -5.34375 L 4.34375 -6.625 L 4.3125 -6.625 Z M 3.765625 -5.359375 "/></g></g></g><g fill="#43b0f1" fill-opacity="1"><g transform="translate(215.392617, 227.207577)"><g><path d="M 0.984375 -9.296875 L 2.421875 -9.296875 L 2.421875 -1.265625 L 5.09375 -1.265625 L 5.09375 0 L 0.984375 0 Z M 0.984375 -9.296875 "/></g></g></g><g fill="#43b0f1" fill-opacity="1"><g transform="translate(228.560692, 227.207577)"><g><path d="M 0.96875 -9.296875 L 5.046875 -9.296875 L 5.046875 -8.0625 L 2.375 -8.0625 L 2.375 -5.5 L 4.53125 -5.5 L 4.53125 -4.234375 L 2.375 -4.234375 L 2.375 -1.25 L 5.46875 -1.25 L 5.46875 0 L 0.96875 0 Z M 0.96875 -9.296875 "/></g></g></g><g fill="#43b0f1" fill-opacity="1"><g transform="translate(242.171744, 227.207577)"><g><path d="M 3.125 0.125 C 2.613281 0.125 2.109375 0.0351562 1.609375 -0.140625 C 1.117188 -0.316406 0.765625 -0.515625 0.546875 -0.734375 L 1.21875 -1.9375 C 1.394531 -1.78125 1.671875 -1.613281 2.046875 -1.4375 C 2.421875 -1.257812 2.78125 -1.171875 3.125 -1.171875 C 3.570312 -1.171875 3.9375 -1.273438 4.21875 -1.484375 C 4.5 -1.703125 4.640625 -1.992188 4.640625 -2.359375 C 4.640625 -2.648438 4.5625 -2.898438 4.40625 -3.109375 C 4.257812 -3.328125 4.078125 -3.503906 3.859375 -3.640625 C 3.640625 -3.773438 3.328125 -3.945312 2.921875 -4.15625 C 2.441406 -4.382812 2.113281 -4.5625 1.9375 -4.6875 C 1.113281 -5.226562 0.703125 -5.984375 0.703125 -6.953125 C 0.703125 -7.753906 0.96875 -8.367188 1.5 -8.796875 C 2.03125 -9.222656 2.703125 -9.4375 3.515625 -9.4375 C 4.390625 -9.4375 5.128906 -9.1875 5.734375 -8.6875 L 5.0625 -7.546875 C 4.90625 -7.710938 4.679688 -7.851562 4.390625 -7.96875 C 4.097656 -8.09375 3.785156 -8.15625 3.453125 -8.15625 C 3.035156 -8.15625 2.703125 -8.0625 2.453125 -7.875 C 2.210938 -7.6875 2.09375 -7.40625 2.09375 -7.03125 C 2.09375 -6.769531 2.171875 -6.535156 2.328125 -6.328125 C 2.484375 -6.128906 2.675781 -5.953125 2.90625 -5.796875 C 3.132812 -5.640625 3.445312 -5.453125 3.84375 -5.234375 C 4.226562 -5.023438 4.519531 -4.859375 4.71875 -4.734375 C 4.925781 -4.617188 5.117188 -4.472656 5.296875 -4.296875 C 5.535156 -4.078125 5.726562 -3.816406 5.875 -3.515625 C 6.03125 -3.210938 6.109375 -2.878906 6.109375 -2.515625 C 6.109375 -1.953125 5.976562 -1.472656 5.71875 -1.078125 C 5.46875 -0.679688 5.113281 -0.378906 4.65625 -0.171875 C 4.207031 0.0234375 3.695312 0.125 3.125 0.125 Z M 3.125 0.125 "/></g></g></g></svg>